<svg width="98" height="120" viewBox="0 0 98 120" fill="none" xmlns="http://www.w3.org/2000/svg">
<path d="M40.2436 49.3101C40.2714 49.2823 40.2993 49.2268 40.3202 49.1782L44.9731 42.1504C43.6681 41.4109 42.6102 40.3171 41.8863 38.9976L19.0603 75.8279L20.7099 78.8487L40.2436 49.3101ZM26.2608 92.6506H25.1158V90.397H28.0704V92.6506H26.2608ZM88.2868 92.6506H87.1697V90.397H90.1243V92.6506H88.2868ZM71.1608 92.6506H70.0437V90.397H72.9983V92.6506H71.1608ZM76.8752 92.6506H75.7302V90.397H78.6848V92.6506H76.8752ZM82.5931 92.6506H81.4481V90.397H84.4027V92.6506H82.5931ZM9.11711 92.6506H8V90.397H10.9546V92.6506H9.11711ZM14.828 92.6506H13.7144V90.397H16.669V92.6506H14.828ZM20.5493 92.6506H19.4044V90.397H22.3763V92.6506H20.5493ZM49.0477 73.6266C54.9013 73.6266 59.6273 78.3522 59.6273 84.1821C59.6273 90.0224 54.8909 94.7377 49.0477 94.7377C43.2255 94.7377 38.4958 90.012 38.4958 84.1821C38.4889 78.3522 43.2253 73.6266 49.0477 73.6266ZM54.9187 78.3245C51.6752 75.0884 46.4132 75.0884 43.1667 78.3245C39.9232 81.5606 39.9232 86.8106 43.1667 90.0498C46.4101 93.2859 51.6721 93.2859 54.9187 90.0498C58.1935 86.8103 58.1935 81.5637 54.9187 78.3245ZM53.2413 68.8001C54.5463 69.1473 55.82 69.6785 56.9928 70.3626L60.1805 67.9494L65.3102 73.0674L62.9194 76.248C63.5841 77.4459 64.1201 78.689 64.4576 79.991L68.4145 80.5709V87.7861L64.4576 88.3486C64.1096 89.6785 63.5772 90.9215 62.9194 92.0917L65.3102 95.3L60.1805 100.39L56.9928 98.0049C55.82 98.6959 54.5463 99.2029 53.2413 99.5674L52.6601 103.498H45.4284L44.8646 99.5674C43.5596 99.1924 42.2859 98.6889 41.1131 98.0049L37.8974 100.39L32.7956 95.3L35.1864 92.0917C34.5217 90.9215 33.9857 89.6785 33.6482 88.3486L29.6913 87.7861V80.5709L33.6482 79.991C33.9962 78.689 34.5286 77.4458 35.1864 76.248L32.7956 73.0674L37.8974 67.9494L41.1131 70.3626C42.2859 69.6716 43.5596 69.1473 44.8646 68.8001L45.4284 64.8522H52.6601L53.2413 68.8001ZM54.3096 71.5327C53.1368 71.057 52.3956 70.8973 51.2228 70.6542L50.7147 67.0987H47.3947L46.8866 70.6542C44.2034 71.2341 43.2951 71.6091 41.0156 73.0674L38.1445 70.9424L35.7816 73.2723L37.9392 76.1369C36.4776 78.4216 36.0809 79.3452 35.4927 81.9945L31.9569 82.5014V85.814L35.4927 86.3487C36.0739 88.998 36.4776 89.932 37.9392 92.2063L35.7816 95.0709L38.1445 97.4008L41.0156 95.248C43.3056 96.7341 44.2034 97.1021 46.8866 97.6889L47.3947 101.245H50.7147L51.2228 97.6889C53.8782 97.1091 54.8142 96.7341 57.0937 95.248L59.9649 97.4008L62.3278 95.0709L60.1701 92.2063C61.6317 89.9216 62.0285 88.9979 62.5888 86.3487L66.1524 85.814L66.1559 82.5154L62.5922 82.0084C62.0285 79.3591 61.6352 78.4252 60.1736 76.1508L62.3313 73.2862L59.9683 70.9564L57.0972 73.0813C56.1193 72.439 55.4545 72.0084 54.3096 71.5327ZM49.0477 31.5878C52.2077 31.5878 53.8015 35.4038 51.5708 37.6607C49.3401 39.8864 45.5119 38.2961 45.5119 35.1434C45.5119 33.1781 47.1058 31.5878 49.0477 31.5878ZM49.977 34.2162C49.1522 33.4211 47.774 34.001 47.774 35.1434C47.774 36.2858 49.1522 36.8656 49.977 36.0426C50.4851 35.5461 50.4851 34.7232 49.977 34.2162ZM47.1058 43.0218L43.3264 48.7474H54.7862L51.0068 43.0218C49.733 43.3412 48.383 43.3412 47.1058 43.0218ZM53.1368 42.1433L57.7898 49.171C57.8176 49.2266 57.8455 49.2752 57.8733 49.303L60.5077 53.2509C60.5356 53.3064 60.5634 53.3342 60.5913 53.3828L77.4143 78.8415L79.0639 75.8207L65.9025 54.6331C65.8747 54.5776 65.8468 54.5012 65.7981 54.4456L63.3795 50.5429C63.3516 50.4873 63.2959 50.4387 63.275 50.3554L56.2313 38.9767C55.5005 40.317 54.4419 41.4037 53.1368 42.1433ZM57.1216 36.1815L64.9136 48.7575H76.45V44.9867H82.7977V58.8338H76.45V55.0908H68.8459L81.6563 75.7503L78.6286 81.3163V88.0802H76.37V81.3718L58.9901 55.0909H39.1255L21.7385 81.3754V88.0837H19.4486V81.3198L16.4488 75.7539L40.9942 36.1805C41.022 36.0764 40.2529 32.0729 43.7052 29.0417L43.7018 22.4375H45.8768V17H52.2245V22.4375H54.3996V29.0417C56.4111 30.7917 57.4691 33.4479 57.1211 36.1805L57.1216 36.1815ZM49.0477 27.0322C50.1649 27.0322 51.2054 27.2475 52.1625 27.6398V24.6919H45.9713V27.6398C46.9214 27.237 47.9516 27.0322 49.0477 27.0322ZM53.1925 31.0079C50.9026 28.7232 47.2102 28.7232 44.9029 31.0079C42.613 33.2926 42.613 37.0044 44.9029 39.2788C47.2207 41.5635 50.913 41.5635 53.1925 39.2788C55.4998 36.9975 55.4998 33.2892 53.1925 31.0079ZM48.1394 22.4385H49.9769V19.258H48.1394V22.4385ZM56.2793 51.0047H41.8199L40.6192 52.838H57.501L56.2793 51.0047ZM66.2949 51.0047L67.4399 52.838H78.7117V56.5811H80.5492V47.2406H78.7117V51.0115H66.2942L66.2949 51.0047Z" fill="#F9FBE7"/>
</svg>
