<svg width="98" height="120" viewBox="0 0 98 120" fill="none" xmlns="http://www.w3.org/2000/svg">
<path d="M52.1042 38.5422C42.1546 48.1502 44.8587 65.5564 57.2131 71.7404C60.3382 73.3585 62.3462 76.3481 62.6351 79.6641H59.9101C58.0865 79.6919 58.0761 82.4106 59.9101 82.4419H61.3022V93.553C61.5319 100.883 72.2016 100.9 72.435 93.553L72.4385 82.4383H73.8305C75.6576 82.407 75.6645 79.6918 73.8305 79.6605H71.1021C71.3909 76.3445 73.3989 73.3585 76.5241 71.7403C78.4068 70.7646 80.126 69.5077 81.6329 68.0043C100.404 47.6674 72.5052 19.8062 52.1042 38.5422ZM69.6507 93.5564C69.5533 97.2162 64.18 97.2162 64.086 93.5564V82.4453H69.6542L69.6507 93.56L69.6507 93.5564ZM79.6663 66.0427C78.3613 67.3447 76.8718 68.435 75.2431 69.2787C71.1888 71.376 68.61 75.31 68.3177 79.6645H65.4188C65.1265 75.3104 62.5477 71.3763 58.4934 69.2752C56.8647 68.4314 55.3752 67.3411 54.0702 66.0391C47.016 58.9974 47.016 47.5458 54.0702 40.504C71.7459 24.2711 95.9323 48.4033 79.6634 66.0391L79.6663 66.0427Z" fill="#F9FBE7"/>
<path d="M78.1392 45.0425C77.4814 45.4383 77.2691 46.2924 77.6624 46.9487C82.6494 54.9835 76.3609 65.9558 66.8708 65.7754C59.9628 65.7754 54.3428 60.1677 54.3428 53.2758C54.3428 46.3839 59.9632 40.7763 66.8708 40.7763C69.1294 40.7763 71.3219 41.3735 73.2116 42.5089C74.795 43.4255 76.1975 41.0922 74.6454 40.1269C64.7928 34.0297 51.3357 41.686 51.5584 53.2763C52.4006 73.5438 81.3451 73.5403 82.1834 53.2763C82.2982 51.4325 80.9097 43.5536 78.1395 45.0437L78.1392 45.0425Z" fill="#F9FBE7"/>
<path d="M21.5488 79.5254L19.2415 81.8205C18.1522 82.9039 18.1522 84.6712 19.2415 85.758L23.181 89.6886C24.2669 90.7754 26.0382 90.772 27.1275 89.6851L29.4243 87.3831C33.517 90.2927 38.2394 92.2442 43.2058 93.081V96.331C43.2058 97.8623 44.4551 99.1087 45.9899 99.1087H51.5581C53.0928 99.1087 54.3422 97.8623 54.3422 96.331V93.081C55.5289 92.897 57.422 92.7095 57.0914 91.0741C56.9174 90.3241 56.1657 89.8657 55.421 90.0324C54.1751 90.5428 51.6485 89.9803 51.5581 91.8865V96.331H45.9899V91.8865C45.9899 91.1886 45.4714 90.5984 44.7788 90.508C39.4472 89.8101 34.3801 87.7164 30.134 84.4525C29.5807 84.0254 28.7942 84.0775 28.3 84.574L25.147 87.7233L21.2075 83.7858L24.3674 80.647C24.8651 80.1539 24.9173 79.3692 24.4893 78.8171C21.2179 74.5776 19.1195 69.5256 18.4199 64.2056C18.3295 63.5146 17.7378 62.9972 17.0383 62.9972H12.5838V57.4417H17.0383C17.7378 57.4417 18.3294 56.9243 18.4199 56.2333C19.1194 50.9138 21.2179 45.8582 24.4893 41.6217C24.9173 41.0697 24.8651 40.2849 24.3674 39.7919L21.211 36.646L25.1574 32.7154L28.3034 35.8682C28.7976 36.3613 29.5841 36.4134 30.1374 35.9898C34.3866 32.7259 39.4501 30.6322 44.7822 29.9342C45.4747 29.8439 45.9933 29.2536 45.9933 28.5557V24.1113H51.5615V28.5557C51.6937 30.5175 54.3699 29.9029 55.8455 30.5036C57.6099 30.9134 58.2781 28.2501 56.4928 27.8022C55.748 27.6251 55.0346 27.4758 54.3455 27.3578V24.1113C54.3455 22.58 53.0962 21.3335 51.5614 21.3335H45.9932C44.4585 21.3335 43.2092 22.58 43.2092 24.1113V27.3612C38.2396 28.198 33.5205 30.1494 29.4277 33.0592L27.1274 30.7571C26.0415 29.6738 24.2702 29.6703 23.1809 30.7571L19.2414 34.6877C18.1521 35.7711 18.1521 37.5384 19.2449 38.6252L21.5521 40.9169C18.6358 45.0003 16.6799 49.712 15.8412 54.6671H12.5839C11.0491 54.6671 9.7998 55.9136 9.7998 57.4449V63.0004C9.7998 64.5317 11.0491 65.7782 12.5839 65.7782H15.8412C16.6799 70.7365 18.6358 75.4449 21.5521 79.5284L21.5488 79.5254Z" fill="#F9FBE7"/>
<path d="M46.3866 38.1291C48.1962 37.9173 47.9213 35.2054 46.0942 35.3652C14.8251 39.6117 17.2618 84.2541 48.7739 85.2194C50.3956 85.2194 51.9582 85.0701 53.5487 84.7645C54.2308 84.6777 54.7528 84.0944 54.7528 83.3861C54.7528 82.5284 53.928 81.8582 53.0858 82.0214C51.6485 82.3027 50.2391 82.4416 48.774 82.4416C20.7558 81.5839 18.6087 41.8971 46.3866 38.1291Z" fill="#F9FBE7"/>
<path d="M65.8269 48.4143H71.0471C72.8741 48.3866 72.8776 45.6643 71.0471 45.6366H68.263V44.9421C68.263 44.1748 67.64 43.5532 66.8709 43.5532C66.1018 43.5532 65.4789 44.1748 65.4789 44.9421V45.6713C63.1507 45.8518 61.3027 47.7789 61.3027 50.1505C61.3027 52.6401 63.3316 54.6643 65.8269 54.6643H67.915C70.2014 54.7025 70.2014 58.0984 67.915 58.1365H62.6948C60.8677 58.1643 60.8642 60.8866 62.6948 60.9143H65.4789V61.6087C65.4789 62.3761 66.1018 62.9976 66.8709 62.9976C67.64 62.9976 68.263 62.3761 68.263 61.6087V60.8796C73.9808 60.324 73.6641 52.015 67.915 51.8867H65.8268C63.5404 51.8485 63.5404 48.4525 65.8269 48.4143Z" fill="#F9FBE7"/>
</svg>
