<svg width="98" height="120" viewBox="0 0 98 120" fill="none" xmlns="http://www.w3.org/2000/svg">
<path d="M79.598 71.794H18.9325C18.4209 71.794 18.0033 72.2072 18.0033 72.7211V76.2107C18.0033 76.61 18.2608 76.9676 18.6436 77.0926L23.4288 78.6378C24.1143 81.5684 25.2489 84.2975 26.808 86.7662L24.525 91.2524C24.3441 91.61 24.4102 92.044 24.6955 92.3252L29.6164 97.2349C29.8983 97.5197 30.3333 97.5856 30.6917 97.4051L35.1881 95.1273C37.7007 96.7071 40.4395 97.8426 43.3419 98.5023L44.908 103.27C45.0332 103.652 45.3882 103.909 45.7919 103.909H52.7348C53.135 103.909 53.4934 103.652 53.6187 103.27L55.1848 98.5023C58.0872 97.8426 60.8295 96.7072 63.3386 95.1273L67.835 97.4051C68.1934 97.5856 68.6284 97.5197 68.9103 97.2349L73.8311 92.3252C74.1165 92.0405 74.1826 91.61 74.0017 91.2524L71.7187 86.7662C73.2778 84.2975 74.4123 81.5683 75.0979 78.6378L79.8831 77.0926C80.2659 76.9676 80.5234 76.6135 80.5234 76.2107V72.7211C80.5234 72.2107 80.1097 71.794 79.598 71.794ZM78.6688 75.5405L74.0264 77.037C73.7097 77.1377 73.4696 77.4016 73.4034 77.7245C72.7422 80.8113 71.559 83.662 69.8781 86.2002C69.6937 86.478 69.6728 86.8322 69.8259 87.1273L72.0462 91.4884L68.0789 95.4467L63.708 93.2314C63.4121 93.0821 63.0537 93.103 62.7787 93.2835C60.193 94.9884 57.3358 96.1689 54.2908 96.7974C53.9671 96.8633 53.7026 97.0995 53.5982 97.412L52.0705 102.054H46.4745L44.9468 97.412C44.8424 97.0995 44.5779 96.8633 44.2543 96.7974C41.2091 96.1689 38.352 94.9883 35.7663 93.2835C35.4879 93.0995 35.1329 93.0786 34.8371 93.2314L30.4661 95.4467L26.4988 91.4884L28.7191 87.1273C28.8688 86.8322 28.8514 86.478 28.6669 86.2002C26.9895 83.662 25.8028 80.8113 25.1451 77.7245C25.0755 77.3981 24.8353 77.1377 24.5221 77.037L19.8797 75.5405V73.6481H29.6449C30.1356 84.0472 38.742 92.3637 49.2832 92.3637C56.4976 92.3637 63.1306 88.4261 66.5936 82.089C66.8407 81.6411 66.6736 81.0786 66.2247 80.832C65.7723 80.5855 65.212 80.7522 64.9649 81.2001C61.8293 86.9396 55.8224 90.5094 49.2867 90.5094C39.7682 90.5094 31.9665 83.0267 31.4827 73.6481H38.269C38.349 74.6481 38.5543 75.6133 38.8919 76.53C39.0694 77.0092 39.6019 77.2557 40.0821 77.0821C40.5623 76.905 40.8129 76.3738 40.6354 75.8946C40.3744 75.1794 40.2039 74.4294 40.1308 73.6482H58.4399C57.9735 78.2906 54.048 81.9259 49.2876 81.9259C46.5557 81.9259 43.9769 80.7176 42.2125 78.6099C41.8854 78.2176 41.2973 78.1655 40.9039 78.4919C40.5107 78.8183 40.4585 79.405 40.7856 79.7975C42.905 82.3288 46.0023 83.7767 49.2841 83.7767C55.068 83.7767 59.8182 79.3114 60.2913 73.6451H67.0879C67.0079 75.1764 66.7329 76.6903 66.2596 78.159C66.103 78.6451 66.3745 79.1659 66.8617 79.3222C67.3489 79.4785 67.8709 79.2076 68.0275 78.7215C68.5565 77.0687 68.8489 75.3639 68.9289 73.6451H78.6834L78.673 75.541L78.6688 75.5405ZM18.7516 67.1377H51.6876C52.1992 67.1377 52.6169 66.7245 52.6169 66.2106C52.6169 65.7002 52.2027 65.2835 51.6876 65.2835H47.5915L47.588 40.5964V36.5825L59.2812 43.3117V65.2877H55.1851C54.6735 65.2877 54.2559 65.7009 54.2559 66.2148C54.2559 66.7252 54.67 67.1419 55.1851 67.1419H79.7822C80.2938 67.1419 80.7114 66.7287 80.7114 66.2148C80.7114 65.7044 80.2973 65.2877 79.7822 65.2877H74.6873L74.6838 42.7739C74.6838 42.444 74.5063 42.1385 74.2209 41.9718L60.6729 34.1767C60.384 34.01 60.0325 34.0135 59.7436 34.1767C59.4548 34.3434 59.2808 34.6489 59.2808 34.9788V41.1697L47.1243 34.1766C46.8355 34.01 46.484 34.0134 46.1951 34.1766C45.9063 34.3433 45.7323 34.6489 45.7323 34.9787V39.6696H43.7973L41.4309 24.6456H42.1338C42.6454 24.6456 43.0631 24.2325 43.0631 23.7185V17.8158C43.0631 17.3054 42.6489 16.8887 42.1338 16.8887H29.2958C28.7843 16.8887 28.3666 17.3019 28.3666 17.8158V23.722C28.3666 24.2324 28.7808 24.6491 29.2958 24.6491H30.0267L27.6602 39.6731H24.7717C24.2601 39.6731 23.8425 40.0863 23.8425 40.6002V65.2909H18.7476C18.236 65.2909 17.8184 65.7041 17.8184 66.218C17.8218 66.7249 18.2365 67.1377 18.7516 67.1377ZM61.1357 42.7733V36.5823L72.8289 43.3115V65.2875H61.1357V42.7733ZM40.3143 65.287H31.1477V53.1484H40.3143V65.287ZM30.2256 18.7386H41.2052V22.7907H30.2256V18.7386ZM31.9065 24.6448H39.5523L41.9153 39.6688H29.5396L31.9065 24.6448ZM25.7015 41.523H45.7291V65.2866H42.1655L42.169 52.2244C42.169 51.714 41.7549 51.2973 41.2398 51.2973H30.2183C29.7068 51.2973 29.2891 51.7105 29.2891 52.2244V65.2866H25.7012L25.7015 41.523Z" fill="#F9FBE7"/>
</svg>
