<svg width="98" height="120" viewBox="0 0 98 120" fill="none" xmlns="http://www.w3.org/2000/svg">
<path d="M83.8642 53.4796H78.4213C77.6522 50.0282 76.3054 46.7782 74.4053 43.7987L78.2543 39.9584C78.4387 39.7744 78.5431 39.5209 78.5431 39.2605C78.5431 39.0001 78.4387 38.7466 78.2543 38.5626L70.2569 30.5834C69.8706 30.198 69.2442 30.198 68.8579 30.5834L65.0089 34.4236C62.023 32.5278 58.7656 31.1841 55.306 30.4167V24.9861C55.306 24.441 54.8641 24 54.3177 24H43.0076C42.4612 24 42.0192 24.441 42.0192 24.9861V30.4167C38.56 31.1806 35.3026 32.5278 32.3163 34.4236L28.4673 30.5834C28.081 30.198 27.4546 30.198 27.0683 30.5834L19.071 38.5626C18.6847 38.948 18.6847 39.573 19.071 39.9584L22.92 43.7987C21.0199 46.7779 19.6731 50.0278 18.904 53.4796H13.461C12.9147 53.4796 12.4727 53.9205 12.4727 54.4657V65.7501C12.4727 66.2953 12.9146 66.7363 13.461 66.7363H18.904C19.6696 70.1876 21.0199 73.4377 22.92 76.4172L19.071 80.2574C18.6847 80.6428 18.6847 81.2678 19.071 81.6532L27.0683 89.6324C27.4546 90.0179 28.081 90.0179 28.4673 89.6324L32.3163 85.7922C35.3023 87.688 38.5596 89.0317 42.0192 89.7991V95.2297C42.0192 95.7748 42.4612 96.2158 43.0076 96.2158H54.3177C54.8641 96.2158 55.306 95.7749 55.306 95.2297V89.7991C58.7653 89.0352 62.0227 87.688 65.0089 85.7922L68.8579 89.6324C69.2442 90.0179 69.8706 90.0179 70.2569 89.6324L78.2543 81.6532C78.4387 81.4692 78.5431 81.2157 78.5431 80.9553C78.5431 80.6949 78.4387 80.4414 78.2543 80.2574L74.4053 76.4171C76.3054 73.4379 77.6522 70.188 78.4213 66.7363H83.8642C84.4106 66.7363 84.8526 66.2953 84.8526 65.7501V54.4657C84.8526 53.9205 84.4106 53.4796 83.8642 53.4796ZM82.8759 64.764H77.6174C77.1441 64.764 76.737 65.0974 76.6465 65.5626C75.9157 69.3196 74.4576 72.83 72.3172 75.9964C72.0528 76.3888 72.1015 76.913 72.439 77.2464L76.1558 80.9547L69.5576 87.538L65.8408 83.8297C65.5067 83.4963 64.9812 83.4442 64.588 83.7081C61.4141 85.8435 57.8958 87.2984 54.1305 88.0276C53.6642 88.1179 53.3301 88.5241 53.3301 88.9963V94.2428H43.9996V88.9963C43.9996 88.5241 43.6655 88.1178 43.1992 88.0276C39.4337 87.2984 35.9153 85.8436 32.7417 83.7081C32.3484 83.4442 31.823 83.4928 31.4889 83.8297L27.7721 87.538L21.1738 80.9547L24.8906 77.2464C25.2247 76.913 25.2769 76.3887 25.0124 75.9964C22.8722 72.8297 21.414 69.3193 20.6831 65.5626C20.5927 65.0974 20.1855 64.764 19.7122 64.764H14.4538V55.4547H19.7122C20.1855 55.4547 20.5927 55.1214 20.6831 54.6561C21.414 50.8991 22.8721 47.3887 25.0124 44.2223C25.2769 43.8299 25.2282 43.3057 24.8906 42.9723L21.1738 39.264L27.7721 32.6807L31.4889 36.389C31.823 36.7224 32.3485 36.7745 32.7417 36.5106C35.9155 34.3752 39.4339 32.9203 43.1992 32.1911C43.6655 32.1008 43.9996 31.6946 43.9996 31.2224V25.9759H53.3301V31.2224C53.3301 31.6946 53.6642 32.1009 54.1305 32.1911C57.896 32.9203 61.4144 34.3751 64.588 36.5106C64.9813 36.7745 65.5067 36.7259 65.8408 36.389L69.5576 32.6807L76.1558 39.264L72.439 42.9723C72.105 43.3057 72.0528 43.83 72.3172 44.2223C74.4575 47.389 75.9157 50.8994 76.6465 54.6561C76.737 55.1214 77.1442 55.4547 77.6174 55.4547H82.8759V64.764ZM48.6632 37.8609C36.3713 37.8609 26.3699 47.8405 26.3699 60.1071C26.3699 70.5134 33.4554 79.4227 43.5966 81.7702C45.2496 82.1557 46.9548 82.3501 48.6636 82.3501C50.3724 82.3501 52.0741 82.1557 53.7272 81.7702C63.872 79.423 70.9574 70.5134 70.9574 60.1071C70.9574 47.8396 60.9551 37.8609 48.6641 37.8609H48.6632ZM47.6748 80.3471C46.7143 80.302 45.7573 80.1839 44.8142 80.0034V55.774H47.6748V80.3471ZM49.655 55.7738H52.5156V80.0031C51.5725 80.1837 50.6155 80.2983 49.655 80.3469V55.7738ZM52.5156 53.7981H44.8142V52.1314L48.6666 46.746L52.5191 52.1314V53.7981H52.5156ZM54.4959 79.5234V51.815C54.4959 51.6101 54.4332 51.4087 54.3114 51.242L49.4706 44.4712C49.0982 43.9504 48.2317 43.9504 47.8593 44.4712L43.0184 51.242C42.9001 51.4087 42.834 51.6101 42.834 51.815V79.5234C34.2486 76.9782 28.3496 69.1696 28.3496 60.1065C28.3496 48.9296 37.4609 39.8318 48.6632 39.8318C59.8655 39.8318 68.9768 48.9252 68.9768 60.1065C68.9768 69.1687 63.0815 76.9776 54.4924 79.5234H54.4959Z" fill="#F9FBE7"/>
</svg>
