<svg width="98" height="120" viewBox="0 0 98 120" fill="none" xmlns="http://www.w3.org/2000/svg">
<path d="M90.6641 93.3546H87.1665V63.3999C87.1665 62.8305 86.7698 62.334 86.213 62.2054L74.1928 59.4763V42.6674C74.1928 41.9938 73.6465 41.4452 72.9678 41.4452H70.9215V39.4765C70.918 37.8341 69.5851 36.5042 67.939 36.5042H62.9138V33.3965C64.2466 34.3306 65.837 34.8341 67.4658 34.8341C68.8439 34.8341 70.1942 34.4695 71.3843 33.782C71.6662 33.6188 71.8715 33.3514 71.9585 33.0389C72.0421 32.7264 71.9968 32.3896 71.8333 32.1118L69.1188 27.4209L70.6395 26.5459C71.1755 26.1882 71.3425 25.4764 71.0189 24.9174C70.6987 24.3584 69.9958 24.1466 69.418 24.4313L67.8972 25.3063L65.1827 20.6119C64.8451 20.0251 64.0934 19.8272 63.5088 20.164C59.8546 22.2682 58.5113 26.8689 60.4602 30.6013V36.5006L56.1518 36.5041C54.5057 36.5041 53.1728 37.8339 53.1693 39.4763V41.4416H51.1891L51.1926 37.2124C51.1926 36.886 51.0638 36.5735 50.8341 36.3444C50.601 36.1152 50.2912 35.9867 49.9641 35.9867H45.1859V32.3409C45.1859 31.6638 44.636 31.1152 43.9574 31.1152H38.0795V28.4798C38.0795 27.8027 37.5296 27.2541 36.8545 27.2541C36.1759 27.2541 35.626 27.8027 35.626 28.4798V31.1152H29.7481C29.0694 31.1187 28.5231 31.6638 28.5231 32.3409V35.9867H23.7414C23.0662 35.9867 22.5164 36.5319 22.5164 37.209V59.4765L10.4962 62.2057C9.93941 62.3341 9.54269 62.8307 9.54269 63.4002V93.3548H6.57418C5.89555 93.3548 5.3457 93.9 5.3457 94.5771V99.341C5.3457 99.6639 5.47447 99.9764 5.70415 100.206C5.93384 100.435 6.24705 100.563 6.57418 100.563H90.668H90.6645C90.9916 100.563 91.3013 100.435 91.531 100.206C91.7607 99.9764 91.8895 99.6639 91.8895 99.341V94.5771C91.8895 94.2541 91.7607 93.9416 91.531 93.7125C91.3014 93.4833 90.9877 93.3546 90.6641 93.3546ZM62.2075 25.5697C62.4685 24.5905 63.001 23.7051 63.7423 23.0141L69.0321 32.1528C67.1458 32.7257 65.096 32.2327 63.6762 30.8646C62.2598 29.4965 61.6959 27.4725 62.2075 25.5697ZM84.7137 64.375V93.3546H74.1929V61.983L84.7137 64.375ZM51.1932 88.3092H71.7394V93.3544H51.1932V88.3092ZM55.6269 39.4755H55.6234C55.6269 39.1873 55.8636 38.9512 56.1524 38.9512H67.9391C68.2315 38.9512 68.4646 39.1873 68.4681 39.4755V41.4407L55.623 41.4442L55.6269 39.4755ZM71.7399 43.8852V85.8612H51.1938V43.8852H71.7399ZM30.9737 33.5625H42.7328V35.9861H30.9737V33.5625ZM48.7393 38.4341V93.354H44.7372V81.0003C44.7372 80.6774 44.6084 80.3649 44.3752 80.1357C44.1455 79.9065 43.8358 79.7781 43.5087 79.7781H29.9259C29.2473 79.7781 28.6974 80.3267 28.6974 81.0003V93.354H24.9702V38.4341H48.7393ZM31.151 93.354V82.2252H35.4907V93.354H31.151ZM37.9442 82.2252H42.2839V93.354H37.9442V82.2252ZM11.9929 64.3745L22.5136 61.9821V93.3537H11.9929V64.3745ZM89.436 98.1141H7.79936V95.7981H89.436V98.1141ZM30.4169 52.0829H42.6562C42.9833 52.0829 43.293 51.9545 43.5227 51.7253C43.7524 51.4961 43.8847 51.1836 43.8847 50.8607V44.0343C43.8847 43.3572 43.3348 42.8086 42.6562 42.8086H30.4169C29.7417 42.8086 29.1919 43.3572 29.1919 44.0343V50.8573C29.1919 51.1836 29.3206 51.4927 29.5503 51.7253C29.78 51.9545 30.0932 52.0829 30.4169 52.0829ZM31.6419 45.26H41.4276L41.4311 49.635H31.6453L31.6419 45.26ZM27.7058 58.7151C27.7058 58.038 28.2557 57.4894 28.9343 57.4894H30.5526C31.2312 57.4894 31.781 58.038 31.781 58.7151C31.781 59.3887 31.2312 59.9373 30.5526 59.9373H28.9343C28.6072 59.9373 28.2974 59.8089 28.0678 59.5797C27.8381 59.3505 27.7058 59.038 27.7058 58.7151ZM38.7548 58.7151C38.7548 59.3887 38.2049 59.9339 37.5298 59.9373H35.9081C35.2295 59.9373 34.6796 59.3887 34.6796 58.7151C34.6796 58.038 35.2295 57.4894 35.9081 57.4894H37.5298C38.2049 57.4929 38.7548 58.038 38.7548 58.7151ZM42.8787 57.4929H44.497L44.5005 57.4894C45.1791 57.4894 45.7255 58.038 45.7255 58.7151C45.7255 59.3887 45.1791 59.9373 44.5005 59.9373H42.8822C42.2036 59.9373 41.6537 59.3887 41.6537 58.7151C41.6537 58.038 42.2036 57.4894 42.8822 57.4894L42.8787 57.4929ZM27.7057 65.8922C27.7057 65.2186 28.2555 64.67 28.9341 64.67H30.5524C30.883 64.6595 31.2066 64.7845 31.4433 65.0172C31.6799 65.2463 31.8157 65.5623 31.8157 65.8922C31.8157 66.2255 31.6799 66.5415 31.4433 66.7707C31.2066 66.9998 30.883 67.1248 30.5524 67.1179H28.9341C28.2555 67.1179 27.7091 66.5693 27.7057 65.8922ZM38.7546 65.8922C38.7546 66.5693 38.2048 67.1144 37.5296 67.1179H35.9079C35.5773 67.1248 35.2536 66.9998 35.017 66.7707C34.7803 66.5415 34.6446 66.2255 34.6446 65.8922C34.6446 65.5623 34.7803 65.2464 35.017 65.0172C35.2536 64.7845 35.5773 64.6595 35.9079 64.67H37.5296C38.2048 64.6734 38.7546 65.2186 38.7546 65.8922ZM45.7253 65.8922C45.7253 66.2186 45.5965 66.5311 45.3668 66.7602C45.1371 66.9894 44.8239 67.1179 44.5003 67.1179H42.882C42.5479 67.1248 42.2278 66.9998 41.9911 66.7707C41.7545 66.5415 41.6187 66.2255 41.6187 65.8922C41.6187 65.5623 41.7545 65.2464 41.9911 65.0172C42.2278 64.7845 42.5479 64.6595 42.882 64.67H44.5003C44.8239 64.67 45.1371 64.7984 45.3668 65.0276C45.5965 65.2568 45.7253 65.5693 45.7253 65.8922ZM27.7084 73.0727H27.7119C27.7119 72.3956 28.2583 71.8505 28.9369 71.8505H30.5551C31.2338 71.8505 31.7836 72.3956 31.7836 73.0727C31.7836 73.7498 31.2338 74.2984 30.5551 74.2984H28.9334C28.6063 74.2984 28.2966 74.1665 28.0669 73.9373C27.8372 73.7081 27.7049 73.3991 27.7049 73.0727L27.7084 73.0727ZM38.7539 73.0727H38.7574C38.7574 73.3991 38.6286 73.7081 38.3955 73.9373C38.1658 74.1665 37.856 74.2984 37.5289 74.2984H35.9072C35.2286 74.2984 34.6787 73.7498 34.6787 73.0727C34.6787 72.3957 35.2286 71.8505 35.9072 71.8505H37.5289C38.204 71.8505 38.7539 72.3991 38.7539 73.0727ZM45.728 73.0727H45.7315C45.7315 73.7498 45.1816 74.2984 44.503 74.2984H42.8813C42.2027 74.2984 41.6528 73.7498 41.6528 73.0727C41.6528 72.3956 42.2027 71.8505 42.8813 71.8505H44.4996C44.8232 71.8505 45.1364 71.979 45.3661 72.2081C45.5958 72.4373 45.7246 72.7498 45.7246 73.0727H45.728ZM55.0754 59.1278H67.3112C67.6348 59.1278 67.948 58.9994 68.1777 58.7702C68.4074 58.541 68.5362 58.2285 68.5362 57.9056V51.0827C68.5362 50.4056 67.9898 49.857 67.3112 49.857H55.0719C54.3967 49.857 53.8469 50.4056 53.8469 51.0827V57.9056C53.8469 58.5792 54.3967 59.1278 55.0719 59.1278H55.0754ZM56.3004 52.3049H66.0862V56.6799H56.3004V52.3049ZM60.0138 63.3813C60.0138 64.0584 59.4639 64.6036 58.7853 64.6036H57.167C56.8364 64.614 56.5162 64.489 56.2761 64.2598C56.0395 64.0272 55.9072 63.7112 55.9072 63.3813C55.9072 63.0515 56.0395 62.7355 56.2761 62.5029C56.5162 62.2737 56.8364 62.1487 57.167 62.1591H58.7853C59.4639 62.1591 60.0138 62.7077 60.0138 63.3813ZM66.9879 63.3813C66.9879 63.7077 66.8591 64.0168 66.6259 64.2459C66.3963 64.4751 66.0865 64.6036 65.7594 64.6036H64.1412C63.8105 64.614 63.4904 64.489 63.2502 64.2598C63.0136 64.0272 62.8814 63.7112 62.8814 63.3813C62.8814 63.0515 63.0136 62.7355 63.2502 62.5029C63.4904 62.2737 63.8105 62.1487 64.1412 62.1591H65.7594C66.0865 62.1591 66.3962 62.2876 66.6294 62.5168C66.8591 62.7459 66.9879 63.0584 66.9879 63.3813ZM60.0138 71.8223C60.0138 72.4959 59.4639 73.0445 58.7853 73.0445H57.167C56.8364 73.055 56.5162 72.93 56.2761 72.6973C56.0395 72.4682 55.9072 72.1522 55.9072 71.8223C55.9072 71.489 56.0395 71.173 56.2761 70.9438C56.5162 70.7147 56.8364 70.5897 57.167 70.5966H58.7853C59.4639 70.5966 60.0138 71.1452 60.0138 71.8223ZM66.9879 71.8223C66.9879 72.1452 66.8591 72.4577 66.6259 72.6869C66.3963 72.9161 66.0865 73.0445 65.7594 73.0445H64.1412C63.8105 73.055 63.4904 72.93 63.2502 72.6973C63.0136 72.4682 62.8814 72.1522 62.8814 71.8223C62.8814 71.489 63.0136 71.173 63.2502 70.9438C63.4904 70.7147 63.8105 70.5897 64.1412 70.5966H65.7594C66.0865 70.5966 66.3962 70.7251 66.6294 70.9543C66.8591 71.1869 66.9879 71.4959 66.9879 71.8223ZM60.0138 80.2598C60.0138 80.9369 59.4639 81.4821 58.7853 81.4821H57.167C56.8364 81.4925 56.5162 81.3675 56.2761 81.1383C56.0395 80.9091 55.9072 80.5897 55.9072 80.2598C55.9072 79.93 56.0395 79.614 56.2761 79.3814C56.5162 79.1522 56.8364 79.0272 57.167 79.0376H58.7853C59.4639 79.0376 60.0138 79.5862 60.0138 80.2598ZM66.9879 80.2598C66.9879 80.5862 66.8591 80.8952 66.6259 81.1244C66.3963 81.3536 66.0865 81.4855 65.7594 81.4821H64.1412C63.8105 81.4925 63.4904 81.3675 63.2502 81.1383C63.0136 80.9091 62.8814 80.5897 62.8814 80.2598C62.8814 79.93 63.0136 79.614 63.2502 79.3814C63.4904 79.1522 63.8105 79.0272 64.1412 79.0376H65.7594C66.0865 79.0376 66.3962 79.1661 66.6294 79.3952C66.8591 79.6244 66.9879 79.9369 66.9879 80.2598ZM77.4668 69.8465C77.4668 69.1694 78.0166 68.6208 78.6952 68.6208H80.3135C80.9921 68.6208 81.5419 69.1694 81.5419 69.8465C81.5419 70.5201 80.9921 71.0687 80.3135 71.0687H78.6952C78.3681 71.0687 78.0584 70.9402 77.8287 70.7111C77.599 70.4819 77.4668 70.1694 77.4668 69.8465ZM77.4668 76.4889C77.4668 75.8153 78.0166 75.2667 78.6952 75.2667H80.3135C80.9921 75.2667 81.5419 75.8153 81.5419 76.4889C81.5419 77.166 80.9921 77.7146 80.3135 77.7146H78.6952C78.3681 77.7146 78.0584 77.5861 77.8287 77.357C77.599 77.1243 77.4668 76.8153 77.4668 76.4889ZM77.4668 83.1348C77.4668 82.8084 77.599 82.4994 77.8287 82.2702C78.0584 82.0375 78.3681 81.9091 78.6952 81.9091H80.3135C80.6441 81.9021 80.9678 82.0271 81.2044 82.2563C81.441 82.4855 81.5768 82.8014 81.5768 83.1348C81.5768 83.4646 81.441 83.7806 81.2044 84.0098C80.9678 84.2424 80.6441 84.3674 80.3135 84.357H78.6952C78.0166 84.357 77.4702 83.8084 77.4668 83.1348ZM15.1655 69.8469C15.1655 69.1698 15.7153 68.6212 16.3905 68.6212H18.0122C18.6873 68.6212 19.2372 69.1698 19.2372 69.8469C19.2372 70.5205 18.6873 71.0691 18.0122 71.0691H16.3905C16.0668 71.0691 15.7536 70.9406 15.5239 70.7114C15.2942 70.4823 15.1655 70.1698 15.1655 69.8469ZM19.2372 76.4893C19.2372 77.1663 18.6873 77.7149 18.0122 77.7149H16.3905C15.7153 77.7149 15.1655 77.1663 15.1655 76.4893C15.1655 75.8156 15.7153 75.267 16.3905 75.267H18.0122C18.6873 75.267 19.2372 75.8156 19.2372 76.4893ZM19.2372 83.1351C19.2372 83.8087 18.6873 84.3573 18.0122 84.3573H16.3905C16.0599 84.3678 15.7397 84.2428 15.5031 84.0101C15.2664 83.781 15.1307 83.465 15.1307 83.1351C15.1307 82.8018 15.2664 82.4858 15.5031 82.2567C15.7397 82.0275 16.0599 81.9025 16.3905 81.9094H18.0122C18.6873 81.9094 19.2372 82.458 19.2372 83.1351Z" fill="#E0E0E0"/>
</svg>
