<svg width="98" height="120" viewBox="0 0 98 120" fill="none" xmlns="http://www.w3.org/2000/svg">
<path d="M24.9993 48.7256C24.7313 48.7256 24.4669 48.6458 24.2407 48.4999L8.66756 38.5142C7.27551 37.6218 6.38113 36.1322 6.25239 34.4829C6.12363 32.837 6.77441 31.2259 8.00989 30.1287L20.2706 19.2398C24.0013 15.9447 29.4719 15.5176 33.669 18.1981L40.8032 22.778V22.7745C41.1164 22.9794 41.3391 23.2953 41.4192 23.6599C41.4957 24.0245 41.4296 24.403 41.2243 24.7189L26.1724 48.0869L26.1759 48.0835C25.9148 48.4793 25.4761 48.7221 24.9993 48.7256ZM27.6686 19.2465L27.672 19.243C25.6327 19.2396 23.6664 19.9826 22.1387 21.3264L9.88157 32.226C9.30387 32.7399 8.99762 33.4934 9.05678 34.2642C9.11943 35.035 9.53704 35.7329 10.1878 36.1496L24.5778 45.379L38.1089 24.3718L32.1509 20.5524H32.1544C30.8146 19.6947 29.259 19.2433 27.6721 19.2468L27.6686 19.2465Z" fill="#E0E0E0"/>
<path d="M22.8344 39.5797C22.563 39.5763 22.2985 39.4999 22.0688 39.3575L15.3696 35.0589H15.3731C15.0007 34.8194 14.7641 34.4235 14.7293 33.986C14.6979 33.5485 14.8685 33.1215 15.1991 32.8298L25.1523 23.9826C26.6 22.6979 28.7264 22.5312 30.355 23.5763L31.6949 24.4305C32.3491 24.8506 32.5371 25.7187 32.1194 26.3715L24.0247 38.9341C23.8229 39.2466 23.5062 39.4654 23.1408 39.5453C23.0399 39.5696 22.9353 39.5797 22.8344 39.5797ZM18.4495 33.7047L22.4098 36.2429L28.9803 26.0314L28.8341 25.9411C28.594 25.7849 28.3121 25.7015 28.0267 25.705C27.6578 25.7015 27.2994 25.8369 27.0244 26.08L18.4495 33.7047Z" fill="#E0E0E0"/>
<path d="M53.4042 103.41C52.6246 103.41 51.9982 102.782 51.9982 102.008V81.9144H26.8024C26.0264 81.9144 25.3965 81.2859 25.3965 80.5116C25.3965 79.7373 26.0264 79.1089 26.8024 79.1089H53.4041C54.1801 79.1089 54.81 79.7374 54.81 80.5116V102.009C54.81 102.783 54.1802 103.41 53.4042 103.41Z" fill="#E0E0E0"/>
<path d="M81.7564 83.6839H81.6555C81.1439 83.6457 80.6915 83.3332 80.4792 82.8679L77.8413 77.1388L71.5423 77.1283C71.0551 77.1283 70.6027 76.8749 70.3451 76.4617L66.2977 69.92C66.1585 69.6978 66.0854 69.4443 66.0854 69.1839V60.3505H49.454C48.9041 60.3505 48.403 60.0311 48.1768 59.5311L47.251 57.5172L40.9485 57.5033L40.9451 57.5068C40.3987 57.5068 39.8975 57.1839 39.6713 56.6874L37.0473 50.979L30.7553 50.9651L30.7588 50.9686C30.2089 50.9651 29.7112 50.6457 29.4816 50.1491L26.4852 43.6213H26.4886C26.165 42.9165 26.4747 42.0831 27.1812 41.7602C27.8877 41.4373 28.7229 41.7498 29.043 42.4546L31.667 48.163L37.9556 48.1769V48.1734C38.5054 48.1734 39.0031 48.4963 39.2293 48.9928L41.8533 54.7012L48.1558 54.7151V54.7116C48.7056 54.7151 49.2033 55.0345 49.433 55.531L50.3587 57.538H67.4945V57.5415C68.2705 57.5415 68.9004 58.1699 68.9004 58.9477V68.7877L72.3284 74.3294L78.7491 74.3433H78.7457C79.2955 74.3433 79.7932 74.6627 80.0229 75.1627L81.9613 79.3641L89.0225 68.4059L37.4789 27.6975C36.9221 27.2044 36.849 26.3641 37.3119 25.7843C37.7713 25.201 38.6065 25.076 39.219 25.4961L91.7683 66.9894C92.3356 67.4408 92.4678 68.2464 92.0746 68.8506L82.9392 83.0382C82.6817 83.4409 82.2367 83.6839 81.7564 83.6839Z" fill="#E0E0E0"/>
<path d="M78.0082 59.3198C77.2287 59.3198 76.5988 58.6914 76.5988 57.9136V42.9243H57.2491C56.8663 42.9382 56.4974 42.7958 56.2226 42.5319C55.9476 42.268 55.791 41.9 55.791 41.5215C55.791 41.1396 55.9476 40.775 56.2226 40.5111C56.4975 40.2472 56.8664 40.1049 57.2491 40.1153H78.0082C78.7843 40.1153 79.4142 40.7472 79.4142 41.5215V57.9171V57.9136C79.4142 58.6914 78.7843 59.3198 78.0047 59.3198L78.0082 59.3198Z" fill="#E0E0E0"/>
<path d="M53.4042 103.41H26.7321C25.9561 103.41 25.3262 102.782 25.3262 102.008V80.5108C25.3262 80.2469 25.3993 79.9865 25.5419 79.7643L40.9413 55.3545L40.9378 55.358C41.1327 55.0281 41.4494 54.792 41.8183 54.7017C42.1907 54.6115 42.5804 54.6774 42.9041 54.8788C43.2243 55.0802 43.4505 55.4031 43.5305 55.7747C43.6106 56.1496 43.534 56.5351 43.3217 56.851L28.138 80.9168V100.601H52.6273L69.5964 73.7675C69.7913 73.4411 70.108 73.2084 70.4769 73.1216C70.8458 73.0313 71.2356 73.0973 71.5557 73.2987C71.8793 73.5001 72.1021 73.823 72.1821 74.1945C72.2622 74.5626 72.1891 74.9515 71.9768 75.2674L54.5898 102.754C54.3357 103.163 53.8833 103.41 53.4031 103.41L53.4042 103.41Z" fill="#E0E0E0"/>
<path d="M53.4099 81.9136C52.8914 81.9171 52.418 81.6324 52.171 81.181C51.9239 80.7261 51.9483 80.1775 52.2302 79.7469L66.2655 58.2572V58.2537C66.7006 57.6322 67.5532 57.4655 68.1901 57.8787C68.8304 58.2954 69.0218 59.1391 68.6251 59.7884L54.5862 81.2746C54.3286 81.6739 53.8832 81.9171 53.4099 81.9136Z" fill="#E0E0E0"/>
<path d="M71.0966 53.8685C70.5815 53.8685 70.1117 53.5907 69.8646 53.1428C69.6175 52.6948 69.6349 52.1497 69.9064 51.7191L76.797 40.8027V40.7992C77.2181 40.1568 78.0777 39.9693 78.7285 40.3791C79.3793 40.7888 79.5812 41.6395 79.1809 42.2957L72.2903 53.2121H72.2868C72.0293 53.6218 71.5803 53.8685 71.0966 53.8685Z" fill="#E0E0E0"/>
<path d="M47.1571 69.7745C46.6385 69.7745 46.1617 69.4898 45.9182 69.035C45.6711 68.5766 45.6989 68.0246 45.9843 67.594L52.2276 58.17C52.4294 57.8471 52.7496 57.6214 53.122 57.538C53.4944 57.4582 53.8841 57.5276 54.2008 57.7394C54.5175 57.9478 54.7367 58.2776 54.8098 58.6491C54.8794 59.0241 54.7959 59.4095 54.5732 59.7185L48.3298 69.1425C48.0688 69.5349 47.6303 69.7711 47.1571 69.7745Z" fill="#E0E0E0"/>
<path d="M35.147 81.9138C34.6423 81.9138 34.1725 81.6429 33.9254 81.2054C33.6749 80.7645 33.6818 80.2262 33.9428 79.7923L39.6224 70.2918C39.7999 69.9516 40.1131 69.7016 40.4855 69.5974C40.8543 69.4932 41.2511 69.5453 41.5852 69.7432C41.9158 69.9377 42.1524 70.2606 42.236 70.6356C42.323 71.0106 42.2499 71.4064 42.0376 71.7259L36.3581 81.2326C36.104 81.6562 35.6446 81.9172 35.147 81.9138Z" fill="#E0E0E0"/>
<path d="M49.5999 76.3409C49.0814 76.3375 48.608 76.0527 48.3645 75.5944C48.1209 75.1396 48.1487 74.5875 48.4341 74.1569L50.7449 70.7333C51.1938 70.1326 52.036 69.9902 52.6589 70.4069C53.2784 70.8235 53.4663 71.6534 53.0835 72.2958L50.7692 75.7194C50.5082 76.1083 50.0697 76.3409 49.5999 76.3409Z" fill="#E0E0E0"/>
<path d="M53.776 91.0631C53.5046 91.0631 53.2366 90.9832 53.0069 90.8339C52.6972 90.629 52.4779 90.3131 52.4014 89.9485C52.3248 89.5839 52.3944 89.202 52.5997 88.8929L57.7816 80.9763C57.98 80.6534 58.3036 80.4277 58.6725 80.3444C59.0414 80.261 59.4312 80.3339 59.7479 80.5388C60.0645 80.7471 60.2838 81.0735 60.3569 81.445C60.4334 81.8131 60.3534 82.1985 60.1376 82.511L54.9557 90.4276C54.6947 90.8234 54.2528 91.0631 53.776 91.0631Z" fill="#E0E0E0"/>
</svg>
