<svg width="96" height="120" viewBox="0 0 96 120" fill="none" xmlns="http://www.w3.org/2000/svg">
<path d="M77.5471 100.798L65.2745 96.7162L20.7055 52.1309C20.0902 51.5146 20.0902 50.5162 20.7065 49.9008C21.3219 49.2845 22.3203 49.2855 22.9356 49.9008L66.9775 93.9572L72.559 95.8129L70.6975 90.2401L27.0694 46.5841C26.4531 45.9677 26.4531 44.9703 27.0703 44.354C27.6867 43.7386 28.6851 43.7376 29.3004 44.354L73.4537 88.5361L77.5471 100.798Z" fill="#E0E0E0"/>
<path d="M12.2339 43.0378C11.8307 43.0378 11.4275 42.8842 11.1194 42.577L8.14241 39.6048C7.84577 39.3091 7.67969 38.9088 7.67969 38.4902C7.67873 38.0717 7.84577 37.6704 8.14049 37.3747L14.0848 31.4237C14.3815 31.128 14.7818 30.9619 15.1994 30.9619C15.6179 30.9619 16.0202 31.128 16.3159 31.4227L19.2899 34.3958C19.9072 35.0122 19.9072 36.0096 19.2909 36.6259C18.6755 37.2422 17.6771 37.2422 17.0608 36.6269L15.2023 34.7683L11.4861 38.4874L13.3466 40.345C13.9629 40.9603 13.9639 41.9597 13.3485 42.575C13.0413 42.8842 12.6381 43.0378 12.2339 43.0378Z" fill="#E0E0E0"/>
<path d="M18.4624 49.6033C18.042 49.6033 17.6205 49.4353 17.3104 49.1031C16.7152 48.4676 16.7479 47.4692 17.3853 46.874L23.7309 40.9364C24.3674 40.3412 25.3658 40.3739 25.9591 41.0113C26.5552 41.6468 26.5216 42.6452 25.8861 43.2395L19.5396 49.1771C19.2362 49.4631 18.8484 49.6033 18.4624 49.6033Z" fill="#E0E0E0"/>
<path d="M15.2011 46.3399C14.7796 46.3399 14.3592 46.171 14.0491 45.8398C13.4548 45.2052 13.4875 44.2058 14.123 43.6116L20.4696 37.674C21.106 37.0778 22.1044 37.1134 22.6987 37.7479C23.2929 38.3844 23.2603 39.3828 22.6238 39.977L16.2782 45.9146C15.9729 46.1998 15.587 46.3399 15.2011 46.3399Z" fill="#E0E0E0"/>
<path d="M41.0139 76.1684L20.5563 96.626L10.6299 86.69L31.1451 66.1748C31.7883 65.5316 32.8251 65.5316 33.4587 66.1748C34.1019 66.8084 34.1019 67.8452 33.4587 68.4884L30.8571 71.0996L32.3547 72.5972C32.9883 73.2308 32.9883 74.2676 32.3547 74.9108C32.0283 75.2276 31.6155 75.3908 31.1931 75.3908C30.7707 75.3908 30.3579 75.2276 30.0315 74.9108L28.5339 73.4132L25.8363 76.1108L27.3339 77.6093C27.9771 78.2525 27.9771 79.2893 27.3339 79.9325C27.0171 80.2493 26.5947 80.4029 26.1723 80.4029C25.7595 80.4029 25.3371 80.2493 25.0203 79.9229L23.5227 78.4244L20.4795 81.4676L21.9771 82.9661C22.6107 83.6093 22.6107 84.6461 21.9771 85.2893C21.6507 85.6061 21.2379 85.7693 20.8155 85.7693C20.3931 85.7693 19.9803 85.6061 19.6635 85.2893L18.1659 83.7908L15.2571 86.69L20.5563 91.9892L38.6907 73.8548C39.3339 73.2116 40.3707 73.2116 41.0139 73.8548C41.6475 74.498 41.6475 75.5348 41.0139 76.1684Z" fill="#E0E0E0"/>
<path d="M52.0573 64.4461C51.6377 64.4461 51.2192 64.2858 50.8995 63.9661C50.2592 63.3268 50.2592 62.29 50.8995 61.6506L69.2835 43.2657L63.9862 37.9665L45.9737 55.9799C45.3334 56.6193 44.2976 56.6193 43.6573 55.9799C43.0179 55.3396 43.0179 54.3028 43.6573 53.6634L63.9872 33.3335L73.9155 43.2666L53.215 63.9661C52.8953 64.2858 52.4758 64.4461 52.0573 64.4461Z" fill="#E0E0E0"/>
<path d="M51.5123 43.7983L29.9775 22.2636L31.1353 21.1049C32.6732 19.5669 34.7132 18.7202 36.879 18.7202C39.0399 18.7202 41.0751 19.5641 42.6073 21.0962L52.2044 30.6943C52.6595 31.1138 54.9251 31.2069 56.1423 31.2569L56.2662 31.2617C57.6726 30.8892 59.1779 30.9093 60.5766 31.3212L63.2233 32.1017L51.5123 43.7983ZM34.8073 22.4613L51.5142 39.1673L56.151 34.5362L56.0079 34.5305C53.6492 34.4335 51.2099 34.3327 49.8889 33.0117L40.2908 23.4137C39.3769 22.4997 38.1654 21.9967 36.879 21.9967C36.1513 21.9967 35.4476 22.157 34.8073 22.4613Z" fill="#E0E0E0"/>
<path d="M85.0645 77.3425L63.4453 55.7329L75.1708 44.0171L75.9685 46.6216C76.4101 48.0664 76.4408 49.5937 76.0588 51.0587L76.0626 51.1432C76.1135 52.3739 76.2076 54.6635 76.6319 55.1301L86.2232 64.7118C89.3816 67.8827 89.3807 73.0283 86.2232 76.1848L85.0645 77.3425ZM68.0792 55.7329L84.862 72.5089C85.701 70.7176 85.3813 68.5096 83.9039 67.0264L74.3087 57.4408C72.9887 56.1092 72.8879 53.6536 72.789 51.2795L72.7784 51.0395L68.0792 55.7329Z" fill="#E0E0E0"/>
<path d="M62.5784 44.1118C61.9937 43.5271 61.9937 42.5777 62.5841 41.9873C63.1688 41.4027 64.1192 41.4027 64.7038 41.9873C65.2875 42.5719 65.2875 43.5214 64.7038 44.107C64.1115 44.6974 63.163 44.6974 62.5784 44.1118Z" fill="#E0E0E0"/>
</svg>
