<svg width="96" height="120" viewBox="0 0 96 120" fill="none" xmlns="http://www.w3.org/2000/svg">
<path d="M73.5 33.0375C73.8978 33.0375 74.2794 32.8795 74.5607 32.5982C74.842 32.3169 75 31.9353 75 31.5375V27.0375C75 26.6397 74.842 26.2581 74.5607 25.9768C74.2794 25.6955 73.8978 25.5375 73.5 25.5375H37.5C37.1022 25.5375 36.7206 25.6955 36.4393 25.9768C36.158 26.2581 36 26.6397 36 27.0375V28.5375H33V27C34.2593 26.0555 35.1895 24.7388 35.6589 23.2363C36.1282 21.7337 36.1129 20.1216 35.6151 18.6283C35.1173 17.135 34.1623 15.8361 32.8853 14.9157C31.6083 13.9953 30.0741 13.5 28.5 13.5C26.9259 13.5 25.3917 13.9953 24.1147 14.9157C22.8377 15.8361 21.8827 17.135 21.3849 18.6283C20.8871 20.1216 20.8718 21.7337 21.3411 23.2363C21.8105 24.7388 22.7407 26.0555 24 27V31.5375C24 31.9353 24.158 32.3169 24.4393 32.5982C24.7206 32.8795 25.1022 33.0375 25.5 33.0375C25.8978 33.0375 26.2794 32.8795 26.5607 32.5982C26.842 32.3169 27 31.9353 27 31.5375V28.3858C27.9898 28.5881 29.0102 28.5881 30 28.3858V82.5375H27V37.5375C27 37.1397 26.842 36.7581 26.5607 36.4768C26.2794 36.1955 25.8978 36.0375 25.5 36.0375C25.1022 36.0375 24.7206 36.1955 24.4393 36.4768C24.158 36.7581 24 37.1397 24 37.5375V82.5375H22.5C22.1022 82.5375 21.7206 82.6955 21.4393 82.9768C21.158 83.2581 21 83.6397 21 84.0375V105.038C21 105.435 21.158 105.817 21.4393 106.098C21.7206 106.379 22.1022 106.538 22.5 106.538H34.5C34.8978 106.538 35.2794 106.379 35.5607 106.098C35.842 105.817 36 105.435 36 105.038V84.0375C36 83.6397 35.842 83.2581 35.5607 82.9768C35.2794 82.6955 34.8978 82.5375 34.5 82.5375H33V67.5375H36V69.0375C36 69.4353 36.158 69.8169 36.4393 70.0982C36.7206 70.3795 37.1022 70.5375 37.5 70.5375H73.5C73.8978 70.5375 74.2794 70.3795 74.5607 70.0982C74.842 69.8169 75 69.4353 75 69.0375V37.5375C75 37.1397 74.842 36.7581 74.5607 36.4768C74.2794 36.1955 73.8978 36.0375 73.5 36.0375C73.1022 36.0375 72.7206 36.1955 72.4393 36.4768C72.158 36.7581 72 37.1397 72 37.5375V52.5375H68.5386C67.0455 52.5328 65.5856 52.9781 64.3493 53.8153C63.113 54.6524 62.1576 55.8427 61.6076 57.2308C61.2785 58.061 60.7069 58.7728 59.9673 59.2735C59.2277 59.7741 58.3545 60.0404 57.4614 60.0375H52.0386C50.5454 60.0329 49.0855 60.4782 47.8491 61.3154C46.6126 62.1525 45.6571 63.3427 45.1069 64.7308L43.9843 67.5375H39V43.5375H42.4614C43.9545 43.5422 45.4144 43.0969 46.6507 42.2598C47.887 41.4226 48.8424 40.2323 49.3924 38.8442C49.7215 38.014 50.2931 37.3022 51.0327 36.8015C51.7723 36.3009 52.6455 36.0346 53.5386 36.0375H58.9614C60.4546 36.0421 61.9145 35.5968 63.1509 34.7596C64.3874 33.9225 65.3429 32.7323 65.8931 31.3442L67.0157 28.5375H72V31.5375C72 31.9353 72.158 32.3169 72.4393 32.5982C72.7206 32.8795 73.1022 33.0375 73.5 33.0375ZM24 21.0375C24 20.1475 24.2639 19.2775 24.7584 18.5374C25.2529 17.7974 25.9557 17.2206 26.7779 16.88C27.6002 16.5394 28.505 16.4503 29.3779 16.624C30.2508 16.7976 31.0526 17.2262 31.682 17.8555C32.3113 18.4849 32.7399 19.2867 32.9135 20.1596C33.0872 21.0325 32.9981 21.9373 32.6575 22.7596C32.3169 23.5818 31.7401 24.2846 31.0001 24.7791C30.26 25.2736 29.39 25.5375 28.5 25.5375C27.3069 25.5362 26.1631 25.0616 25.3195 24.218C24.4759 23.3744 24.0013 22.2306 24 21.0375ZM33 103.538H24V85.5375H33V103.538ZM47.8924 65.8442C48.2215 65.014 48.7931 64.3022 49.5327 63.8015C50.2723 63.3009 51.1455 63.0347 52.0386 63.0375H57.4614C58.9545 63.0422 60.4144 62.5969 61.6507 61.7598C62.887 60.9226 63.8424 59.7323 64.3924 58.3442C64.7215 57.514 65.2931 56.8022 66.0327 56.3015C66.7723 55.8009 67.6455 55.5346 68.5386 55.5375H72V67.5375H47.2153L47.8924 65.8442ZM36 58.5375H33V37.5375H36V58.5375ZM36 31.5375V34.5375H33V31.5375H36ZM33 64.5375V61.5375H36V64.5375H33ZM63.1076 30.2308C62.7785 31.061 62.2069 31.7728 61.4673 32.2735C60.7277 32.7741 59.8545 33.0404 58.9614 33.0375H53.5386C52.0455 33.0328 50.5856 33.4781 49.3493 34.3153C48.113 35.1524 47.1576 36.3427 46.6076 37.7308C46.2785 38.561 45.7069 39.2728 44.9673 39.7735C44.2277 40.2741 43.3545 40.5404 42.4614 40.5375H39V28.5375H63.7847L63.1076 30.2308Z" fill="#E0E0E0"/>
<path d="M49.5 46.5376H57C57.3978 46.5376 57.7794 46.3796 58.0607 46.0983C58.342 45.817 58.5 45.4354 58.5 45.0376C58.5 44.6398 58.342 44.2582 58.0607 43.9769C57.7794 43.6956 57.3978 43.5376 57 43.5376H49.5C49.1022 43.5376 48.7206 43.6956 48.4393 43.9769C48.158 44.2582 48 44.6398 48 45.0376C48 45.4354 48.158 45.817 48.4393 46.0983C48.7206 46.3796 49.1022 46.5376 49.5 46.5376Z" fill="#E0E0E0"/>
<path d="M49.5 52.5376H61.5C61.8978 52.5376 62.2794 52.3796 62.5607 52.0983C62.842 51.817 63 51.4354 63 51.0376C63 50.6398 62.842 50.2582 62.5607 49.9769C62.2794 49.6956 61.8978 49.5376 61.5 49.5376H49.5C49.1022 49.5376 48.7206 49.6956 48.4393 49.9769C48.158 50.2582 48 50.6398 48 51.0376C48 51.4354 48.158 51.817 48.4393 52.0983C48.7206 52.3796 49.1022 52.5376 49.5 52.5376Z" fill="#E0E0E0"/>
</svg>
