<svg width="24" height="18" viewBox="0 0 24 18" fill="none" xmlns="http://www.w3.org/2000/svg">
<path d="M2 1.93896L12.2857 8.87792L21.9999 1.93896M23.25 4.48319V13.2725C23.25 14.5679 23.2503 15.2157 22.9778 15.7105C22.7381 16.1457 22.3551 16.4995 21.8847 16.7212C21.35 16.9733 20.6504 16.9734 19.2502 16.9734H4.75024C3.35011 16.9734 2.64953 16.9733 2.11475 16.7212C1.64434 16.4995 1.26217 16.1457 1.02248 15.7105C0.75 15.2157 0.75 14.5679 0.75 13.2725V4.48319C0.75 3.1878 0.75 2.54018 1.02248 2.04541C1.26217 1.61019 1.64434 1.25632 2.11475 1.03457C2.64953 0.782471 3.35011 0.782471 4.75024 0.782471H19.2502C20.6504 0.782471 21.35 0.782471 21.8847 1.03457C22.3551 1.25632 22.7381 1.61019 22.9778 2.04541C23.2503 2.54018 23.25 3.1878 23.25 4.48319Z" stroke="white" stroke-width="1.5" stroke-linecap="round" stroke-linejoin="round"/>
</svg>
