<svg width="72" height="48" viewBox="0 0 72 48" fill="none" xmlns="http://www.w3.org/2000/svg">
<path d="M31.5189 0.309514C32.1365 0.40503 32.8639 1.08728 33.262 1.94692C34.5384 4.73051 33.4541 9.62908 31.4365 10.1885C31.1071 10.2704 27.3739 10.325 21.1564 10.325C11.9743 10.325 11.3841 10.3386 11.3155 10.5569C11.288 10.6934 11.2194 11.7986 11.1645 13.0131L11.0684 15.2372H21.2525C32.4659 15.2372 32.0541 15.2099 32.562 16.0695C32.8365 16.5471 32.8502 16.3834 32.4384 23.1513C32.3286 24.9115 32.1777 27.6132 32.0953 29.1551C32.0267 30.697 31.8894 32.9894 31.8208 34.272C31.7385 35.541 31.6698 36.8919 31.6424 37.2739L31.6149 37.9562L34.5109 37.9971C37.2011 38.0244 37.4069 38.0108 37.3932 37.7924C37.3795 37.4786 37.5579 33.89 37.7226 31.2019C38.0658 25.6757 39.054 8.42832 39.3147 3.57068C39.4108 1.63309 39.5892 0.991766 40.1657 0.568769C40.52 0.297834 40.8202 0.295885 55.2491 0.202404L55.5653 0.200356C69.5375 0.118485 70.6218 0.11849 71.061 0.33681C71.3218 0.459616 71.6512 0.73252 71.8021 0.937195C72.0904 1.3329 72.0904 1.25102 71.6237 10.8025C71.5551 12.2216 71.4041 15.4828 71.2806 18.0344C71.1708 20.586 71.0335 22.933 70.9924 23.2605C70.91 23.9564 70.3747 24.5977 69.7434 24.7751C69.51 24.8433 67.5336 24.8842 65.3513 24.8706C59.875 24.816 60.1495 25.0616 60.3691 20.5997C60.4377 18.9623 60.5613 16.2742 60.6436 14.6232C60.726 12.9721 60.8083 11.3347 60.8358 10.9663L60.8769 10.325H55.2771C50.0203 10.325 49.6635 10.3386 49.6635 10.5569C49.6498 10.6934 49.6223 11.0209 49.5949 11.2801C49.5674 11.5394 49.4713 12.9585 49.389 14.4185C48.9361 22.6874 48.8125 24.7478 48.6341 27.6542C48.4145 31.1473 48.2498 34.5586 47.9478 41.5175C47.7694 45.7611 47.742 46.075 47.44 46.7027C46.8361 47.9307 47.8655 47.8488 33.907 47.8488C24.9445 47.8488 21.5681 47.8079 21.3485 47.6987C20.9505 47.4804 20.5937 47.0301 20.4976 46.5935C20.4564 46.4025 20.4839 45.2563 20.5525 44.0692C20.6348 42.882 20.7995 40.1257 20.9093 37.9562C21.0329 35.773 21.1838 32.9485 21.2525 31.6795C21.3211 30.3968 21.4172 28.6503 21.4583 27.7906C21.4995 26.931 21.5681 25.9349 21.6093 25.5801L21.6779 24.9388L11.4115 24.8979C2.11961 24.8569 1.10395 24.8297 0.719647 24.625C-0.158762 24.1474 -0.158753 24.0382 0.321627 14.4867C0.513779 10.8025 0.719652 6.47707 0.802003 4.86696C0.966704 1.42841 1.00787 1.16916 1.33728 0.787099C1.91373 0.132137 1.351 0.145776 16.6683 0.200356C24.5877 0.214001 31.2718 0.268579 31.5189 0.309514Z" fill="#C2D30D"/>
</svg>
