<svg width="164" height="65" viewBox="0 0 164 65" fill="none" xmlns="http://www.w3.org/2000/svg">
<g clip-path="url(#clip0_318_270)">
<g clip-path="url(#clip1_318_270)">
<path d="M93.6738 36.6087C90.6162 35.5018 85.8185 34.9904 82.2098 34.9904C77.9087 34.9904 73.5001 35.6256 70.7754 36.5986L67.2816 25.1796L72.4583 28.1202C72.1435 28.8641 72.0517 29.6833 72.1939 30.4784C72.3362 31.2735 72.7064 32.0101 73.2596 32.5986C73.8127 33.1872 74.5249 33.6023 75.3097 33.7936C76.0944 33.9848 76.9178 33.9439 77.6797 33.6759C78.4416 33.4078 79.1092 32.9242 79.6013 32.2837C80.0934 31.6432 80.3888 30.8736 80.4516 30.0683C80.5144 29.2631 80.3419 28.4569 79.955 27.748C79.5681 27.039 78.9835 26.4577 78.2723 26.0747L82.2198 17.0458L86.1314 26.1023C85.3884 26.488 84.775 27.0832 84.3671 27.8142C83.9591 28.5451 83.7745 29.3797 83.8362 30.2145C83.8978 31.0493 84.203 31.8477 84.714 32.5107C85.2249 33.1738 85.9192 33.6724 86.7107 33.9448C87.5022 34.2172 88.3563 34.2514 89.167 34.0432C89.9778 33.835 90.7097 33.3935 91.2721 32.7735C91.8344 32.1534 92.2025 31.382 92.3308 30.5548C92.459 29.7276 92.3418 28.8809 91.9936 28.1197L97.1703 25.1812L93.6738 36.6087ZM99.4302 22.3686C99.366 22.3182 99.2868 22.2908 99.2052 22.2908C99.1442 22.2914 99.0844 22.3076 99.0316 22.3379L90.1482 27.3823C90.1021 27.4085 90.0622 27.4444 90.0313 27.4876C90.0004 27.5307 89.9793 27.58 89.9693 27.6322C89.9625 27.6842 89.9666 27.7371 89.9813 27.7874C89.9959 27.8378 90.0209 27.8846 90.0545 27.9249C90.4913 28.4352 90.7577 29.0693 90.8163 29.7385C90.8196 30.2598 90.6682 30.7703 90.3811 31.2054C90.0939 31.6405 89.6841 31.9805 89.2036 32.1825C88.723 32.3844 88.1933 32.4391 87.6816 32.3397C87.1699 32.2402 86.6992 31.9911 86.3292 31.6239C85.9593 31.2567 85.7066 30.7879 85.6034 30.2769C85.5001 29.766 85.5509 29.2359 85.7492 28.7538C85.9476 28.2717 86.2846 27.8594 86.7175 27.5691C87.1504 27.2787 87.6598 27.1234 88.1811 27.1229C88.1853 27.1229 88.1742 27.0319 88.2107 27.017C88.2134 27.0148 88.2158 27.0121 88.2176 27.0091C88.2187 27.0076 88.2193 27.0059 88.2193 27.0041C88.2193 27.0022 88.2187 27.0005 88.2176 26.999L82.5533 13.8839C82.5259 13.8203 82.4802 13.7663 82.4221 13.7286C82.364 13.6909 82.296 13.6713 82.2267 13.6721C82.1575 13.672 82.0897 13.6919 82.0315 13.7294C81.9733 13.767 81.9273 13.8207 81.899 13.8839L76.1644 26.999C76.1584 27.0128 76.1563 27.028 76.1582 27.0429C76.1602 27.0578 76.1662 27.0719 76.1755 27.0837C76.1829 27.0962 76.1934 27.1065 76.2061 27.1135C76.2187 27.1206 76.233 27.1242 76.2475 27.124H76.2501C76.2561 27.1234 76.2622 27.1234 76.2681 27.124C76.7847 27.1276 77.2885 27.2841 77.7162 27.5737C78.1439 27.8634 78.4763 28.2731 78.6714 28.7514C78.8665 29.2296 78.9157 29.755 78.8127 30.2611C78.7097 30.7673 78.4591 31.2316 78.0926 31.5955C77.7261 31.9595 77.26 32.2068 76.7531 32.3062C76.2463 32.4056 75.7213 32.3528 75.2444 32.1543C74.7676 31.9558 74.3601 31.6205 74.0736 31.1908C73.787 30.7611 73.634 30.2561 73.634 29.7396C73.6925 29.07 73.9597 28.4356 74.3979 27.926C74.4318 27.8859 74.4567 27.839 74.4711 27.7886C74.4856 27.7381 74.4891 27.6852 74.4815 27.6332C74.4724 27.5811 74.4518 27.5316 74.4213 27.4884C74.3907 27.4451 74.3509 27.4093 74.3047 27.3834L65.4235 22.3348C65.361 22.2992 65.2893 22.2832 65.2176 22.2887C65.1459 22.2941 65.0775 22.3209 65.0211 22.3655C64.9661 22.4098 64.9256 22.4696 64.9046 22.5371C64.8837 22.6046 64.8834 22.6768 64.9036 22.7445L69.6727 38.3291C69.6879 38.3794 69.7141 38.4255 69.7495 38.4643C69.7848 38.503 69.8284 38.5334 69.8771 38.5531C69.9212 38.5719 69.9688 38.5816 70.0168 38.5816C70.0748 38.5824 70.132 38.5672 70.182 38.5377C72.4053 37.3567 77.5175 36.5409 82.2098 36.5409C86.9143 36.5409 92.0524 37.3641 94.2625 38.5557C94.3145 38.5844 94.373 38.5995 94.4324 38.5996C94.4791 38.5989 94.5254 38.5899 94.569 38.5732C94.618 38.5531 94.6619 38.5223 94.6973 38.4828C94.7327 38.4434 94.7587 38.3965 94.7733 38.3455L99.5488 22.745C99.569 22.6772 99.5685 22.6049 99.5474 22.5374C99.5263 22.4699 99.4855 22.4102 99.4302 22.366" fill="#BEBEBE"/>
<path d="M93.9912 40.2168C91.3719 38.8643 85.8553 38.454 82.2106 38.454C78.5495 38.454 73.0043 38.8685 70.3951 40.2327C70.3237 40.2702 70.2673 40.3309 70.2352 40.4049C70.2031 40.4789 70.1973 40.5616 70.2188 40.6393L70.4194 41.3629C70.4346 41.4142 70.461 41.4615 70.4968 41.5013C70.5327 41.541 70.5769 41.5723 70.6264 41.5927C70.6762 41.6133 70.7299 41.6226 70.7837 41.6199C70.8376 41.6173 70.8901 41.6027 70.9377 41.5773C72.2849 40.8399 76.2165 39.9193 82.2106 39.9193C88.1676 39.9193 92.086 40.8293 93.4555 41.5646C93.5027 41.5897 93.5549 41.6039 93.6083 41.6061C93.6617 41.6084 93.715 41.5987 93.7641 41.5776C93.8133 41.5566 93.8571 41.5248 93.8923 41.4847C93.9276 41.4445 93.9534 41.3969 93.9679 41.3455L94.169 40.6266C94.1918 40.5483 94.1864 40.4646 94.1539 40.3899C94.1215 40.3152 94.0639 40.2536 93.9912 40.2168ZM76.9058 42.9082H75.4235V43.6461H76.036V46.9938H75.2568V47.6958H77.6464V46.9938H76.9052L76.9058 42.9082ZM80.3694 46.2855C80.3694 46.7419 80.2487 47.0007 79.8025 47.0007C79.3562 47.0007 79.2339 46.7419 79.2339 46.2855V46.0394C79.2339 45.5868 79.3525 45.357 79.8025 45.357C80.2524 45.357 80.3694 45.5979 80.3694 46.0394V46.2855ZM79.8078 43.6519C79.8745 43.6451 79.9419 43.6529 80.0054 43.6748C80.0688 43.6967 80.1266 43.7321 80.1749 43.7787C80.2232 43.8253 80.2608 43.8818 80.2849 43.9444C80.3091 44.007 80.3193 44.0741 80.3149 44.1411C80.3241 44.2741 80.2806 44.4054 80.1937 44.5066C80.1068 44.6077 79.9836 44.6706 79.8507 44.6815H79.8072C79.7379 44.6814 79.6694 44.6671 79.6058 44.6394C79.5423 44.6117 79.485 44.5713 79.4377 44.5206C79.3904 44.47 79.3539 44.4102 79.3306 44.3449C79.3073 44.2796 79.2977 44.2102 79.3022 44.1411C79.2977 44.0743 79.3077 44.0073 79.3317 43.9448C79.3557 43.8823 79.393 43.8258 79.4411 43.7792C79.4892 43.7326 79.5469 43.6971 79.6101 43.6751C79.6734 43.6531 79.7412 43.6452 79.8078 43.6519ZM80.7601 45.023C80.8895 44.9115 80.9933 44.7733 81.0645 44.618C81.1357 44.4627 81.1725 44.2939 81.1725 44.1231C81.1725 43.4476 80.7739 42.8933 79.8057 42.8933C78.8374 42.8933 78.4383 43.4476 78.4383 44.1231C78.4338 44.2966 78.4706 44.4688 78.5459 44.6253C78.6211 44.7817 78.7324 44.9181 78.8708 45.023C78.7011 45.118 78.5632 45.2611 78.4744 45.4341C78.3856 45.6072 78.3498 45.8027 78.3716 45.996V46.3295C78.3716 47.3167 78.8321 47.7551 79.8009 47.7551C80.7696 47.7551 81.2302 47.3167 81.2302 46.3295V45.996C81.2415 45.8071 81.2042 45.6186 81.1219 45.4482C81.0397 45.2779 80.9151 45.1315 80.7601 45.023ZM84.164 46.2855C84.164 46.7419 84.0449 47.0007 83.5959 47.0007C83.147 47.0007 83.03 46.7419 83.03 46.2855V46.0394C83.03 45.5868 83.1476 45.357 83.5959 45.357C84.0443 45.357 84.164 45.5979 84.164 46.0394V46.2855ZM83.5997 43.6519C83.6664 43.645 83.7338 43.6527 83.7973 43.6746C83.8607 43.6964 83.9186 43.7319 83.9669 43.7785C84.0151 43.8251 84.0526 43.8817 84.0767 43.9444C84.1008 44.007 84.1109 44.0741 84.1063 44.1411C84.1158 44.2737 84.0728 44.4047 83.9865 44.5058C83.9002 44.6069 83.7776 44.6701 83.6452 44.6815H83.5997C83.5305 44.6812 83.4623 44.6667 83.399 44.6389C83.3357 44.6111 83.2788 44.5706 83.2318 44.52C83.1848 44.4693 83.1488 44.4095 83.1258 44.3444C83.1028 44.2792 83.0935 44.21 83.0983 44.1411C83.0935 44.0745 83.1032 44.0077 83.1268 43.9453C83.1505 43.883 83.1875 43.8265 83.2352 43.7799C83.283 43.7333 83.3403 43.6977 83.4033 43.6756C83.4662 43.6535 83.5333 43.6454 83.5997 43.6519ZM84.5562 45.023C84.6848 44.9109 84.7879 44.7726 84.8586 44.6174C84.9294 44.4622 84.9661 44.2936 84.9665 44.1231C84.9665 43.4476 84.5673 42.8933 83.5997 42.8933C82.632 42.8933 82.2355 43.4476 82.2355 44.1231C82.2314 44.2964 82.2683 44.4683 82.3433 44.6247C82.4183 44.7811 82.5292 44.9176 82.6669 45.023C82.4977 45.1185 82.3603 45.2617 82.2719 45.4347C82.1834 45.6077 82.1477 45.8029 82.1693 45.996V46.3295C82.1693 47.3167 82.6283 47.7551 83.5959 47.7551C84.5636 47.7551 85.0252 47.3167 85.0252 46.3295V45.996C85.0365 45.8075 84.9995 45.6193 84.9178 45.449C84.8361 45.2788 84.7124 45.1322 84.5583 45.023M88.0151 45.0908C88.0151 45.5243 87.8468 45.6376 87.4667 45.6376C87.0866 45.6376 86.9183 45.5243 86.9183 45.0908V44.284C86.9183 43.8012 87.0866 43.6768 87.4667 43.6768C87.8468 43.6768 88.0151 43.8012 88.0151 44.284V45.0908ZM87.4667 42.8674C86.4503 42.8674 86.0501 43.2681 86.0501 44.285V45.0918C86.0253 45.2657 86.0405 45.443 86.0944 45.6102C86.1483 45.7773 86.2396 45.93 86.3613 46.0567C86.4831 46.1833 86.6321 46.2805 86.797 46.341C86.9619 46.4015 87.1384 46.4236 87.3132 46.4057C87.3936 46.4057 87.5308 46.4057 87.6165 46.3999C87.3194 46.9033 86.8956 47.3202 86.3873 47.609L86.4138 47.6963H87.4492C87.8822 47.4115 88.2391 47.0253 88.4892 46.5714C88.7393 46.1175 88.8749 45.6094 88.8843 45.0913V44.2845C88.8843 43.2676 88.491 42.8669 87.4662 42.8669M73.4225 44.4984C73.3076 44.4994 73.1955 44.5345 73.1005 44.5991C73.0054 44.6637 72.9316 44.755 72.8883 44.8615C72.8451 44.968 72.8343 45.0849 72.8573 45.1975C72.8804 45.3101 72.9363 45.4134 73.0179 45.4943C73.0996 45.5752 73.2033 45.6301 73.3161 45.6522C73.429 45.6742 73.5458 45.6624 73.6519 45.6181C73.7579 45.5739 73.8486 45.4993 73.9123 45.4036C73.9761 45.308 74.0101 45.1956 74.0101 45.0807C74.0098 45.0039 73.9943 44.9279 73.9646 44.857C73.9349 44.7862 73.8915 44.7219 73.8369 44.6678C73.7824 44.6138 73.7177 44.571 73.6466 44.5419C73.5755 44.5128 73.4993 44.498 73.4225 44.4984ZM90.7218 44.4984C90.6068 44.4993 90.4947 44.5343 90.3996 44.5988C90.3045 44.6634 90.2306 44.7547 90.1872 44.8611C90.1439 44.9676 90.133 45.0845 90.156 45.1972C90.179 45.3098 90.2349 45.4131 90.3165 45.4941C90.3981 45.5751 90.5019 45.63 90.6147 45.6521C90.7275 45.6742 90.8444 45.6624 90.9505 45.6182C91.0566 45.574 91.1473 45.4994 91.211 45.4037C91.2748 45.308 91.3089 45.1957 91.3089 45.0807C91.3089 45.0038 91.2936 44.9277 91.2641 44.8567C91.2345 44.7858 91.1912 44.7214 91.1366 44.6672C91.082 44.6131 91.0173 44.5703 90.9461 44.5413C90.8749 44.5124 90.7987 44.4978 90.7218 44.4984Z" fill="#BEBEBE"/>
<path d="M82.2156 51.4792C78.154 51.453 74.1911 50.2246 70.8268 47.9491C67.4624 45.6736 64.8471 42.4528 63.3108 38.6929C61.7745 34.933 61.386 30.8024 62.1942 26.8219C63.0024 22.8415 64.9712 19.1895 67.8522 16.3265C70.7333 13.4635 74.3975 11.5178 78.383 10.7346C82.3684 9.95143 86.4965 10.3659 90.2467 11.9258C93.9969 13.4857 97.2012 16.1212 99.4555 19.4998C101.71 22.8784 102.913 26.8489 102.914 30.9106C102.889 36.3803 100.696 41.6171 96.8162 45.4725C92.9361 49.3279 87.6854 51.4872 82.2156 51.4771M82.2156 9.758C78.0378 9.78549 73.9617 11.0495 70.5013 13.3906C67.041 15.7317 64.3513 19.045 62.7716 22.9127C61.1919 26.7804 60.7929 31.0293 61.6248 35.1235C62.4568 39.2178 64.4825 42.9739 67.4464 45.9184C70.4104 48.8628 74.1799 50.8636 78.2795 51.6685C82.3791 52.4734 86.6253 52.0463 90.4825 50.441C94.3397 48.8358 97.6352 46.1243 99.9533 42.6486C102.271 39.1728 103.509 35.0884 103.508 30.9106C103.482 25.2847 101.225 19.8989 97.2338 15.9342C93.2423 11.9695 87.8415 9.74937 82.2156 9.76064" fill="#BEBEBE"/>
<path d="M112.228 44.1657L112.093 44.4627C109.453 50.1645 105.237 54.992 99.9429 58.3752C94.6484 61.7585 88.4963 63.5562 82.2131 63.5562C75.9299 63.5562 69.7779 61.7585 64.4834 58.3752C59.1888 54.992 54.9728 50.1645 52.3331 44.4627L52.1955 44.1668L61.2758 40.314L61.4055 40.5903C63.2739 44.5266 66.2206 47.8521 69.9034 50.1806C73.5863 52.5092 77.8541 53.7452 82.2113 53.7452C86.5685 53.7452 90.8363 52.5092 94.5191 50.1806C98.2019 47.8521 101.149 44.5266 103.017 40.5903L103.148 40.314L103.31 40.3828L112.228 44.1657ZM52.0563 38.7132L60.0069 36.7868L60.0916 37.0812C60.2872 37.7816 60.5187 38.4716 60.785 39.1483L61.0021 39.7269L59.7263 38.6364L59.5225 40.2542L58.0964 39.1293L57.8709 40.972L56.3357 39.547L56.0027 41.6459L54.0742 40.016L53.9281 42.6099L52.0563 38.7132ZM61.1466 9.98801C66.7514 4.43567 74.3217 1.32077 82.211 1.32077C90.1004 1.32077 97.6707 4.43567 103.275 9.98801C106.791 13.4727 109.373 17.7867 110.783 22.5321C112.192 27.2776 112.383 32.3015 111.339 37.1404L111.272 37.4581L110.954 37.3818L104.643 35.852L104.708 35.5539C105.4 32.2127 105.338 28.7595 104.528 25.4451C103.718 22.1307 102.18 19.0383 100.026 16.3925C97.8711 13.7468 95.1545 11.6141 92.0729 10.1494C88.9913 8.68468 85.6222 7.92473 82.2102 7.92473C78.7983 7.92473 75.4291 8.68468 72.3476 10.1494C69.266 11.6141 66.5493 13.7468 64.3949 16.3925C62.2405 19.0383 60.7024 22.1307 59.8924 25.4451C59.0824 28.7595 59.0208 32.2127 59.712 35.5539L59.7724 35.852L53.1552 37.4597L53.0864 37.142C52.0402 32.3032 52.2303 27.2788 53.6391 22.5328C55.0478 17.7868 57.6298 13.4724 61.1466 9.98801ZM103.073 38.881C102.879 39.3835 102.666 39.878 102.432 40.3632C100.609 44.1806 97.7433 47.404 94.1652 49.6606C90.5871 51.9172 86.4434 53.1147 82.2131 53.1147C77.9829 53.1147 73.8391 51.9172 70.2611 49.6606C66.683 47.404 63.8168 44.1806 61.9941 40.3632C61.763 39.8773 61.5501 39.3828 61.3557 38.881C60.3685 36.3388 59.864 33.6348 59.8682 30.9076C59.9179 25.0139 62.294 19.3784 66.4792 15.2283C70.6644 11.0783 76.3197 8.74974 82.2137 8.74974C88.1076 8.74974 93.7629 11.0783 97.9481 15.2283C102.133 19.3784 104.509 25.0139 104.559 30.9076C104.561 33.6346 104.058 36.3382 103.073 38.881ZM112.371 38.7132L110.521 42.5532L110.379 40.0123L108.448 41.6406L108.116 39.5417L106.588 40.9604L106.581 40.9577L106.356 39.124L104.931 40.2489L104.727 38.6317L103.496 39.6804H103.491L103.694 39.151C103.947 38.421 104.136 37.7746 104.329 37.0817L104.412 36.7874L112.371 38.7132ZM113.711 38.0499L112.102 37.6603L112.168 37.3585C112.625 35.239 112.856 33.077 112.856 30.9087C112.866 26.9048 112.076 22.9392 110.535 19.2439C108.993 15.5486 106.731 12.1977 103.879 9.38717C98.1131 3.677 90.3264 0.473694 82.2115 0.473694C74.0967 0.473694 66.31 3.677 60.5442 9.38717C57.6928 12.1983 55.4303 15.5496 53.8891 19.2453C52.348 22.9409 51.5589 26.9067 51.5682 30.9108C51.5693 33.0792 51.801 35.2413 52.2595 37.3607L52.3241 37.6624L50.7148 38.052L52.9694 42.7968L50.8906 43.6782C50.9689 43.855 51.0949 44.1493 51.3829 44.8025L51.402 44.8465C54.1202 50.7298 58.4662 55.7118 63.9261 59.2034C69.386 62.695 75.7316 64.5503 82.2125 64.5499C88.6934 64.5495 95.0387 62.6935 100.498 59.2012C105.958 55.7089 110.303 50.7264 113.021 44.8428L113.114 44.6458C113.237 44.361 113.415 43.9487 113.528 43.6787L111.452 42.7973L113.711 38.0499Z" fill="#BEBEBE"/>
<path d="M57.51 27.8799C57.4561 28.3101 57.2688 28.7125 56.9743 29.0307C56.6052 29.3958 56.3298 29.8448 56.1718 30.3393C56.1076 30.5341 56.0683 30.7361 56.0548 30.9407C56.0335 31.1707 56.0461 31.4026 56.0924 31.6289C56.3183 31.2626 56.6148 30.945 56.9648 30.6946C57.2432 30.5033 57.4761 30.253 57.6466 29.9614C57.6878 29.871 57.7162 29.7753 57.7308 29.6771C57.778 29.4431 57.8123 29.2066 57.8335 28.9688C57.9895 27.0078 58.3847 25.0733 59.0103 23.2082L58.6133 23.0362C58.0842 24.6099 57.7148 26.2328 57.5106 27.8804M54.7361 33.4197C55.1376 33.6098 55.5021 33.8695 55.8129 34.1868C55.8286 33.9443 55.8124 33.7009 55.7647 33.4626C55.7322 33.2582 55.6776 33.058 55.6017 32.8655C55.3829 32.3705 54.9981 31.9674 54.5138 31.7258C54.0822 31.4855 53.7071 31.1555 53.4138 30.7581C53.3805 31.3718 53.474 31.9857 53.6885 32.5616C53.9401 32.9495 54.3063 33.2497 54.7361 33.4197ZM55.8716 29.5601C56.3534 28.93 56.6635 28.1856 56.7716 27.3998C56.8683 26.752 56.8286 26.0912 56.6551 25.4596L56.6456 25.4284L56.6535 25.3934C56.8657 24.4278 57.1324 23.475 57.4523 22.5396L57.0903 22.3808C56.7627 23.3351 56.4894 24.3071 56.2719 25.2923L56.2586 25.3331L56.2427 25.3506C55.798 25.8817 55.5121 26.5276 55.418 27.2139C55.2931 28.024 55.4537 28.8522 55.8722 29.5569" fill="#BEBEBE"/>
<path d="M54.8139 30.7973C55.1195 31.0382 55.3872 31.3237 55.6079 31.6443C55.6664 31.2018 55.6376 30.7522 55.5232 30.3208C55.4113 29.8597 55.22 29.4215 54.9579 29.026L54.9494 29.0122C54.9086 28.9445 54.8663 28.8788 54.8239 28.8084C54.5934 28.4165 54.498 27.9597 54.5524 27.5083C54.7909 25.5838 55.2311 23.6897 55.8657 21.8573L55.4692 21.6863C54.6894 23.916 54.1972 26.2361 54.0045 28.5903C54.0045 28.6152 54.0045 28.6533 53.9997 28.6999V28.7306C53.9567 29.1007 53.9667 29.475 54.0294 29.8423C54.1998 30.2255 54.4716 30.5549 54.8155 30.7951M57.6111 34.1598C57.168 34.4466 56.8396 34.8797 56.6831 35.3837L58.3575 34.9798C58.3931 34.9193 58.419 34.8535 58.4342 34.785C58.5175 34.2957 58.5226 33.7963 58.4496 33.3054C58.2161 33.6318 57.9332 33.9199 57.6111 34.1593M57.3051 33.0661C57.628 32.8742 57.8943 32.6003 58.0769 32.2721C58.2173 31.791 58.2818 31.2909 58.268 30.7898C57.9974 31.0891 57.682 31.3447 57.3332 31.5474C57.0709 31.672 56.837 31.849 56.6458 32.0675C56.4546 32.2861 56.3102 32.5414 56.2215 32.8179C56.1301 33.251 56.1483 33.7 56.2744 34.1243C56.5318 33.6959 56.8843 33.3324 57.3046 33.0619M54.8308 34.6664C54.3761 34.481 53.9655 34.2018 53.626 33.847C53.668 34.4537 53.8335 35.0455 54.1125 35.5859C54.1984 35.723 54.3149 35.8382 54.4529 35.9226L55.988 35.5521C55.7032 35.1436 55.2987 34.8334 54.8303 34.6643M108.336 30.3394C108.178 29.8447 107.903 29.3956 107.534 29.0308C107.237 28.7138 107.049 28.3107 106.997 27.8799C106.792 26.2324 106.423 24.6096 105.895 23.0356L105.498 23.2077C106.123 25.0732 106.518 27.0075 106.676 28.9683C106.695 29.2063 106.728 29.4428 106.777 29.6766C106.792 29.7744 106.82 29.8698 106.86 29.9603C107.032 30.2528 107.267 30.5034 107.548 30.694C107.896 30.945 108.191 31.2626 108.416 31.6284C108.464 31.4024 108.478 31.1703 108.455 30.9402C108.441 30.7356 108.401 30.5336 108.337 30.3388M108.905 32.866C108.833 33.0594 108.78 33.2594 108.747 33.4632C108.698 33.7013 108.68 33.9447 108.694 34.1873C109.005 33.8698 109.37 33.6101 109.773 33.4203C110.202 33.2519 110.568 32.9519 110.817 32.5632C111.034 31.988 111.128 31.3736 111.093 30.7597C110.801 31.1578 110.426 31.4877 109.993 31.7268C109.508 31.9674 109.123 32.3708 108.904 32.8666M107.056 22.5391C107.376 23.4745 107.643 24.4273 107.856 25.3929L107.864 25.4289L107.856 25.4602C107.68 26.0912 107.639 26.7525 107.738 27.4003C107.846 28.1861 108.156 28.9305 108.638 29.5601C109.059 28.8562 109.219 28.0271 109.091 27.2171C108.998 26.5307 108.712 25.8846 108.267 25.3538L108.251 25.3368L108.241 25.2955C108.023 24.3102 107.749 23.3381 107.421 22.384L107.056 22.5391Z" fill="#BEBEBE"/>
<path d="M109.684 28.8105C109.643 28.8814 109.601 28.9466 109.559 29.0148L109.554 29.0281C109.287 29.4213 109.096 29.8603 108.988 30.3229C108.931 30.5231 108.895 30.729 108.883 30.937C108.861 31.173 108.867 31.4107 108.901 31.6453C109.122 31.3247 109.389 31.0392 109.695 30.7983C110.039 30.5586 110.31 30.2289 110.478 29.8454C110.542 29.4784 110.553 29.104 110.511 28.7338L110.509 28.703C110.503 28.657 110.502 28.6184 110.5 28.594C110.309 26.2398 109.819 23.9195 109.041 21.6894L108.643 21.8604C109.279 23.6924 109.719 25.5866 109.955 27.5114C110.011 27.9629 109.916 28.4203 109.683 28.8116M106.895 34.1598C106.574 33.9198 106.292 33.6318 106.058 33.3059C105.984 33.7968 105.989 34.2962 106.072 34.7855C106.087 34.8543 106.113 34.9201 106.15 34.9803L107.824 35.3842C107.668 34.8796 107.339 34.4457 106.895 34.1598ZM107.172 31.5511C106.825 31.3467 106.511 31.0913 106.24 30.7935C106.228 31.2943 106.292 31.7941 106.429 32.2758C106.612 32.6031 106.879 32.8759 107.202 33.0661C107.623 33.3367 107.976 33.7002 108.235 34.1286C108.306 33.9012 108.344 33.6645 108.346 33.4261C108.353 33.223 108.333 33.0199 108.286 32.8221C108.197 32.5451 108.052 32.2893 107.861 32.0707C107.669 31.8521 107.434 31.6754 107.171 31.5516M108.521 35.5542L110.057 35.9221C110.194 35.8382 110.31 35.723 110.395 35.5859C110.676 35.046 110.842 34.454 110.882 33.8469C110.544 34.2026 110.133 34.4819 109.679 34.6664C109.211 34.8369 108.807 35.1468 108.521 35.5542ZM58.9518 46.8297L57.7592 47.6238C57.6924 47.6702 57.6215 47.7104 57.5474 47.7439C57.5021 47.7668 57.4514 47.777 57.4008 47.7736C57.3526 47.7643 57.3085 47.7405 57.2743 47.7053C57.2244 47.6519 57.1787 47.5948 57.1377 47.5343L56.9037 47.1818L58.8449 45.889L59.0948 46.2622C59.1906 46.4025 59.225 46.5095 59.2006 46.583C59.1451 46.6879 59.0593 46.7737 58.9545 46.8292M60.5627 44.7472L60.7946 45.0982C60.8365 45.1598 60.8719 45.2257 60.9004 45.2946C60.9219 45.3409 60.9271 45.3931 60.9153 45.4428C60.8972 45.4905 60.8671 45.5328 60.8279 45.5656C60.7722 45.6147 60.7131 45.6598 60.6511 45.7006L60.1922 46.0029C60.1104 46.071 60.0069 46.1074 59.9005 46.1056C59.829 46.0928 59.747 46.0198 59.6564 45.8875L59.4097 45.5169L60.5627 44.7472ZM59.6877 47.4867C59.7602 47.4128 59.8163 47.3244 59.8523 47.2273C59.8802 47.1475 59.8887 47.0622 59.8772 46.9785C59.8626 46.8916 59.8387 46.8066 59.8057 46.7249L59.8322 46.708C59.8743 46.7606 59.925 46.8059 59.982 46.8419C60.0497 46.8855 60.1249 46.916 60.2038 46.9319C60.2981 46.9476 60.3944 46.9458 60.4881 46.9266C60.615 46.8987 60.7347 46.8446 60.8396 46.7678L61.2054 46.5253C61.3823 46.4121 61.5466 46.2802 61.6956 46.132C61.7966 46.0293 61.8602 45.8956 61.8761 45.7525C61.8815 45.5959 61.8465 45.4405 61.7744 45.3014C61.6688 45.0861 61.5475 44.8789 61.4113 44.6815L60.631 43.5127L55.7412 46.7673L56.5231 47.9388C56.6546 48.1375 56.7983 48.3279 56.9535 48.5089C57.0551 48.6302 57.1869 48.7226 57.3357 48.7767C57.4755 48.8177 57.6252 48.8087 57.7592 48.7513C57.9552 48.6718 58.1417 48.5704 58.315 48.4491L59.3467 47.7635C59.471 47.6845 59.5852 47.5908 59.6871 47.4846M61.8401 48.9769L62.9856 47.9282L63.2699 48.2373C63.3215 48.2914 63.3676 48.3505 63.4075 48.4136C63.4344 48.4558 63.447 48.5056 63.4435 48.5555C63.4353 48.6048 63.4135 48.6508 63.3805 48.6883C63.3308 48.7464 63.2778 48.8015 63.2217 48.8535L62.6924 49.3389C62.6232 49.4194 62.527 49.4718 62.4219 49.4861C62.3105 49.4629 62.2117 49.3994 62.1445 49.3077L61.8401 48.9769ZM62.4451 50.8625C62.4979 50.7826 62.5329 50.6923 62.5478 50.5978C62.5605 50.5164 62.5531 50.4332 62.5261 50.3553C62.4976 50.2733 62.4609 50.1944 62.4166 50.1198L62.4372 50.0986C62.4975 50.141 62.5608 50.1789 62.6267 50.2119C62.6991 50.2456 62.7777 50.2637 62.8575 50.2648C62.9498 50.2673 63.0416 50.2503 63.127 50.215C63.2449 50.1645 63.3526 50.0928 63.4446 50.0033L63.8977 49.584C64.0548 49.447 64.1956 49.2925 64.3175 49.1235C64.4016 49.0064 64.4444 48.8647 64.4393 48.7206C64.4236 48.563 64.3656 48.4124 64.2715 48.285C64.1335 48.0898 63.9815 47.905 63.8167 47.7318L62.8639 46.6969L58.54 50.6671L59.2081 51.394L61.3446 49.4353L61.6458 49.7619C61.7623 49.889 61.8115 49.9901 61.7983 50.0668C61.7637 50.1767 61.6951 50.2727 61.6024 50.341L59.7808 52.0149L60.4558 52.7486L62.1799 51.1653C62.2817 51.0764 62.3708 50.974 62.4446 50.8609M66.2492 51.5247L64.0449 54.2965C63.9965 54.3604 63.9434 54.4205 63.8861 54.4765C63.8487 54.5167 63.7996 54.5443 63.7458 54.5554C63.6961 54.5649 63.6447 54.5574 63.5997 54.5342C63.5343 54.5001 63.4731 54.4587 63.4171 54.4108C63.3599 54.3663 63.3068 54.3169 63.2583 54.2631C63.2255 54.2251 63.2059 54.1776 63.2021 54.1276C63.201 54.0733 63.2155 54.0199 63.244 53.9736C63.289 53.9037 63.3376 53.8362 63.3895 53.7714L65.5928 51.0006C65.6421 50.9389 65.6951 50.8802 65.7516 50.8249C65.7877 50.786 65.8351 50.7593 65.8871 50.7487C65.9369 50.7417 65.9876 50.7504 66.0322 50.7735C66.097 50.8068 66.1576 50.8477 66.2127 50.8953C66.3545 51.0065 66.4244 51.0996 66.4297 51.1764C66.4093 51.308 66.3474 51.4297 66.2529 51.5236M67.3953 51.5999C67.4633 51.4698 67.4846 51.3203 67.4556 51.1764C67.4174 51.0225 67.3371 50.8823 67.2238 50.7714C67.0574 50.6009 66.8789 50.4428 66.6896 50.2982C66.505 50.1476 66.3105 50.0097 66.1073 49.8853C65.9753 49.8006 65.8221 49.7549 65.6653 49.7534C65.519 49.7621 65.3793 49.8178 65.2672 49.9122C65.1018 50.053 64.9523 50.2115 64.8215 50.385L62.6177 53.1562C62.4761 53.3248 62.354 53.5088 62.2535 53.7047C62.1846 53.8344 62.1602 53.9832 62.1842 54.1282C62.2217 54.2798 62.3005 54.4181 62.4118 54.5278C62.5785 54.6993 62.7573 54.8586 62.947 55.0043C63.1306 55.1557 63.3252 55.2932 63.5293 55.4156C63.6633 55.5026 63.819 55.5503 63.9787 55.5532C64.1256 55.5454 64.2658 55.4896 64.3779 55.3944C64.5439 55.2519 64.6944 55.0922 64.8268 54.918L67.0327 52.1483C67.1717 51.9791 67.2932 51.7962 67.3953 51.6025M71.6112 53.477L69.0988 57.3652L69.0681 57.3494L70.9129 53.1033L69.8013 52.5051L67.2137 56.3526L67.183 56.3351L69.12 52.1382L68.2476 51.6708L66.0205 57.1344L67.1401 57.7379L69.7642 53.8598L69.7949 53.8772L67.904 58.1477L69.0104 58.74L72.4894 53.9487L71.6112 53.477ZM74.5635 55.8068L73.7398 58.3811L72.9457 58.1254L73.77 55.5532C73.7933 55.4757 73.8223 55.3999 73.8568 55.3266C73.8771 55.2777 73.9132 55.2371 73.9595 55.2112C74.0033 55.1886 74.053 55.1801 74.1019 55.1869C74.1709 55.1951 74.239 55.21 74.3051 55.2314C74.3745 55.2536 74.4418 55.2818 74.5063 55.3155C74.5501 55.3401 74.5857 55.3769 74.609 55.4214C74.6267 55.4708 74.6309 55.5239 74.6212 55.5754C74.6116 55.656 74.5916 55.735 74.5619 55.8105M75.1934 54.7639C74.9851 54.6636 74.7695 54.5788 74.5487 54.5104C74.3297 54.4375 74.106 54.3802 73.879 54.3388C73.7255 54.3055 73.5657 54.3177 73.419 54.3738C73.2841 54.4301 73.1729 54.5315 73.1045 54.6607C72.9996 54.8518 72.9155 55.0536 72.8536 55.2626L71.4121 59.7432L72.3295 60.0375L72.7297 58.793L73.5238 59.0486L73.1241 60.2927L74.0664 60.5955L75.5063 56.1101C75.5746 55.9086 75.6206 55.7002 75.6434 55.4886C75.6582 55.341 75.6252 55.1925 75.5492 55.0651C75.4601 54.9339 75.3369 54.8294 75.1929 54.7629M78.5729 56.7226L78.4602 57.4319C78.455 57.5376 78.4116 57.6377 78.3379 57.7136C78.2366 57.7647 78.1198 57.7757 78.0107 57.7443L77.5708 57.6765L77.808 56.1413L78.223 56.2054C78.2975 56.2155 78.3708 56.2332 78.4416 56.2583C78.49 56.2739 78.5315 56.3057 78.5592 56.3483C78.5831 56.3934 78.5947 56.444 78.593 56.495C78.5904 56.5701 78.5835 56.6451 78.5724 56.7194M79.4395 55.8571C79.3274 55.7445 79.1875 55.6636 79.034 55.6226C78.8055 55.5567 78.5727 55.5062 78.3374 55.4717L76.9451 55.2568L76.0452 61.0539L77.0208 61.2069L77.466 58.3446L77.907 58.4123C78.0764 58.4395 78.1793 58.4866 78.2156 58.5537C78.2546 58.6619 78.2607 58.7792 78.2331 58.8909L77.854 61.3355L78.8387 61.488L79.2002 59.1757C79.2221 59.0428 79.2283 58.9077 79.2188 58.7734C79.2084 58.6786 79.1798 58.5868 79.1346 58.5029C79.0937 58.4305 79.0355 58.3694 78.9652 58.325C78.8911 58.2793 78.8127 58.2408 78.7312 58.2101L78.7344 58.1799C78.8076 58.1753 78.8803 58.1652 78.952 58.1498C79.0306 58.133 79.1045 58.099 79.1685 58.0502C79.2428 57.9957 79.3044 57.9256 79.349 57.8449C79.4065 57.7306 79.4444 57.6075 79.4612 57.4806L79.5549 56.8724C79.5931 56.6676 79.6065 56.4589 79.5946 56.2509C79.5884 56.1053 79.5324 55.9662 79.4358 55.8571M85.1503 57.2011L84.2012 57.2689L84.1382 56.4002L85.1228 56.334L85.0699 55.631L83.1012 55.7671L83.5125 61.6203L84.4976 61.5504L84.2451 57.9735L85.198 57.9057L85.1503 57.2011ZM88.7019 60.1545C88.6765 60.1979 88.6376 60.2319 88.5913 60.2514C88.5233 60.2804 88.4522 60.3017 88.3795 60.3149C88.3076 60.3324 88.2338 60.3413 88.1598 60.3414C88.1096 60.343 88.0603 60.3275 88.0201 60.2974C87.9776 60.2656 87.9466 60.2208 87.9317 60.1698C87.9058 60.0902 87.884 60.0093 87.8665 59.9274L87.1429 56.4621C87.126 56.3858 87.1147 56.3083 87.109 56.2303C87.1029 56.1774 87.1132 56.124 87.1387 56.0773C87.1635 56.034 87.2023 56.0006 87.2488 55.9825C87.3164 55.9523 87.3875 55.9306 87.4605 55.9179C87.576 55.8765 87.7031 55.8813 87.8152 55.9312C87.9048 56.0299 87.959 56.1556 87.9692 56.2885L88.6971 59.7564C88.7141 59.8543 88.7257 59.9332 88.731 59.9936C88.7364 60.048 88.7269 60.1029 88.7035 60.1524M88.9465 56.0847C88.9058 55.8703 88.8422 55.6609 88.7569 55.46C88.7013 55.3246 88.6007 55.2125 88.4721 55.1424C88.328 55.0763 88.169 55.0491 88.0111 55.0635C87.7726 55.0802 87.5357 55.1156 87.3028 55.1694C87.0693 55.2142 86.8394 55.2754 86.6146 55.3526C86.4664 55.401 86.3343 55.4888 86.2324 55.6067C86.1459 55.7255 86.0997 55.8689 86.1006 56.0159C86.1025 56.2335 86.1286 56.4503 86.1784 56.6622L86.9036 60.1301C86.9431 60.3454 87.0063 60.5556 87.0921 60.7569C87.145 60.8945 87.2447 61.009 87.3737 61.0804C87.5151 61.1501 87.6733 61.1781 87.83 61.1614C88.0688 61.1439 88.3059 61.1085 88.5394 61.0555C88.7733 61.0119 89.0034 60.9498 89.2276 60.8697C89.3788 60.823 89.514 60.7352 89.6182 60.6161C89.7084 60.4982 89.7559 60.3532 89.7532 60.2048C89.7518 59.9849 89.7252 59.7659 89.6738 59.5521L88.9465 56.0847ZM92.165 56.0963C92.1375 56.1652 92.0496 56.2292 91.9003 56.2853L91.4821 56.4441L90.9311 54.9926L91.326 54.8454C91.3943 54.8178 91.4653 54.7968 91.5377 54.783C91.5872 54.7726 91.6387 54.7799 91.6833 54.8036C91.7268 54.8282 91.7622 54.865 91.7849 54.9095C91.8216 54.9763 91.8531 55.0459 91.8792 55.1175L92.1343 55.7893C92.1826 55.8836 92.1937 55.9926 92.1656 56.0948M93.4567 56.5839C93.4011 56.5052 93.3301 56.4386 93.2481 56.388C93.177 56.3463 93.097 56.3222 93.0147 56.3176C92.9279 56.3139 92.8409 56.3194 92.7553 56.334L92.7447 56.306C92.806 56.2645 92.8647 56.2192 92.9204 56.1705C92.979 56.1177 93.0265 56.0538 93.0602 55.9825C93.0951 55.8959 93.1131 55.8033 93.1131 55.7099C93.1082 55.5818 93.0809 55.4555 93.0327 55.3367L92.8156 54.7634C92.7455 54.5669 92.6535 54.3788 92.5414 54.2028C92.4642 54.0805 92.3486 53.9874 92.2127 53.9381C92.0595 53.8935 91.897 53.8911 91.7426 53.9312C91.5106 53.9865 91.283 54.0583 91.0613 54.1461L89.7426 54.6443L91.8246 60.1307L92.75 59.7813L91.7241 57.0725L92.1407 56.9137C92.2995 56.8523 92.4138 56.8417 92.4795 56.8856C92.5674 56.9592 92.6309 57.0578 92.6616 57.1683L93.5409 59.4806L94.472 59.128L93.6393 56.9407C93.5954 56.8131 93.5349 56.6919 93.4593 56.5802M95.6652 52.7068L95.3206 52.0805L93.1539 53.279L93.4964 53.9026L94.1544 53.5411L96.6472 58.0518L97.5143 57.5754L95.0167 53.0641L95.6652 52.7068ZM101.132 53.6882L98.302 49.9324L97.5318 50.5104L100.363 54.269C100.414 54.3341 100.459 54.4038 100.498 54.477C100.525 54.5219 100.538 54.5735 100.536 54.6258C100.531 54.6743 100.51 54.7197 100.476 54.7549C100.377 54.8588 100.261 54.9457 100.134 55.0122C100.09 55.0333 100.041 55.0419 99.9918 55.0371C99.9396 55.0277 99.8919 55.0017 99.8557 54.963C99.7946 54.9057 99.7391 54.8428 99.69 54.775L96.8589 51.0192L96.0675 51.6131L98.9007 55.3663C99.029 55.5452 99.1767 55.7092 99.3412 55.8555C99.4526 55.9527 99.592 56.0121 99.7392 56.0254C99.8947 56.027 100.048 55.9858 100.181 55.9063C100.385 55.7891 100.581 55.6593 100.768 55.5177C100.954 55.3811 101.129 55.2315 101.294 55.0699C101.409 54.9641 101.492 54.8279 101.533 54.6771C101.562 54.5322 101.544 54.3819 101.48 54.2483C101.388 54.0491 101.271 53.8616 101.134 53.6898M100.601 47.6884L103.318 50.3003L103.292 50.3225L99.8965 48.4168L99.1395 49.204L103.369 53.2732L103.959 52.6591L101.322 50.1213L101.342 50.0954L104.695 51.8984L105.429 51.1388L101.198 47.0679L100.601 47.6884ZM103.138 45.6699C103.168 45.6055 103.203 45.544 103.244 45.4862C103.285 45.4272 103.331 45.3721 103.382 45.3216C103.418 45.2866 103.464 45.2628 103.513 45.2533C103.565 45.25 103.617 45.261 103.664 45.285C103.735 45.3208 103.804 45.3623 103.868 45.4089L106.092 46.9536L105.614 47.6386L103.39 46.0934C103.325 46.0477 103.262 45.9984 103.201 45.9457C103.161 45.9124 103.132 45.8666 103.121 45.8155C103.112 45.7666 103.118 45.7163 103.138 45.6709M102.621 45.0442C102.486 45.2316 102.364 45.4285 102.257 45.6334C102.183 45.7706 102.147 45.9254 102.154 46.0812C102.172 46.2259 102.238 46.3607 102.34 46.465C102.492 46.6209 102.66 46.7605 102.842 46.8816L106.712 49.5703L107.263 48.7831L106.189 48.0356L106.665 47.3533L107.739 48.0992L108.302 47.2887L104.437 44.6011C104.264 44.475 104.077 44.3685 103.879 44.2835C103.742 44.2262 103.59 44.2154 103.445 44.2528C103.293 44.2967 103.157 44.3832 103.053 44.5021C102.895 44.6702 102.751 44.8512 102.622 45.0431M60.8586 19.5338L58.0985 17.5222L58.1107 17.4984L61.1969 18.9425L61.6924 18.0881L58.2912 15.4196L57.9016 16.0977L60.6707 18.023L60.658 18.0474L57.5908 16.6361L57.0932 17.4979L59.8311 19.4835L59.8184 19.5058L56.7899 18.0267L56.4013 18.6995L60.3584 20.402L60.8586 19.5338ZM59.9005 14.1655C59.9276 14.1168 59.9584 14.0703 59.9926 14.0263C60.0274 13.9817 60.0658 13.9401 60.1075 13.9019C60.1355 13.8745 60.1711 13.8561 60.2096 13.8489C60.2478 13.8475 60.2857 13.8565 60.3192 13.8749C60.3711 13.9037 60.4205 13.9368 60.4669 13.9739L62.019 15.1856L61.6146 15.7001L60.064 14.4879C60.0167 14.4533 59.9717 14.4154 59.9296 14.3746C59.9016 14.3474 59.883 14.312 59.8766 14.2735C59.8751 14.2352 59.8833 14.1971 59.9005 14.1629M59.5956 15.0861L62.3022 17.1998L62.7681 16.6064L62.0158 16.0172L62.4219 15.4995L63.1714 16.0861L63.6521 15.4741L60.9465 13.3619C60.8253 13.2648 60.6931 13.1821 60.5527 13.1158C60.4518 13.0687 60.3378 13.0576 60.2297 13.0845C60.1112 13.1176 60.0035 13.1814 59.9174 13.2693C59.7878 13.3971 59.6676 13.5341 59.5574 13.679C59.4436 13.8205 59.3398 13.9698 59.2467 14.1258C59.1817 14.2282 59.1441 14.3456 59.1376 14.4667C59.1397 14.5762 59.1797 14.6816 59.2509 14.7647C59.3524 14.8863 59.4681 14.9953 59.5956 15.0892M62.8406 12.5372L62.0386 11.7399L62.2705 11.5028C62.3117 11.4611 62.3561 11.4227 62.4033 11.3879C62.4356 11.3644 62.4747 11.3523 62.5145 11.3535C62.5507 11.3572 62.5853 11.3705 62.6145 11.3921C62.659 11.4251 62.7004 11.462 62.7384 11.5022L63.1116 11.8728C63.1421 11.8965 63.1675 11.926 63.1864 11.9597C63.2053 11.9933 63.2173 12.0303 63.2217 12.0687C63.2053 12.1557 63.1577 12.2339 63.0878 12.2884L62.8406 12.5372ZM64.6886 14.3688L63.19 12.8839L63.4377 12.6346C63.5351 12.5377 63.6108 12.4927 63.6675 12.5001C63.7501 12.5187 63.8239 12.565 63.8766 12.6314L65.1571 13.9019L65.7098 13.3471L64.5012 12.1422C64.4315 12.0726 64.353 12.0123 64.2678 11.9628C64.2063 11.9263 64.1373 11.9044 64.0661 11.8987C64.0026 11.8944 63.939 11.9055 63.8808 11.931C63.8199 11.9603 63.7608 11.9934 63.704 12.03L63.687 12.0152C63.7192 11.9674 63.7475 11.9171 63.7718 11.8649C63.7983 11.8102 63.8127 11.7504 63.8141 11.6896C63.8157 11.62 63.8023 11.5509 63.7749 11.4869C63.7361 11.4021 63.6802 11.3263 63.6108 11.264L63.2932 10.9464C63.1875 10.8375 63.0699 10.7408 62.9428 10.6579C62.8502 10.602 62.7414 10.5792 62.6341 10.5933C62.5119 10.6156 62.3975 10.6688 62.3017 10.7479C62.1552 10.8648 62.016 10.9907 61.8851 11.1248L61.1037 11.9109L64.1365 14.923L64.6886 14.3688ZM64.5817 9.39958L65.7754 12.5726L66.1158 12.9903L67.5726 11.8109L67.2354 11.3948L66.408 12.0644L65.1306 8.82998L64.8633 8.5023L63.5023 9.60445L63.831 10.0078L64.5817 9.39958ZM68.4678 11.1867L69.12 10.7606L68.2873 9.49963L67.4345 6.7522L66.7992 7.16829L67.5223 9.00414L67.5012 9.01949L66.1174 7.61825L65.4731 8.04175L67.6383 9.9263L68.4678 11.1867ZM70.7705 9.78496L69.4408 7.05024L69.4667 7.03912L71.2412 9.55786L71.8695 9.254L70.9913 6.32341L71.0156 6.31018L72.3391 9.02479L72.9129 8.74846L71.0421 4.90364L70.0681 5.37637L70.9532 8.13968L70.9283 8.15292L69.3063 5.74746L68.3259 6.22389L70.1978 10.0682L70.7705 9.78496ZM74.087 8.34455L74.8282 8.09945L74.3486 6.67015L74.231 3.7962L73.5127 4.03495L73.7387 5.99362L73.7123 6.00367L72.7345 4.29116L72.0024 4.53626L73.6085 6.91419L74.087 8.34455ZM78.4041 4.20329C78.4114 4.30725 78.4304 4.41006 78.4607 4.50979C78.4879 4.59619 78.5398 4.67274 78.61 4.73001C78.7056 4.80593 78.8129 4.86599 78.9276 4.90788C79.0688 4.96364 79.2602 5.02857 79.502 5.10269C79.6047 5.1371 79.6878 5.16515 79.7476 5.19109C79.7999 5.20908 79.8478 5.23815 79.8879 5.27632C79.9217 5.30854 79.9455 5.34993 79.9562 5.39543C79.9685 5.4536 79.9771 5.51247 79.9821 5.57171L80.0451 6.21278C80.0685 6.31043 80.0579 6.41316 80.0149 6.50393C79.9399 6.56595 79.8449 6.59851 79.7476 6.59551C79.6904 6.60083 79.6328 6.60083 79.5756 6.59551C79.5381 6.59377 79.5022 6.57983 79.4734 6.55581C79.4467 6.52744 79.4284 6.49227 79.4204 6.45417C79.4066 6.3945 79.3979 6.33375 79.3945 6.27259L79.3125 5.42878L78.5539 5.50395L78.638 6.34723C78.65 6.50712 78.6813 6.66497 78.7312 6.81732C78.7653 6.92202 78.8337 7.01213 78.9255 7.073C79.0297 7.13253 79.1474 7.16442 79.2675 7.16564C79.4464 7.16923 79.6253 7.16127 79.8032 7.14182C79.9918 7.12673 80.1793 7.09932 80.3643 7.05977C80.4851 7.03561 80.5977 6.98094 80.6915 6.90096C80.7698 6.82382 80.8188 6.72181 80.8302 6.61245C80.8472 6.4541 80.8472 6.29437 80.8302 6.13602L80.7624 5.45207C80.7542 5.33725 80.7343 5.22356 80.7031 5.11274C80.6747 5.02548 80.6225 4.94791 80.5522 4.88882C80.4552 4.8117 80.3459 4.75156 80.2288 4.71095C80.088 4.65802 79.8937 4.59079 79.6513 4.51509C79.5694 4.49298 79.4888 4.46647 79.4099 4.43568C79.3608 4.41871 79.3147 4.39406 79.2733 4.36263C79.2425 4.33935 79.2196 4.3072 79.2076 4.27052C79.1929 4.22769 79.1833 4.18327 79.1791 4.13817L79.1404 3.71468C79.134 3.6542 79.1311 3.59339 79.1319 3.53258C79.1323 3.49303 79.144 3.45442 79.1658 3.42141C79.1895 3.39311 79.2219 3.37339 79.2579 3.3653C79.3165 3.34955 79.3764 3.33892 79.4369 3.33353C79.4956 3.32697 79.5548 3.3259 79.6137 3.33036C79.6518 3.33285 79.6885 3.34606 79.7195 3.36847C79.7474 3.39535 79.7659 3.4304 79.7725 3.46852C79.7857 3.52943 79.7949 3.59115 79.8 3.65327L79.8529 4.17947L80.6099 4.108L80.557 3.57863C80.547 3.41894 80.5175 3.26107 80.4691 3.10855C80.4366 3.00383 80.3701 2.91293 80.2801 2.85022C80.177 2.78783 80.0587 2.75487 79.9382 2.75493C79.7536 2.75126 79.569 2.75975 79.3855 2.78034C79.198 2.79481 79.0118 2.82223 78.8281 2.86239C78.709 2.88642 78.5982 2.94117 78.5068 3.0212C78.4284 3.09927 78.3793 3.20187 78.3675 3.31183C78.3481 3.47004 78.3481 3.63005 78.3675 3.78826L78.4041 4.20329ZM82.449 3.24513L82.783 3.25042C82.8425 3.25065 82.9019 3.25632 82.9603 3.26736C82.9978 3.27541 83.0323 3.29374 83.0599 3.3203C83.0835 3.34925 83.0979 3.38467 83.1012 3.42194C83.107 3.47714 83.109 3.53268 83.107 3.58816L83.0895 4.52356C83.0899 4.58289 83.0844 4.64212 83.0731 4.70037C83.0664 4.73932 83.0496 4.77584 83.0244 4.80624C82.996 4.83259 82.9605 4.84991 82.9222 4.856C82.8655 4.86479 82.8081 4.86816 82.7507 4.86606L82.4193 4.85971L82.449 3.24513ZM82.4082 5.35731L82.7428 5.36525C82.9284 5.37115 83.1142 5.36549 83.2991 5.34831C83.4213 5.34051 83.5394 5.3015 83.6422 5.23503C83.7288 5.17043 83.7914 5.07877 83.82 4.97458C83.8578 4.82512 83.8756 4.67133 83.873 4.5172L83.8915 3.60245C83.8962 3.44886 83.8846 3.2952 83.8571 3.14402C83.8333 3.03975 83.7751 2.94652 83.6919 2.87933C83.5909 2.80909 83.4739 2.76523 83.3515 2.75176C83.1658 2.72559 82.9785 2.7118 82.7909 2.71046L81.6793 2.68982L81.5967 6.96025L82.3759 6.97507L82.4082 5.35731ZM86.0476 6.72626L85.3012 6.6368L85.5564 4.54155L86.2774 4.62996L86.334 4.14188L85.6178 4.05242L85.6935 3.43623L86.4346 3.52569L86.4997 3.01538L84.9878 2.8301L84.468 7.07141L85.9857 7.2551L86.0476 6.72626ZM87.0751 7.48803C87.2524 7.55108 87.4334 7.60289 87.6172 7.64313C87.7916 7.68409 87.9684 7.71362 88.1466 7.73154C88.2654 7.74715 88.3862 7.7307 88.4965 7.68389C88.5962 7.63766 88.6759 7.55703 88.7209 7.45679C88.7875 7.31128 88.8369 7.15849 88.8681 7.00154L89.0904 6.03702L88.3599 5.87027L88.1402 6.83267C88.1258 6.89233 88.1081 6.95118 88.0873 7.00895C88.0748 7.04662 88.0499 7.07891 88.0166 7.10048C87.9833 7.12204 87.9436 7.13158 87.9041 7.12753C87.8489 7.12465 87.7942 7.11649 87.7406 7.10318C87.6842 7.0911 87.6292 7.07336 87.5764 7.05024C87.5404 7.03502 87.5095 7.00964 87.4875 6.97718C87.4682 6.94276 87.4608 6.90296 87.4663 6.8639C87.4714 6.80422 87.4815 6.74507 87.4965 6.68709L88.0725 4.17205C88.0839 4.11588 88.0997 4.06066 88.1196 4.00689C88.132 3.96985 88.1557 3.93762 88.1873 3.91478C88.2207 3.894 88.2598 3.88419 88.299 3.88672C88.3567 3.88951 88.414 3.89802 88.47 3.91213C88.5249 3.92177 88.5783 3.93849 88.6288 3.96189C88.6655 3.97444 88.697 3.99884 88.7183 4.03124C88.7399 4.06402 88.7485 4.10362 88.7426 4.14241C88.738 4.20075 88.7279 4.25853 88.7125 4.31498L88.497 5.26044L89.2281 5.42613L89.4446 4.48385C89.4842 4.32914 89.5053 4.17028 89.5076 4.0106C89.5097 3.90224 89.4737 3.79658 89.4059 3.71203C89.3267 3.62144 89.2248 3.55364 89.1106 3.51564C88.9426 3.45587 88.7711 3.40638 88.5971 3.36741C88.4184 3.3256 88.2374 3.29484 88.055 3.2753C87.9325 3.25842 87.8078 3.27432 87.6934 3.32136C87.5927 3.36717 87.5118 3.44756 87.4653 3.54793C87.3965 3.6904 87.3461 3.84108 87.3155 3.9963L86.739 6.51346C86.7005 6.6695 86.6788 6.82922 86.6744 6.98989C86.6724 7.09904 86.7083 7.2055 86.776 7.2911C86.8577 7.38205 86.962 7.4498 87.0783 7.4875M89.3202 7.62355C89.3034 7.73087 89.3244 7.84068 89.3795 7.93429C89.4434 8.03022 89.5321 8.10705 89.6362 8.15662C89.7916 8.23507 89.9524 8.30229 90.1174 8.35778C90.2915 8.42109 90.4696 8.47273 90.6505 8.51236C90.7673 8.54227 90.8901 8.53989 91.0057 8.50548C91.1074 8.46696 91.1932 8.3956 91.2497 8.30273C91.3321 8.16584 91.3982 8.0198 91.4467 7.86759L92.588 4.63843L91.8469 4.37374L90.7082 7.6029C90.6849 7.69938 90.6328 7.78651 90.5589 7.85276C90.4701 7.88126 90.3736 7.87346 90.2905 7.83106C90.1677 7.78659 90.092 7.73789 90.0682 7.68231C90.0484 7.58435 90.062 7.48259 90.1068 7.39327L90.4377 6.45999L89.767 6.22389L89.4361 7.15611C89.3797 7.3057 89.3408 7.46131 89.3202 7.61984M93.9845 6.17148C94.0085 6.11763 94.0365 6.06561 94.0681 6.01585C94.0899 5.98537 94.1195 5.96139 94.1539 5.9465C94.1915 5.93511 94.2316 5.93511 94.2693 5.9465C94.3223 5.96153 94.3737 5.98174 94.4228 6.00685C94.475 6.03085 94.5248 6.05974 94.5715 6.09314C94.6023 6.11517 94.6261 6.14545 94.6404 6.18048C94.6506 6.21809 94.6506 6.25775 94.6404 6.29536C94.6253 6.35157 94.6044 6.40604 94.5779 6.45787L93.715 8.22915L93.1248 7.94328L93.9845 6.17148ZM92.4826 9.25506L92.8987 8.3996L93.489 8.68546L93.0724 9.54145L93.7727 9.88131L95.2735 6.79773C95.3448 6.65897 95.3982 6.51167 95.4323 6.35941C95.4544 6.25245 95.442 6.14122 95.3968 6.04179C95.3359 5.93502 95.2504 5.84429 95.1475 5.7771C94.839 5.58278 94.51 5.423 94.1666 5.30067C94.0539 5.25759 93.9317 5.24606 93.813 5.26732C93.7066 5.29243 93.6116 5.35221 93.543 5.43725C93.4463 5.56438 93.3636 5.70157 93.2963 5.84645L91.7992 8.92791L92.4826 9.25506ZM95.7383 11.0798L96.0247 10.6208L95.3444 10.2016L97.3142 7.02906L96.6557 6.6188L94.4 10.2497L95.7383 11.0798ZM96.7314 11.795L98.3724 9.69285L98.3909 9.71032L97.3851 12.3079L98.04 12.8188L100.671 9.44934L100.137 9.03379L98.4481 11.1963L98.4259 11.1799L99.5074 8.542L98.8287 8.01263L96.1956 11.3821L96.7314 11.795ZM99.599 13.3693C99.6363 13.32 99.6773 13.2736 99.7218 13.2306L101.545 11.4038C101.585 11.363 101.627 11.3253 101.673 11.291C101.703 11.267 101.74 11.2528 101.778 11.2503C101.818 11.2512 101.856 11.2633 101.889 11.2852C101.937 11.3171 101.98 11.3546 102.019 11.3969C102.118 11.4964 102.167 11.5753 102.166 11.6325C102.165 11.6896 102.113 11.769 102.013 11.8723L100.189 13.6991C100.148 13.7417 100.105 13.7808 100.058 13.8161C100.027 13.8431 99.9881 13.8586 99.9473 13.8601C99.9095 13.8605 99.8725 13.8492 99.8414 13.8278C99.7937 13.7938 99.7491 13.7557 99.708 13.7139C99.6659 13.6742 99.6279 13.6302 99.5947 13.5827C99.5727 13.5517 99.5607 13.5148 99.5603 13.4768C99.5622 13.4381 99.5763 13.4011 99.6005 13.3709M98.8663 13.0533C98.8036 13.1438 98.7763 13.2542 98.7896 13.3635C98.8095 13.485 98.8626 13.5986 98.9431 13.6917C99.0585 13.8389 99.1839 13.9779 99.3184 14.1078C99.4502 14.2414 99.5896 14.3673 99.7361 14.4847C99.8323 14.562 99.9465 14.6138 100.068 14.6356C100.177 14.6483 100.288 14.6225 100.38 14.5625C100.514 14.4751 100.637 14.3723 100.747 14.256L102.572 12.4297C102.687 12.3186 102.789 12.1954 102.876 12.0623C102.935 11.9694 102.96 11.8591 102.947 11.75C102.924 11.629 102.871 11.5158 102.793 11.4207C102.555 11.1319 102.289 10.8671 101.999 10.6298C101.903 10.553 101.79 10.5013 101.669 10.4795C101.561 10.4672 101.452 10.4938 101.362 10.5547C101.226 10.6407 101.102 10.7431 100.991 10.8596L99.1665 12.6849C99.0515 12.7963 98.9497 12.9206 98.8631 13.0554M102.706 13.6801C102.65 13.7508 102.614 13.8358 102.604 13.9257C102.591 14.0474 102.599 14.1703 102.627 14.2894C102.657 14.4376 102.705 14.6319 102.776 14.877C102.802 14.9828 102.823 15.0675 102.835 15.1311C102.848 15.1858 102.849 15.2426 102.838 15.2978C102.828 15.3425 102.806 15.3835 102.774 15.4169C102.732 15.4595 102.687 15.4985 102.638 15.5334L102.134 15.9352C102.064 16.0058 101.973 16.0521 101.874 16.067C101.815 16.0628 101.742 16.0066 101.652 15.8934C101.616 15.8487 101.585 15.8008 101.557 15.7504C101.539 15.7184 101.531 15.6814 101.534 15.6446C101.543 15.6057 101.563 15.5705 101.593 15.544C101.634 15.4996 101.678 15.4591 101.726 15.4233L102.394 14.8966L101.924 14.3037L101.256 14.8304C101.128 14.9263 101.012 15.0376 100.912 15.1618C100.843 15.2477 100.805 15.3541 100.803 15.464C100.81 15.5838 100.847 15.6997 100.912 15.8007C101.003 15.9546 101.106 16.1011 101.22 16.239C101.336 16.3871 101.461 16.5285 101.593 16.6625C101.679 16.7517 101.787 16.8169 101.905 16.8515C102.013 16.8747 102.124 16.8615 102.223 16.8139C102.366 16.7399 102.501 16.6512 102.626 16.5492L103.163 16.1258C103.254 16.0545 103.338 15.9753 103.415 15.8891C103.475 15.8191 103.512 15.7327 103.521 15.6414C103.535 15.5183 103.527 15.3937 103.497 15.2735C103.454 15.0752 103.404 14.8784 103.348 14.6832C103.323 14.6023 103.302 14.5201 103.284 14.4371C103.273 14.3872 103.269 14.3357 103.272 14.2846C103.276 14.2465 103.29 14.2101 103.312 14.1787C103.34 14.143 103.373 14.1114 103.41 14.085L103.742 13.8241C103.789 13.7854 103.839 13.7501 103.892 13.7182C103.924 13.6962 103.963 13.6857 104.003 13.6885C104.04 13.6919 104.075 13.708 104.101 13.7341C104.146 13.7736 104.187 13.8178 104.223 13.8659C104.26 13.9115 104.293 13.9598 104.322 14.0104C104.34 14.0445 104.348 14.0826 104.346 14.121C104.339 14.1593 104.321 14.1946 104.293 14.2221C104.251 14.2666 104.205 14.3071 104.156 14.3434L103.738 14.6737L104.209 15.2655L104.625 14.9389C104.753 14.8427 104.87 14.7316 104.972 14.6081C105.043 14.5247 105.085 14.4198 105.09 14.31C105.085 14.1899 105.048 14.0732 104.984 13.9717C104.887 13.8142 104.78 13.6635 104.663 13.5207C104.55 13.3712 104.426 13.2297 104.293 13.0972C104.207 13.0092 104.1 12.945 103.982 12.9109C103.874 12.8897 103.763 12.9042 103.664 12.9522C103.521 13.0235 103.386 13.1112 103.263 13.2137L102.94 13.4704C102.856 13.5316 102.779 13.6027 102.712 13.6822M105.984 13.4778L105.522 12.8955L104.552 13.1184L104.877 13.5303L105.984 13.4778ZM105.667 15.5842C105.516 15.6347 105.373 15.7045 105.24 15.7917L103.041 17.1469C102.904 17.2281 102.776 17.3244 102.66 17.4338C102.581 17.51 102.53 17.6104 102.514 17.7192C102.506 17.8411 102.531 17.9631 102.586 18.0722C102.664 18.2425 102.755 18.407 102.857 18.5646C102.949 18.7172 103.051 18.8638 103.162 19.0034C103.236 19.0981 103.332 19.1732 103.442 19.222C103.546 19.2544 103.659 19.2528 103.762 19.2173C103.913 19.1632 104.056 19.0922 104.19 19.0055L105.037 18.4862L104.641 17.851L103.797 18.3698C103.747 18.4032 103.694 18.4322 103.639 18.4566C103.603 18.474 103.562 18.4799 103.523 18.4735C103.486 18.4624 103.454 18.4418 103.428 18.4137C103.39 18.3734 103.357 18.3288 103.33 18.2808C103.298 18.2323 103.271 18.1807 103.249 18.1268C103.232 18.0908 103.228 18.05 103.237 18.0114C103.247 17.9728 103.27 17.9387 103.302 17.915C103.349 17.8767 103.399 17.8413 103.45 17.8091L105.648 16.454C105.696 16.4237 105.746 16.3968 105.797 16.3735C105.833 16.3557 105.874 16.3498 105.913 16.3566C105.951 16.3672 105.984 16.3879 106.011 16.4164C106.05 16.4593 106.084 16.5066 106.113 16.5572C106.145 16.6027 106.17 16.6522 106.189 16.7044C106.202 16.7401 106.206 16.7784 106.201 16.8161C106.191 16.8537 106.169 16.8871 106.138 16.9119C106.093 16.9487 106.045 16.982 105.994 17.0114L105.171 17.5217L105.564 18.1569L106.389 17.6466C106.526 17.567 106.654 17.4715 106.77 17.3618C106.849 17.2866 106.899 17.187 106.914 17.0791C106.921 16.959 106.897 16.8391 106.843 16.7314C106.769 16.569 106.684 16.412 106.588 16.2613C106.494 16.1041 106.39 15.9535 106.275 15.8102C106.2 15.7139 106.102 15.637 105.991 15.5858C105.886 15.5493 105.772 15.5493 105.667 15.5858M103.798 20.1108L107.632 18.2067L107.98 18.9044L104.146 20.8086L103.798 20.1108Z" fill="#BEBEBE"/>
<path d="M63.6728 59.038C58.3213 55.5635 54.0661 50.6412 51.402 44.8435L51.3829 44.7996C51.0949 44.1463 50.9684 43.8525 50.8901 43.6757L52.9689 42.7943L50.7148 38.0501L52.3241 37.66L52.2595 37.3582C51.8012 35.2388 51.5694 33.0767 51.5682 30.9084C51.5591 26.9046 52.3482 22.9391 53.8893 19.2438C55.4303 15.5484 57.6925 12.1973 60.5437 9.38632C66.3094 3.67615 74.0962 0.472839 82.211 0.472839C90.3258 0.472839 98.1126 3.67615 103.878 9.38632C106.73 12.1969 108.993 15.5479 110.534 19.2433C112.076 22.9387 112.865 26.9044 112.856 30.9084C112.856 33.0766 112.625 35.2387 112.168 37.3582L112.102 37.66L113.711 38.0501L111.457 42.7948L113.533 43.6762C113.419 43.9452 113.241 44.3581 113.118 44.6429L113.025 44.8403C110.976 49.2581 108.002 53.1839 104.304 56.3521C100.606 59.5202 96.2697 61.8565 91.5898 63.2029C86.91 64.5493 81.9954 64.8743 77.1791 64.1558C72.3627 63.4373 67.757 61.6922 63.6738 59.0386L63.6728 59.038ZM52.1971 44.1659L52.3342 44.4613C54.9748 50.1622 59.1911 54.9887 64.4856 58.3712C69.7801 61.7537 75.9317 63.551 82.2145 63.551C88.4972 63.551 94.6488 61.7537 99.9433 58.3712C105.238 54.9887 109.454 50.1622 112.095 44.4613L112.229 44.1649L103.312 40.3804L103.151 40.3116L103.019 40.5879C101.15 44.5238 98.2037 47.8489 94.5209 50.1772C90.8381 52.5055 86.5704 53.7413 82.2134 53.7413C77.8564 53.7413 73.5887 52.5055 69.9059 50.1772C66.2232 47.8489 63.2763 44.5238 61.4076 40.5879L61.2779 40.3116L52.1971 44.1659ZM59.8676 30.9084C59.8636 33.6353 60.368 36.3392 61.3552 38.8812C61.5489 39.3831 61.7638 39.8817 61.9936 40.3635C63.8162 44.181 66.6822 47.4046 70.2603 49.6613C73.8384 51.918 77.9823 53.1156 82.2126 53.1156C86.4429 53.1156 90.5868 51.918 94.1649 49.6613C97.743 47.4046 100.609 44.181 102.432 40.3635C102.664 39.8779 102.878 39.3834 103.072 38.8812C104.057 36.3386 104.561 33.6351 104.559 30.9084C104.519 25.0086 102.146 19.3642 97.9601 15.2067C93.7739 11.0492 88.1134 8.7159 82.2134 8.7159C76.3134 8.7159 70.6529 11.0492 66.4667 15.2067C62.2804 19.3642 59.9083 25.0086 59.8676 30.9084ZM52.0579 38.7134L53.9297 42.6127L54.0753 40.0188L56.0054 41.6466L56.3383 39.5477L57.8735 40.9728L58.0996 39.1305L59.5257 40.2555L59.7295 38.6377L61.0053 39.7282L60.7882 39.1491C60.5216 38.4724 60.2899 37.7824 60.0942 37.0819L60.01 36.7876L52.0579 38.7134ZM110.521 42.554L112.371 38.7134L104.417 36.7849L104.334 37.0792C104.143 37.7753 103.932 38.4654 103.699 39.1485L103.496 39.6779H103.5L104.727 38.6298L104.931 40.2475L106.357 39.1226L106.581 40.9558L106.588 40.9585L108.116 39.5398L108.448 41.6387L110.378 40.0109L110.521 42.554ZM61.1434 9.98821C57.6273 13.473 55.0459 17.7875 53.6376 22.5335C52.2293 27.2794 52.0396 32.3036 53.0859 37.1422L53.1547 37.4599L59.7718 35.8516L59.7115 35.5541C59.0202 32.2129 59.0819 28.7597 59.8919 25.4453C60.7019 22.1309 62.24 19.0385 64.3944 16.3927C66.5488 13.747 69.2654 11.6143 72.347 10.1496C75.4286 8.68488 78.7977 7.92493 82.2097 7.92493C85.6217 7.92493 88.9908 8.68488 92.0724 10.1496C95.1539 11.6143 97.8706 13.747 100.025 16.3927C102.179 19.0385 103.717 22.1309 104.528 25.4453C105.338 28.7597 105.399 32.2129 104.708 35.5541L104.643 35.8522L110.953 37.3826L111.271 37.4583L111.339 37.1406C112.634 30.8686 111.874 24.3463 109.171 18.5402C106.468 12.7341 101.967 7.95327 96.334 4.9062C90.701 1.85912 84.2362 0.707973 77.8977 1.62335C71.5591 2.53872 65.6841 5.47191 61.1434 9.98821ZM83.1012 55.7665L85.0694 55.6305L85.1223 56.3335L84.1377 56.3997L84.2007 57.2689L85.1503 57.2011L85.2001 57.9052L84.2472 57.9729L84.4997 61.5499L83.5146 61.6192L83.1012 55.7665ZM77.8525 61.3381L78.231 58.8935C78.2587 58.7819 78.2528 58.6646 78.214 58.5563C78.1775 58.4891 78.0743 58.4425 77.9054 58.415L77.465 58.3477L77.0198 61.21L76.0441 61.0565L76.9441 55.2599L78.3368 55.4748C78.5722 55.5095 78.8049 55.5599 79.0335 55.6257C79.187 55.6667 79.3269 55.7476 79.439 55.8602C79.5355 55.9694 79.5916 56.1085 79.5978 56.2541C79.6095 56.4621 79.5961 56.6707 79.5581 56.8755L79.4644 57.4838C79.4477 57.6106 79.4098 57.7338 79.3522 57.848C79.3075 57.929 79.2457 57.9993 79.1711 58.0539C79.1072 58.1026 79.0332 58.1364 78.9546 58.1529C78.8829 58.1684 78.8102 58.1785 78.737 58.1831L78.7339 58.2133C78.8155 58.2439 78.8941 58.2824 78.9684 58.3281C79.0384 58.3727 79.0964 58.4337 79.1372 58.506C79.1824 58.5899 79.2108 58.6818 79.2209 58.7765C79.2304 58.9109 79.2241 59.0459 79.2023 59.1788L78.8413 61.4917L77.8525 61.3381ZM77.5687 57.6791L78.0086 57.7464C78.1176 57.7778 78.2345 57.7669 78.3358 57.7157C78.4091 57.6396 78.4523 57.5395 78.4575 57.434L78.5703 56.7226C78.5814 56.648 78.5883 56.5729 78.5909 56.4976C78.5925 56.4468 78.5808 56.3964 78.557 56.3515C78.5294 56.3087 78.4879 56.2767 78.4395 56.261C78.3686 56.236 78.2954 56.2182 78.2209 56.208L77.8053 56.144L77.5687 57.6791ZM87.3668 61.0825C87.2379 61.011 87.1383 60.8965 87.0852 60.759C86.9993 60.5577 86.9361 60.3475 86.8967 60.1322L86.171 56.6643C86.1211 56.4524 86.095 56.2357 86.0932 56.018C86.0921 55.8711 86.1381 55.7277 86.2244 55.6088C86.3265 55.4908 86.4588 55.4029 86.6072 55.3547C86.8319 55.2772 87.0619 55.216 87.2953 55.1715C87.5283 55.1177 87.7651 55.0823 88.0036 55.0656C88.1616 55.051 88.3206 55.0782 88.4647 55.1445C88.5934 55.2144 88.694 55.3266 88.7495 55.4621C88.8345 55.6631 88.8981 55.8725 88.939 56.0868L89.6632 59.5526C89.7146 59.7662 89.7412 59.985 89.7426 60.2048C89.7456 60.3535 89.6978 60.4987 89.6071 60.6166C89.5031 60.736 89.3678 60.8238 89.2164 60.8702C88.9924 60.9505 88.7623 61.0127 88.5283 61.056C88.2948 61.1089 88.0577 61.1443 87.8189 61.1619C87.7914 61.1619 87.766 61.1645 87.7384 61.1645C87.6105 61.1682 87.4836 61.1398 87.3695 61.0819L87.3668 61.0825ZM87.4557 55.919C87.3828 55.9316 87.3116 55.9533 87.244 55.9836C87.1975 56.0018 87.1585 56.0352 87.1334 56.0783C87.1082 56.1253 87.098 56.1789 87.1042 56.2318C87.1097 56.3099 87.121 56.3874 87.1381 56.4637L87.8618 59.929C87.8793 60.0108 87.901 60.0918 87.9269 60.1714C87.942 60.2223 87.9729 60.267 88.0153 60.299C88.0558 60.3289 88.1053 60.3442 88.1556 60.3424C88.2296 60.3425 88.3034 60.3336 88.3753 60.3159C88.4481 60.303 88.5191 60.2817 88.587 60.2524C88.6337 60.2329 88.6727 60.1987 88.6982 60.155C88.7215 60.1055 88.7308 60.0506 88.7252 59.9962C88.7195 59.9362 88.7081 59.8571 88.6908 59.759L87.9634 56.2911C87.953 56.1582 87.8989 56.0326 87.8094 55.9338C87.7627 55.9058 87.7086 55.8927 87.6543 55.8962C87.5884 55.8973 87.5228 55.9047 87.4584 55.9184L87.4557 55.919ZM73.1262 60.2921L73.5264 59.0481L72.7324 58.7924L72.3327 60.0369L71.4153 59.7426L72.8568 55.262C72.9189 55.0529 73.003 54.851 73.1077 54.6596C73.1761 54.5303 73.2872 54.4287 73.4222 54.3722C73.5688 54.316 73.7286 54.3037 73.8822 54.3367C74.1091 54.3784 74.3328 54.4357 74.5518 54.5082C74.7728 54.5767 74.9883 54.6617 75.1966 54.7623C75.3406 54.8288 75.4638 54.9333 75.5529 55.0646C75.6287 55.192 75.6618 55.3405 75.6471 55.4881C75.6243 55.6996 75.5783 55.908 75.51 56.1096L74.0706 60.5954L73.1262 60.2921ZM73.9605 55.2128C73.9143 55.2386 73.8781 55.2793 73.8578 55.3282C73.8234 55.4015 73.7944 55.4772 73.771 55.5548L72.9484 58.1249L73.7424 58.3806L74.5661 55.8062C74.5959 55.7308 74.6159 55.6518 74.6254 55.5712C74.6354 55.5197 74.6313 55.4665 74.6138 55.4171C74.5903 55.3728 74.5546 55.3361 74.5111 55.3113C74.4464 55.2779 74.3791 55.2499 74.3099 55.2276C74.2438 55.2062 74.1757 55.1913 74.1066 55.1832H74.0743C74.0346 55.1815 73.9953 55.1909 73.9605 55.2102V55.2128ZM89.7395 54.6506L91.0581 54.1525C91.2798 54.0646 91.5075 53.9928 91.7394 53.9375C91.8937 53.8975 92.0559 53.8999 92.209 53.9444C92.3448 53.9939 92.4604 54.087 92.5377 54.2091C92.65 54.385 92.7419 54.5731 92.8119 54.7697L93.029 55.343C93.0769 55.461 93.1041 55.5864 93.1094 55.7136C93.1094 55.807 93.0915 55.8996 93.0565 55.9862C93.0228 56.0576 92.9751 56.1215 92.9162 56.1741C92.8608 56.2232 92.8023 56.2687 92.741 56.3102L92.7521 56.3377C92.8377 56.3231 92.9247 56.3176 93.0115 56.3213C93.0939 56.3257 93.1741 56.3496 93.2455 56.3912C93.3272 56.4419 93.3979 56.5085 93.4535 56.587C93.529 56.6988 93.5895 56.82 93.6335 56.9475L94.4662 59.1344L93.535 59.4869L92.6557 57.1741C92.6249 57.0635 92.5613 56.965 92.4731 56.8914C92.408 56.847 92.2947 56.8581 92.1348 56.919L91.7177 57.0778L92.7442 59.786L91.8188 60.1359L89.7395 54.6506ZM91.5393 54.7845C91.4669 54.7984 91.3959 54.8193 91.3276 54.847L90.9326 54.9942L91.4837 56.4452L91.9014 56.2864C92.0533 56.2302 92.1417 56.1662 92.1661 56.0979C92.1939 55.9957 92.1828 55.8869 92.1348 55.7925L91.8797 55.1207C91.8536 55.0489 91.8221 54.9792 91.7855 54.9121C91.7625 54.8676 91.727 54.8308 91.6833 54.8062C91.6537 54.7893 91.62 54.7811 91.5859 54.7824C91.5697 54.7813 91.5534 54.7813 91.5372 54.7824L91.5393 54.7845ZM67.9061 58.1513L69.7965 53.8809L69.7658 53.8634L67.1417 57.7416L66.0221 57.1386L68.2492 51.675L69.1221 52.1425L67.1835 56.3377L67.2142 56.3552L69.8023 52.5077L70.914 53.1059L69.0692 57.352L69.0999 57.3679L71.6128 53.4791L72.491 53.9529L69.0114 58.7442L67.9061 58.1513ZM94.156 53.5458L93.498 53.9068L93.1555 53.2832L95.3222 52.0848L95.6673 52.7115L95.0183 53.0673L97.5159 57.5786L96.6488 58.055L94.156 53.5458ZM99.7419 56.0286C99.5947 56.0154 99.4554 55.9561 99.3438 55.8592C99.1792 55.7131 99.0314 55.549 98.9034 55.37L96.0702 51.6168L96.8616 51.0228L99.6927 54.7787C99.7417 54.8465 99.7972 54.9095 99.8584 54.9666C99.8945 55.0053 99.9423 55.0313 99.9944 55.0408C100.043 55.0457 100.093 55.0371 100.137 55.0159C100.203 54.984 100.265 54.9449 100.322 54.8994C100.38 54.8587 100.433 54.8114 100.48 54.7586C100.514 54.7234 100.535 54.6779 100.54 54.6294C100.542 54.5772 100.529 54.5256 100.502 54.4807C100.464 54.4074 100.418 54.3377 100.367 54.2726L97.5355 50.5141L98.3057 49.936L101.136 53.6919C101.273 53.8637 101.389 54.0512 101.481 54.2504C101.545 54.3839 101.563 54.5343 101.534 54.6792C101.493 54.8301 101.41 54.9663 101.295 55.072C101.131 55.2336 100.955 55.3833 100.769 55.5198C100.582 55.6615 100.386 55.7913 100.183 55.9084C100.057 55.9825 99.9151 56.0238 99.7694 56.0286H99.7419ZM63.9724 55.5579C63.8142 55.5539 63.6603 55.5061 63.5277 55.4198C63.3237 55.2973 63.129 55.1598 62.9454 55.0085C62.7558 54.8627 62.5769 54.7035 62.4102 54.532C62.2987 54.4224 62.2198 54.2841 62.1821 54.1324C62.1582 53.9874 62.1825 53.8386 62.2514 53.7089C62.3519 53.513 62.4741 53.3291 62.6156 53.1604L64.8194 50.3897C64.9501 50.2162 65.0996 50.0577 65.2651 49.917C65.3771 49.8224 65.5168 49.7666 65.6632 49.7582C65.8198 49.7595 65.9728 49.805 66.1047 49.8895C66.3079 50.0138 66.5024 50.1517 66.687 50.3024C66.8762 50.4471 67.0545 50.6054 67.2206 50.7762C67.3341 50.8869 67.4144 51.0272 67.4525 51.1811C67.4813 51.325 67.4602 51.4744 67.3926 51.6046C67.2904 51.7983 67.1689 51.9811 67.03 52.1504L64.8241 54.9206C64.6915 55.0948 64.5409 55.2545 64.3747 55.397C64.2627 55.4923 64.1224 55.5481 63.9756 55.5558L63.9724 55.5579ZM65.8855 50.7545C65.8333 50.7648 65.7856 50.7915 65.7495 50.8307C65.6929 50.8859 65.6399 50.9446 65.5907 51.0064L63.3874 53.7771C63.3354 53.8419 63.2868 53.9094 63.2418 53.9794C63.2135 54.0257 63.199 54.0791 63.2 54.1334C63.2038 54.1834 63.2235 54.2309 63.2561 54.2689C63.3046 54.3227 63.3578 54.3722 63.415 54.4166C63.4711 54.4643 63.5324 54.5057 63.5976 54.54C63.6427 54.5628 63.694 54.5703 63.7437 54.5611C63.7975 54.5501 63.8465 54.5225 63.884 54.4823C63.9423 54.4264 63.9962 54.3663 64.0454 54.3023L66.2497 51.531C66.3443 51.4372 66.4061 51.3155 66.426 51.1838C66.4197 51.107 66.3514 51.0144 66.2095 50.9027C66.1541 50.8554 66.0935 50.8146 66.029 50.7809C65.9844 50.7577 65.9337 50.749 65.8839 50.756L65.8855 50.7545ZM99.1416 49.2087L99.8986 48.4215L103.293 50.3272L103.319 50.3055L100.602 47.6931L101.199 47.0727L105.43 51.1435L104.696 51.9032L101.343 50.1001L101.323 50.1261L103.96 52.6639L103.371 53.278L99.1416 49.2087ZM59.7814 52.0212L61.6029 50.3468C61.6957 50.2785 61.7643 50.1825 61.7988 50.0726C61.8126 49.9964 61.7633 49.8953 61.6469 49.7682L61.3456 49.4416L59.2091 51.4003L58.5405 50.6735L62.8644 46.7032L63.8173 47.7386C63.982 47.9118 64.134 48.0967 64.272 48.2918C64.3661 48.4195 64.424 48.5702 64.4398 48.728C64.4447 48.8721 64.4019 49.0137 64.3181 49.1309C64.1958 49.2998 64.0548 49.4543 63.8977 49.5914L63.4446 50.0107C63.3527 50.1003 63.245 50.1721 63.127 50.2224C63.0418 50.2578 62.9502 50.2749 62.8581 50.2727C62.7783 50.2715 62.6996 50.2534 62.6273 50.2198C62.5614 50.1865 62.498 50.1485 62.4377 50.106L62.4171 50.1271C62.4616 50.2017 62.4983 50.2807 62.5267 50.3627C62.5537 50.4403 62.5612 50.5234 62.5484 50.6046C62.5333 50.6992 62.4983 50.7894 62.4457 50.8693C62.3718 50.9823 62.2828 51.0845 62.181 51.1732L60.4568 52.7571L59.7814 52.0212ZM61.8422 48.9816L62.1434 49.3124C62.2104 49.4044 62.3093 49.468 62.4208 49.4908C62.5257 49.4766 62.6217 49.4244 62.6908 49.3442L63.2228 48.8588C63.2788 48.8069 63.3318 48.7519 63.3816 48.6941C63.4149 48.6568 63.4369 48.6107 63.4451 48.5613C63.4487 48.5113 63.4361 48.4616 63.4091 48.4194C63.3693 48.3562 63.3232 48.2971 63.2715 48.2431L62.9878 47.934L61.8422 48.9816ZM60.9158 30.9121C60.8876 26.6941 62.1126 22.5627 64.4355 19.0418C66.7584 15.5209 70.0745 12.7691 73.9634 11.1354C77.8522 9.50166 82.1387 9.05955 86.2791 9.86513C90.4196 10.6707 94.2276 12.6877 97.2202 15.6603C100.213 18.6329 102.255 22.4273 103.089 26.5623C103.922 30.6972 103.509 34.9865 101.901 38.8863C100.293 42.786 97.564 46.1205 94.0587 48.467C90.5535 50.8134 86.4304 52.0661 82.2123 52.0662C76.585 52.0785 71.1826 49.8582 67.1902 45.8925C63.1978 41.9267 60.9413 36.5393 60.9158 30.9121ZM61.5071 30.9121C61.4791 35.0127 62.6695 39.0293 64.9273 42.4525C67.1851 45.8757 70.4086 48.5513 74.189 50.1401C77.9695 51.7288 82.1366 52.1591 86.1619 51.3765C90.1872 50.5938 93.8895 48.6333 96.7992 45.7437C99.7088 42.8541 101.695 39.1656 102.505 35.1457C103.316 31.1259 102.915 26.9559 101.352 23.1646C99.7895 19.3732 97.1363 16.1312 93.7288 13.8498C90.3213 11.5683 86.3131 10.3502 82.2123 10.3498C76.7421 10.3379 71.4904 12.496 67.609 16.3506C63.7275 20.2053 61.5332 25.4419 61.5071 30.9121ZM102.842 46.8795C102.66 46.7584 102.492 46.6188 102.34 46.4628C102.237 46.3587 102.172 46.2238 102.154 46.0791C102.147 45.9234 102.183 45.7687 102.257 45.6317C102.364 45.4269 102.486 45.23 102.621 45.0425C102.75 44.8509 102.894 44.6701 103.052 44.5021C103.156 44.3831 103.292 44.2966 103.444 44.2527C103.588 44.2155 103.741 44.2262 103.878 44.2834C104.075 44.3688 104.262 44.4753 104.436 44.6011L108.301 47.2887L107.738 48.0991L106.664 47.3532L106.187 48.0356L107.262 48.7825L106.712 49.5697L102.842 46.8795ZM103.511 45.2527C103.462 45.2621 103.416 45.2859 103.38 45.321C103.329 45.3716 103.283 45.4267 103.242 45.4856C103.201 45.5434 103.166 45.6049 103.136 45.6693C103.116 45.7149 103.11 45.7654 103.119 45.8144C103.131 45.8654 103.159 45.9111 103.199 45.9446C103.26 45.9972 103.323 46.0463 103.389 46.0918L105.612 47.6375L106.089 46.9536L103.865 45.4083C103.8 45.3618 103.732 45.3206 103.661 45.285C103.62 45.2655 103.576 45.2541 103.531 45.2516L103.511 45.2527ZM57.332 48.7799C57.183 48.7257 57.0509 48.6331 56.9492 48.5115C56.7938 48.3307 56.6499 48.1403 56.5183 47.9414L55.7364 46.7704L60.6268 43.5158L61.4065 44.6847C61.5426 44.8821 61.664 45.0893 61.7697 45.3046C61.8418 45.4437 61.8768 45.599 61.8713 45.7556C61.8555 45.8988 61.7919 46.0326 61.6908 46.1352C61.5419 46.2832 61.3776 46.4149 61.2006 46.528L60.8348 46.7704C60.73 46.8473 60.6103 46.9014 60.4833 46.9292C60.3898 46.9483 60.2936 46.9499 60.1996 46.934C60.1208 46.9183 60.0457 46.8878 59.9783 46.844C59.921 46.8081 59.8702 46.7628 59.8279 46.7101L59.8015 46.727C59.8346 46.8086 59.8585 46.8937 59.8729 46.9806C59.8843 47.0643 59.8758 47.1495 59.8481 47.2294C59.8119 47.3264 59.7558 47.4148 59.6834 47.4888C59.5816 47.5951 59.4673 47.6888 59.343 47.7677L58.3113 48.4559C58.1381 48.5773 57.9518 48.6789 57.756 48.7587C57.675 48.7922 57.5884 48.8101 57.5008 48.8117C57.4432 48.8101 57.3862 48.7993 57.332 48.7799ZM56.8989 47.1823L57.1329 47.5343C57.174 47.5946 57.2195 47.6517 57.269 47.7053C57.3033 47.7402 57.3474 47.764 57.3955 47.7736C57.4461 47.7767 57.4967 47.7665 57.5421 47.7439C57.6163 47.7104 57.6872 47.67 57.7539 47.6232L58.9465 46.8292C59.0514 46.7737 59.1372 46.6879 59.1927 46.583C59.2176 46.5094 59.1837 46.4025 59.0868 46.2622L58.8364 45.8885L56.8989 47.1823ZM59.406 45.5147L59.6527 45.8853C59.7432 46.0171 59.8253 46.0907 59.8968 46.1029C60.0032 46.1049 60.1068 46.0684 60.1884 46.0002L60.6479 45.6979C60.7098 45.6567 60.7689 45.6114 60.8247 45.5624C60.8639 45.5298 60.894 45.4877 60.9121 45.4401C60.9243 45.3905 60.919 45.3381 60.8973 45.2919C60.8689 45.2229 60.8335 45.1571 60.7914 45.0955L60.5595 44.745L59.406 45.5147ZM82.1689 46.3294V45.9959C82.1472 45.8028 82.1829 45.6075 82.2713 45.4344C82.3598 45.2613 82.4973 45.118 82.6665 45.0224C82.5287 44.9171 82.4178 44.7806 82.3428 44.6242C82.2679 44.4678 82.2309 44.2959 82.2351 44.1225C82.2351 43.4476 82.6337 42.8928 83.5993 42.8928C84.5649 42.8928 84.9661 43.4476 84.9661 44.1225C84.9659 44.2931 84.9291 44.4616 84.8583 44.6168C84.7876 44.7721 84.6844 44.9103 84.5559 45.0224C84.7101 45.1316 84.8339 45.2783 84.9157 45.4486C84.9975 45.619 85.0345 45.8073 85.0233 45.9959V46.3294C85.0233 47.3173 84.5622 47.7556 83.594 47.7556C82.6258 47.7556 82.1695 47.3172 82.1695 46.33L82.1689 46.3294ZM83.0292 46.0394V46.2855C83.0292 46.7413 83.1467 47.0002 83.5951 47.0002C84.0434 47.0002 84.1631 46.7413 84.1631 46.2855V46.0394C84.1631 45.5979 84.044 45.357 83.5951 45.357C83.1461 45.357 83.0297 45.5867 83.0297 46.0399L83.0292 46.0394ZM83.098 44.141C83.0931 44.2099 83.1025 44.2791 83.1254 44.3442C83.1483 44.4093 83.1844 44.4691 83.2313 44.5197C83.2782 44.5704 83.3351 44.6109 83.3983 44.6387C83.4615 44.6665 83.5297 44.6811 83.5988 44.6815H83.6443C83.7768 44.6702 83.8995 44.6071 83.9858 44.5059C84.0721 44.4048 84.115 44.2737 84.1054 44.141C84.0971 44.0133 84.0405 43.8935 83.9471 43.806C83.8537 43.7184 83.7305 43.6697 83.6025 43.6697C83.4745 43.6697 83.3512 43.7184 83.2579 43.806C83.1644 43.8935 83.1079 44.0133 83.0996 44.141H83.098ZM78.3723 46.33V45.9965C78.3504 45.8031 78.3861 45.6075 78.4749 45.4343C78.5637 45.2612 78.7017 45.118 78.8715 45.023C78.7331 44.9181 78.6217 44.7818 78.5465 44.6253C78.4713 44.4688 78.4344 44.2966 78.439 44.123C78.439 43.4481 78.8387 42.8933 79.8069 42.8933C80.7751 42.8933 81.1737 43.4481 81.1737 44.123C81.1738 44.2939 81.137 44.4627 81.0658 44.618C80.9946 44.7733 80.8908 44.9115 80.7613 45.023C80.9163 45.1316 81.0407 45.2781 81.1229 45.4485C81.2051 45.619 81.2423 45.8076 81.2309 45.9965V46.33C81.2309 47.3178 80.7666 47.7561 79.8016 47.7561C78.8365 47.7561 78.3734 47.3172 78.3734 46.33H78.3723ZM79.2325 46.0399V46.286C79.2325 46.7418 79.3511 47.0007 79.8016 47.0007C80.2521 47.0007 80.3685 46.7418 80.3685 46.286V46.0399C80.3685 45.5984 80.2479 45.3575 79.8016 45.3575C79.3553 45.3575 79.2336 45.5867 79.2336 46.0399H79.2325ZM79.3008 44.141C79.2962 44.2102 79.3059 44.2796 79.3292 44.3449C79.3525 44.4102 79.389 44.47 79.4363 44.5206C79.4836 44.5713 79.5408 44.6117 79.6044 44.6394C79.6679 44.667 79.7365 44.6814 79.8058 44.6815H79.8487C79.9817 44.6707 80.105 44.6079 80.1919 44.5067C80.2788 44.4055 80.3223 44.2741 80.313 44.141C80.313 44.0068 80.2596 43.8781 80.1647 43.7832C80.0698 43.6883 79.9411 43.635 79.8069 43.635C79.6727 43.635 79.5439 43.6883 79.449 43.7832C79.3541 43.8781 79.3008 44.0068 79.3008 44.141ZM86.4124 47.6952L86.3859 47.6079C86.8941 47.3189 87.3178 46.9021 87.6151 46.3988C87.5293 46.4041 87.3928 46.4041 87.3118 46.4041C87.1371 46.422 86.9606 46.3999 86.7958 46.3395C86.6309 46.279 86.482 46.1818 86.3603 46.0552C86.2386 45.9286 86.1473 45.776 86.0934 45.6089C86.0395 45.4417 86.0244 45.2646 86.0492 45.0907V44.2834C86.0492 43.2665 86.4489 42.8658 87.4653 42.8658C88.4907 42.8658 88.8835 43.2665 88.8835 44.2834V45.0907C88.8739 45.6088 88.7383 46.1167 88.4882 46.5706C88.2381 47.0244 87.8812 47.4104 87.4483 47.6952H86.4124ZM86.9169 44.2834V45.0907C86.9169 45.5243 87.0852 45.6376 87.4647 45.6376C87.8443 45.6376 88.0132 45.5243 88.0132 45.0907V44.2834C88.0132 43.8006 87.8448 43.6762 87.4647 43.6762C87.0847 43.6762 86.919 43.8012 86.919 44.2834H86.9169ZM75.2585 47.6931V46.9912H76.0378V43.644H75.4253V42.906H76.9075V46.9912H77.6486V47.6931H75.2585ZM90.1338 45.0759C90.1329 44.9596 90.1665 44.8457 90.2304 44.7485C90.2943 44.6514 90.3856 44.5754 90.4928 44.5302C90.5999 44.485 90.7181 44.4727 90.8323 44.4947C90.9465 44.5168 91.0515 44.5723 91.1341 44.6541C91.2167 44.736 91.2732 44.8405 91.2962 44.9545C91.3194 45.0685 91.3081 45.1868 91.2639 45.2943C91.2197 45.4019 91.1445 45.4939 91.0479 45.5587C90.9514 45.6235 90.8377 45.6581 90.7214 45.6582C90.6447 45.6588 90.5687 45.6443 90.4976 45.6155C90.4266 45.5866 90.3619 45.544 90.3073 45.4901C90.2528 45.4362 90.2094 45.372 90.1797 45.3013C90.1501 45.2306 90.1346 45.1547 90.1344 45.078L90.1338 45.0759ZM72.8346 45.0759C72.8335 44.9595 72.8671 44.8453 72.931 44.748C72.9949 44.6507 73.0863 44.5746 73.1936 44.5293C73.3009 44.484 73.4192 44.4716 73.5335 44.4937C73.6478 44.5157 73.753 44.5713 73.8357 44.6532C73.9185 44.7352 73.9749 44.8399 73.9981 44.954C74.0212 45.0681 74.0098 45.1866 73.9655 45.2942C73.9212 45.4019 73.8459 45.494 73.7492 45.5588C73.6524 45.6236 73.5386 45.6582 73.4222 45.6582C73.3455 45.6588 73.2694 45.6443 73.1983 45.6155C73.1273 45.5866 73.0626 45.544 73.0081 45.4901C72.9535 45.4362 72.9102 45.372 72.8805 45.3013C72.8508 45.2306 72.8354 45.1547 72.8351 45.078L72.8346 45.0759ZM70.626 41.5905C70.5766 41.57 70.5324 41.5388 70.4966 41.499C70.4608 41.4593 70.4343 41.412 70.419 41.3608L70.2184 40.6371C70.1971 40.5594 70.2029 40.4768 70.235 40.4028C70.267 40.3289 70.3234 40.2681 70.3947 40.2306C73.0034 38.8664 78.547 38.4519 82.2102 38.4519C85.8544 38.4519 91.3715 38.8622 93.9908 40.2147C94.0635 40.2515 94.1211 40.3125 94.1536 40.3872C94.1861 40.4619 94.1914 40.5457 94.1687 40.6239L93.9675 41.3428C93.953 41.3942 93.9271 41.4417 93.8918 41.4818C93.8566 41.5219 93.8127 41.5537 93.7636 41.5746C93.7144 41.5956 93.6612 41.6053 93.6078 41.603C93.5545 41.6007 93.5023 41.5865 93.4551 41.5614C92.0856 40.8266 88.1672 39.9161 82.2102 39.9161C76.2162 39.9161 72.284 40.8378 70.9373 41.5746C70.8841 41.6032 70.8246 41.6181 70.7642 41.6181C70.7171 41.6189 70.6703 41.6102 70.6266 41.5926L70.626 41.5905ZM94.2629 38.5551C92.0528 37.3635 86.9142 36.5403 82.2102 36.5403C77.5179 36.5403 72.4047 37.3566 70.1824 38.5377C70.1323 38.5668 70.0752 38.5818 70.0173 38.5811C69.9693 38.5812 69.9217 38.5716 69.8775 38.553C69.8287 38.5333 69.785 38.5029 69.7496 38.4641C69.7141 38.4252 69.6878 38.3789 69.6726 38.3286L64.902 22.7466C64.8817 22.6788 64.882 22.6066 64.903 22.5391C64.9239 22.4716 64.9644 22.4119 65.0195 22.3675C65.084 22.3174 65.1633 22.2901 65.245 22.2897C65.3069 22.2906 65.3676 22.3068 65.4218 22.3368L74.3041 27.3812C74.3502 27.4071 74.39 27.443 74.4206 27.4862C74.4512 27.5294 74.4718 27.5789 74.4809 27.631C74.4885 27.683 74.4849 27.7359 74.4705 27.7864C74.4561 27.8369 74.4311 27.8837 74.3973 27.9238C73.9592 28.4335 73.692 29.0678 73.6334 29.7374C73.6299 30.2589 73.7814 30.7696 74.0685 31.2049C74.3557 31.6402 74.7657 31.9804 75.2464 32.1824C75.7272 32.3844 76.2571 32.4391 76.769 32.3396C77.2809 32.24 77.7517 31.9907 78.1217 31.6233C78.4917 31.2559 78.7443 30.7868 78.8475 30.2757C78.9506 29.7645 78.8996 29.2342 78.701 28.7521C78.5024 28.2699 78.1651 27.8575 77.7319 27.5673C77.2987 27.2771 76.789 27.122 76.2675 27.1218C76.2615 27.1212 76.2555 27.1212 76.2495 27.1218H76.2469C76.2323 27.1221 76.2179 27.1185 76.2052 27.1114C76.1925 27.1044 76.1818 27.0941 76.1744 27.0816C76.1651 27.0697 76.1592 27.0556 76.1572 27.0407C76.1553 27.0258 76.1574 27.0107 76.1632 26.9969L81.8968 13.878C81.9251 13.8148 81.9711 13.7611 82.0292 13.7235C82.0874 13.6859 82.1553 13.666 82.2245 13.6663C82.2938 13.6653 82.3618 13.6849 82.4199 13.7226C82.4781 13.7603 82.5237 13.8144 82.5511 13.878L88.2154 26.9932C88.2166 26.9947 88.2173 26.9965 88.2173 26.9985C88.2173 27.0004 88.2166 27.0022 88.2154 27.0037C88.2135 27.0065 88.2111 27.009 88.2085 27.0112C88.1725 27.0276 88.1831 27.117 88.1789 27.117C87.6624 27.1209 87.1586 27.2776 86.7311 27.5673C86.3035 27.8571 85.9713 28.2669 85.7764 28.7452C85.5814 29.2235 85.5324 29.7487 85.6355 30.2548C85.7386 30.7609 85.9893 31.2251 86.3558 31.589C86.7224 31.9528 87.1885 32.2 87.6953 32.2993C88.2022 32.3987 88.7271 32.3458 89.2039 32.1472C89.6807 31.9487 90.088 31.6134 90.3746 31.1837C90.6611 30.754 90.8141 30.2491 90.8141 29.7326C90.7554 29.0635 90.4891 28.4294 90.0523 27.919C90.0187 27.8787 89.9938 27.8319 89.9791 27.7816C89.9644 27.7312 89.9603 27.6783 89.9671 27.6263C89.977 27.5742 89.9982 27.5248 90.0291 27.4817C90.06 27.4385 90.0999 27.4026 90.146 27.3764L99.0288 22.3321C99.0817 22.3018 99.1415 22.2856 99.2025 22.2849C99.284 22.285 99.3633 22.3124 99.4274 22.3628C99.4827 22.4069 99.5235 22.4666 99.5447 22.5342C99.5658 22.6017 99.5663 22.674 99.546 22.7418L94.7706 38.3423C94.7559 38.3932 94.7298 38.4401 94.6943 38.4794C94.6588 38.5188 94.6148 38.5495 94.5657 38.5694C94.5223 38.5863 94.4762 38.5952 94.4297 38.5959C94.3719 38.5967 94.3149 38.5835 94.2634 38.5572L94.2629 38.5551ZM93.6743 36.607L97.1713 25.1795L91.9946 28.1181C92.3085 28.8596 92.4008 29.6761 92.2605 30.469C92.1201 31.2619 91.753 31.9971 91.2037 32.5858C90.6543 33.1745 89.9461 33.5914 89.1648 33.7861C88.3835 33.9808 87.5625 33.945 86.8011 33.683C86.0397 33.421 85.3706 32.944 84.8745 32.3098C84.3785 31.6755 84.0768 30.9111 84.006 30.109C83.9352 29.3069 84.0983 28.5015 84.4755 27.7902C84.8528 27.0788 85.4281 26.492 86.1318 26.1006L82.2203 17.0442L78.2728 26.0731C79.0258 26.4497 79.6514 27.0397 80.0713 27.7696C80.4913 28.4994 80.687 29.3366 80.6342 30.177C80.5815 31.0173 80.2824 31.8235 79.7744 32.495C79.2665 33.1665 78.572 33.6736 77.7777 33.953C76.9834 34.2325 76.1245 34.2718 75.3079 34.0663C74.4914 33.8607 73.7535 33.4193 73.1862 32.7971C72.6189 32.1749 72.2474 31.3994 72.1179 30.5674C71.9884 29.7355 72.1068 28.8838 72.4582 28.1186L67.2815 25.1774L70.7753 36.5965C73.4979 35.6251 77.9059 34.9882 82.2097 34.9882C85.8189 34.9882 90.6166 35.5017 93.6743 36.6092V36.607ZM54.1123 35.5838C53.8336 35.0432 53.668 34.4515 53.6258 33.8448C53.9655 34.1998 54.3762 34.479 54.8312 34.6643C55.2995 34.8336 55.7039 35.1437 55.989 35.552L54.4538 35.9226C54.3154 35.8383 54.1985 35.723 54.1123 35.5859V35.5838ZM108.521 35.552C108.807 35.1447 109.211 34.8348 109.678 34.6643C110.133 34.4797 110.543 34.2004 110.881 33.8448C110.84 34.4518 110.675 35.0439 110.394 35.5838C110.31 35.7209 110.194 35.8361 110.056 35.9199L108.521 35.552ZM106.15 34.9776C106.113 34.9175 106.087 34.8516 106.072 34.7828C105.989 34.2937 105.984 33.7945 106.058 33.3038C106.292 33.6297 106.574 33.9179 106.895 34.1582C107.339 34.444 107.668 34.8775 107.823 35.3821L106.15 34.9776ZM57.6115 34.1576C57.9337 33.918 58.2168 33.6298 58.4505 33.3032C58.5233 33.794 58.5179 34.2932 58.4346 34.7823C58.4194 34.8509 58.3935 34.9166 58.3579 34.9771L56.6835 35.381C56.8406 34.878 57.1689 34.4459 57.6115 34.1598V34.1576ZM108.749 33.4605C108.782 33.2567 108.835 33.0567 108.907 32.8633C109.126 32.3676 109.511 31.9642 109.996 31.7236C110.428 31.4843 110.804 31.1544 111.096 30.7564C111.131 31.3703 111.037 31.9847 110.82 32.56C110.571 32.9486 110.205 33.2484 109.776 33.4165C109.373 33.6065 109.008 33.8664 108.697 34.1841C108.682 33.9425 108.699 33.7 108.746 33.4626L108.749 33.4605ZM54.7381 33.4197C54.3083 33.2501 53.9422 32.9504 53.691 32.5627C53.4763 31.9868 53.3826 31.3728 53.4157 30.7591C53.709 31.1566 54.0841 31.4865 54.5157 31.7268C55.0002 31.9682 55.385 32.3713 55.6036 32.8665C55.6798 33.059 55.7346 33.2592 55.7671 33.4636C55.8147 33.7019 55.8309 33.9454 55.8153 34.1878C55.5046 33.87 55.1398 33.6099 54.7381 33.4197ZM107.205 33.0661C106.881 32.8758 106.615 32.6028 106.432 32.2752C106.294 31.7935 106.23 31.2938 106.242 30.793C106.513 31.0908 106.827 31.3462 107.174 31.5505C107.437 31.6744 107.672 31.8511 107.864 32.0697C108.056 32.2883 108.2 32.544 108.289 32.821C108.336 33.0188 108.356 33.2219 108.349 33.425C108.347 33.6634 108.309 33.9002 108.237 34.1275C107.978 33.6994 107.624 33.3364 107.203 33.0661H107.205ZM56.1668 33.4261C56.1587 33.2232 56.1774 33.0201 56.2224 32.822C56.3112 32.5456 56.4556 32.2903 56.6468 32.0718C56.838 31.8533 57.0719 31.6762 57.3341 31.5516C57.6831 31.3489 57.9987 31.0933 58.2695 30.794C58.2831 31.295 58.2186 31.7951 58.0784 32.2763C57.8953 32.6035 57.6291 32.8765 57.3066 33.0677C56.8862 33.3381 56.5337 33.7016 56.2764 34.1301C56.2021 33.9028 56.1642 33.6652 56.1642 33.4261H56.1668ZM54.8164 30.7972C54.4722 30.5572 54.2002 30.2277 54.0298 29.8443C53.9672 29.4771 53.9573 29.1028 54.0001 28.7327V28.702C54.0033 28.6554 54.0049 28.6173 54.0049 28.5924C54.1974 26.2381 54.6897 23.918 55.4696 21.6883L55.8661 21.8588C55.2314 23.6912 54.7912 25.5853 54.5528 27.5098C54.4985 27.9612 54.5939 28.418 54.8243 28.81C54.8667 28.8804 54.909 28.946 54.9503 29.0138L54.9583 29.0275C55.2207 29.4229 55.412 29.8611 55.5236 30.3224C55.6378 30.7538 55.6666 31.2033 55.6083 31.6458C55.3876 31.3248 55.1199 31.0388 54.8143 30.7972H54.8164ZM108.886 30.937C108.898 30.729 108.934 30.5231 108.992 30.3229C109.099 29.8603 109.29 29.4214 109.556 29.0281L109.562 29.0153C109.605 28.9471 109.645 28.8819 109.687 28.811C109.919 28.4197 110.014 27.9624 109.958 27.5109C109.722 25.5861 109.282 23.6918 108.646 21.8599L109.045 21.6894C109.822 23.9195 110.313 26.2398 110.503 28.594C110.503 28.6183 110.507 28.657 110.512 28.703L110.515 28.7337C110.556 29.104 110.545 29.4783 110.481 29.8454C110.313 30.2289 110.041 30.5586 109.698 30.7983C109.392 31.0392 109.124 31.3247 108.904 31.6453C108.869 31.4107 108.863 31.173 108.884 30.937H108.886ZM107.549 30.694C107.268 30.5036 107.033 30.253 106.861 29.9603C106.821 29.8699 106.793 29.7747 106.778 29.6771C106.729 29.4433 106.695 29.2067 106.676 28.9688C106.518 27.008 106.123 25.0737 105.499 23.2082L105.896 23.0361C106.424 24.61 106.793 26.2329 106.998 27.8804C107.05 28.3111 107.238 28.7139 107.535 29.0307C107.904 29.3955 108.18 29.8445 108.337 30.3393C108.401 30.5343 108.441 30.7365 108.455 30.9412C108.477 31.1713 108.464 31.4034 108.415 31.6294C108.191 31.2631 107.896 30.9451 107.547 30.694H107.549ZM56.0567 30.9412C56.0703 30.7364 56.1096 30.5342 56.1737 30.3393C56.3317 29.8447 56.607 29.3957 56.9762 29.0307C57.2706 28.7126 57.4579 28.3104 57.512 27.8804C57.7161 26.2327 58.0855 24.6098 58.6146 23.0361L59.0117 23.2082C58.3861 25.0732 57.9911 27.0078 57.8354 28.9688C57.8141 29.2066 57.7798 29.443 57.7327 29.6771C57.7181 29.7753 57.6898 29.871 57.6485 29.9613C57.4779 30.2527 57.2451 30.5029 56.9667 30.694C56.6167 30.9444 56.3201 31.262 56.0943 31.6283C56.0474 31.4025 56.034 31.1709 56.0546 30.9412H56.0567ZM107.74 27.4002C107.642 26.7525 107.682 26.0911 107.858 25.4601L107.866 25.4289L107.858 25.3929C107.646 24.4272 107.378 23.4744 107.058 22.539L107.42 22.3802C107.749 23.3344 108.023 24.3065 108.24 25.2918L108.251 25.3331L108.267 25.35C108.713 25.8808 108.998 26.5269 109.092 27.2134C109.219 28.0235 109.059 28.8528 108.638 29.5569C108.157 28.9282 107.846 28.185 107.738 27.4002H107.74ZM55.4199 27.2171C55.5143 26.5307 55.8003 25.8848 56.2452 25.3537L56.2611 25.3362L56.2743 25.2955C56.4917 24.3102 56.7649 23.3382 57.0927 22.3839L57.4548 22.5427C57.1348 23.4782 56.8681 24.431 56.656 25.3966L56.648 25.432L56.6581 25.4633C56.8313 26.0949 56.871 26.7556 56.7745 27.4034C56.6664 28.1892 56.3564 28.9336 55.8746 29.5638C55.4545 28.8581 55.2929 28.0283 55.4178 27.2166L55.4199 27.2171ZM103.798 20.1129L107.63 18.2072L107.978 18.9054L104.146 20.8112L103.798 20.1129ZM56.4003 18.7L56.7888 18.0267L59.8174 19.5057L59.8295 19.484L57.0922 17.4984L57.5898 16.6366L60.6601 18.0479L60.6723 18.0235L57.9032 16.0977L58.2928 15.4195L61.694 18.0876L61.1985 18.9425L58.1128 17.4984L58.1011 17.5222L60.8613 19.5338L60.36 20.4004L56.4003 18.7ZM103.442 19.2241C103.332 19.1753 103.236 19.1002 103.162 19.0055C103.051 18.8661 102.949 18.7197 102.857 18.5672C102.755 18.4093 102.665 18.2447 102.586 18.0743C102.531 17.9651 102.506 17.8432 102.514 17.7212C102.53 17.6126 102.581 17.5122 102.66 17.4359C102.776 17.3264 102.904 17.23 103.041 17.1485L105.24 15.7933C105.372 15.7057 105.516 15.636 105.667 15.5858C105.771 15.5495 105.885 15.5495 105.99 15.5858C106.101 15.6374 106.199 15.7145 106.275 15.8107C106.389 15.954 106.493 16.1047 106.588 16.2618C106.683 16.4124 106.768 16.5692 106.842 16.7313C106.896 16.8391 106.92 16.959 106.913 17.0791C106.898 17.1871 106.848 17.287 106.769 17.3623C106.653 17.4721 106.526 17.5677 106.388 17.6471L105.563 18.1569L105.17 17.5217L105.994 17.0114C106.044 16.9819 106.092 16.9486 106.137 16.9118C106.168 16.8873 106.19 16.8538 106.201 16.816C106.205 16.7784 106.201 16.7402 106.189 16.7043C106.17 16.6524 106.144 16.6031 106.113 16.5577C106.084 16.507 106.05 16.4597 106.01 16.4169C105.984 16.3886 105.95 16.3681 105.913 16.3576C105.873 16.351 105.833 16.3569 105.797 16.3745C105.745 16.398 105.695 16.4248 105.647 16.455L103.449 17.8107C103.397 17.8427 103.348 17.8781 103.301 17.9166C103.269 17.9401 103.246 17.9742 103.236 18.0129C103.226 18.0516 103.231 18.0924 103.248 18.1283C103.27 18.1822 103.297 18.2338 103.329 18.2824C103.356 18.3302 103.389 18.3746 103.427 18.4147C103.452 18.4428 103.485 18.4633 103.522 18.474C103.561 18.4807 103.602 18.475 103.638 18.4576C103.693 18.4329 103.746 18.4037 103.796 18.3703L104.64 17.852L105.036 18.4872L104.189 19.0066C104.055 19.0934 103.912 19.1645 103.761 19.2183C103.705 19.2366 103.646 19.2463 103.587 19.2469C103.537 19.2468 103.487 19.2384 103.44 19.222L103.442 19.2241ZM59.5955 15.0908C59.4679 14.9967 59.352 14.8876 59.2504 14.7658C59.1792 14.6828 59.1392 14.5776 59.1371 14.4683C59.1438 14.3472 59.1813 14.2298 59.2462 14.1274C59.3395 13.9716 59.4435 13.8225 59.5574 13.6811C59.6675 13.5361 59.7878 13.3992 59.9174 13.2714C60.0034 13.1835 60.1109 13.1198 60.2292 13.0866C60.3372 13.0596 60.4513 13.0707 60.5521 13.1178C60.6923 13.1844 60.8243 13.267 60.9454 13.364L63.6511 15.4762L63.1704 16.0881L62.4208 15.5016L62.0142 16.0188L62.7665 16.6075L62.3006 17.2009L59.5955 15.0908ZM60.2096 13.8537C60.1709 13.8606 60.1351 13.8791 60.1069 13.9066C60.0653 13.9448 60.0268 13.9864 59.992 14.031C59.9578 14.075 59.927 14.1215 59.8999 14.1702C59.8825 14.2044 59.8743 14.2425 59.8761 14.2809C59.8824 14.3194 59.901 14.3548 59.9291 14.382C59.9712 14.4228 60.0161 14.4607 60.0635 14.4953L61.614 15.7075L62.019 15.1924L60.4669 13.9807C60.4205 13.9438 60.3711 13.9109 60.3192 13.8823C60.289 13.8662 60.2555 13.8571 60.2213 13.8558L60.2096 13.8537ZM101.905 16.852C101.786 16.8174 101.678 16.7523 101.593 16.663C101.46 16.5292 101.335 16.3878 101.219 16.2395C101.105 16.1018 101.002 15.9555 100.911 15.8018C100.847 15.7008 100.809 15.5848 100.803 15.4651C100.804 15.3549 100.843 15.2484 100.911 15.1623C101.012 15.0382 101.128 14.927 101.256 14.8314L101.924 14.3047L102.394 14.8976L101.726 15.427C101.678 15.4626 101.633 15.503 101.593 15.5477C101.563 15.574 101.542 15.6093 101.534 15.6482C101.529 15.6859 101.537 15.724 101.557 15.7568C101.584 15.8072 101.616 15.855 101.652 15.8997C101.741 16.013 101.815 16.0691 101.874 16.0733C101.972 16.0586 102.063 16.0126 102.133 15.942L102.638 15.5402C102.686 15.5052 102.732 15.4661 102.774 15.4233C102.805 15.3901 102.827 15.3489 102.838 15.3041C102.848 15.249 102.847 15.1921 102.834 15.1374C102.817 15.0519 102.798 14.967 102.775 14.8828C102.718 14.6891 102.668 14.4933 102.627 14.2957C102.599 14.1765 102.591 14.0534 102.603 13.9315C102.614 13.8417 102.649 13.7566 102.706 13.6859C102.773 13.6064 102.85 13.5354 102.934 13.4741L103.257 13.2174C103.38 13.1149 103.514 13.0271 103.657 12.9559C103.756 12.9082 103.867 12.8937 103.975 12.9146C104.093 12.9487 104.2 13.0129 104.287 13.1009C104.419 13.2336 104.543 13.3751 104.657 13.5244C104.773 13.6674 104.879 13.818 104.975 13.9754C105.039 14.077 105.075 14.1936 105.081 14.3137C105.076 14.4234 105.034 14.5284 104.963 14.6117C104.861 14.7355 104.745 14.8467 104.617 14.9431L104.2 15.2697L103.729 14.6779L104.147 14.347C104.197 14.3109 104.243 14.2704 104.284 14.2258C104.312 14.1984 104.331 14.163 104.337 14.1247C104.339 14.0863 104.331 14.0481 104.313 14.0141C104.284 13.9634 104.25 13.9149 104.214 13.869C104.178 13.8212 104.138 13.7772 104.093 13.7377C104.066 13.7118 104.032 13.6957 103.995 13.6922C103.955 13.689 103.916 13.6994 103.883 13.7219C103.831 13.7537 103.781 13.7891 103.733 13.8277L103.402 14.0887C103.365 14.115 103.332 14.1463 103.304 14.1819C103.282 14.2132 103.268 14.2496 103.264 14.2878C103.26 14.3389 103.264 14.3903 103.275 14.4402C103.287 14.5037 103.31 14.5847 103.339 14.6864C103.407 14.9331 103.458 15.1268 103.488 15.2766C103.518 15.3969 103.526 15.5214 103.512 15.6445C103.503 15.7359 103.466 15.8223 103.406 15.8923C103.329 15.9785 103.245 16.0577 103.154 16.1289L102.617 16.5524C102.492 16.6533 102.357 16.7411 102.215 16.8144C102.146 16.8456 102.071 16.8626 101.995 16.8642C101.965 16.8627 101.934 16.8578 101.905 16.8494V16.852ZM61.1043 11.9077L61.8851 11.1216C62.0162 10.9877 62.1554 10.8618 62.3017 10.7447C62.3975 10.6657 62.512 10.6125 62.6341 10.5901C62.7412 10.5761 62.8498 10.5989 62.9422 10.6547C63.0693 10.7376 63.1869 10.8344 63.2927 10.9432L63.6103 11.2608C63.6797 11.3231 63.7355 11.3989 63.7744 11.4837C63.802 11.5476 63.8155 11.6168 63.8141 11.6864C63.8125 11.7472 63.7978 11.807 63.7712 11.8617C63.7471 11.9139 63.719 11.9641 63.687 12.012L63.7035 12.0268C63.7603 11.9904 63.8194 11.9575 63.8803 11.9284C63.9385 11.9028 64.0021 11.8917 64.0655 11.8961C64.1368 11.9017 64.2058 11.9236 64.2672 11.9601C64.3526 12.0092 64.4311 12.0694 64.5007 12.139L65.7092 13.3439L65.156 13.8987L63.876 12.6282C63.8224 12.5618 63.7477 12.5157 63.6643 12.4974C63.6082 12.4905 63.5319 12.535 63.4345 12.6319L63.1868 12.8812L64.6854 14.3661L64.1338 14.9182L61.1043 11.9077ZM62.4028 11.3863C62.3555 11.421 62.3111 11.4594 62.2699 11.5011L62.0381 11.7383L62.8406 12.5355L63.0878 12.2857C63.1576 12.2311 63.2053 12.1531 63.2217 12.066C63.2172 12.0278 63.2052 11.9908 63.1863 11.9573C63.1674 11.9237 63.142 11.8943 63.1116 11.8706L62.7379 11.5001C62.6999 11.4598 62.6585 11.423 62.614 11.39C62.5847 11.3684 62.5502 11.3551 62.514 11.3513H62.5034C62.4672 11.3536 62.4325 11.3663 62.4033 11.3879L62.4028 11.3863ZM100.066 14.6313C99.9444 14.6098 99.8304 14.5579 99.7345 14.4804C99.5882 14.3632 99.449 14.2375 99.3173 14.1041C99.1827 13.974 99.0571 13.8348 98.9415 13.6874C98.8613 13.5943 98.8082 13.481 98.788 13.3598C98.7748 13.2503 98.8021 13.1398 98.8647 13.049C98.9512 12.9142 99.053 12.7899 99.1681 12.6785L100.993 10.8537C101.103 10.7372 101.228 10.6348 101.363 10.5488C101.454 10.4881 101.562 10.4616 101.67 10.4742C101.791 10.4958 101.905 10.5473 102.001 10.624C102.29 10.8614 102.556 11.1264 102.795 11.4154C102.873 11.5104 102.926 11.6237 102.948 11.7447C102.962 11.8536 102.937 11.9638 102.878 12.0565C102.79 12.1895 102.688 12.3125 102.574 12.4233L100.749 14.2496C100.639 14.366 100.515 14.4691 100.381 14.5567C100.305 14.6054 100.217 14.6321 100.126 14.634C100.106 14.6352 100.086 14.6348 100.066 14.6329L100.066 14.6313ZM101.673 11.2894C101.627 11.3237 101.584 11.3614 101.544 11.4022L99.7218 13.229C99.6773 13.272 99.6362 13.3184 99.599 13.3677C99.5745 13.3978 99.5602 13.4349 99.5582 13.4736C99.5589 13.5116 99.5711 13.5485 99.5931 13.5795C99.6264 13.6266 99.6641 13.6704 99.7059 13.7102C99.7472 13.7519 99.792 13.79 99.8398 13.824C99.8709 13.8455 99.9079 13.8568 99.9457 13.8563C99.9867 13.8551 100.026 13.8396 100.057 13.8124C100.104 13.7773 100.147 13.7383 100.188 13.6959L102.012 11.8691C102.114 11.7632 102.165 11.6859 102.165 11.6287C102.165 11.5716 102.117 11.4927 102.018 11.3932C101.98 11.3507 101.936 11.3132 101.888 11.2815C101.855 11.2593 101.817 11.247 101.777 11.246C101.739 11.2497 101.702 11.2655 101.673 11.291V11.2894ZM104.552 13.1168L105.522 12.8939L105.984 13.4762L104.877 13.5292L104.552 13.1168ZM65.7754 12.5705L64.5817 9.39796L63.8305 10.0062L63.5018 9.60283L64.8628 8.50068L65.1306 8.82783L66.4075 12.0623L67.2344 11.3932L67.5721 11.8092L66.1153 12.9881L65.7754 12.5705ZM97.3904 12.3058L98.3962 9.70817L98.3772 9.6907L96.7361 11.7928L96.2068 11.3826L98.8398 8.01313L99.519 8.5425L98.4375 11.1798L98.4592 11.1962L100.148 9.03323L100.683 9.44878L98.0511 12.8182L97.3904 12.3058ZM67.6399 9.92363L65.4742 8.03907L66.1184 7.61558L67.5049 9.01523L67.526 8.99988L66.8029 7.16402L67.4382 6.74794L68.291 9.49484L69.1237 10.7553L68.472 11.1819L67.6399 9.92363ZM94.4016 10.2455L96.6578 6.61454L97.3163 7.0248L95.3465 10.1973L96.0268 10.6166L95.7404 11.0761L94.4016 10.2455ZM68.3254 6.21698L69.3058 5.7432L70.9278 8.14865L70.9532 8.13542L70.0681 5.37264L71.0421 4.89991L72.9129 8.74472L72.3385 9.02105L71.0151 6.30591L70.9902 6.31915L71.869 9.24974L71.2406 9.55307L69.4662 7.03486L69.4402 7.0465L70.7705 9.78123L70.1956 10.0613L68.3254 6.21698ZM93.0739 9.53825L93.4906 8.68279L92.9003 8.3964L92.4848 9.25186L91.8035 8.92047L93.3005 5.83901C93.3678 5.69424 93.4503 5.55706 93.5467 5.42981C93.6155 5.34506 93.7104 5.28549 93.8167 5.26041C93.9354 5.23936 94.0576 5.25089 94.1703 5.29376C94.3435 5.3524 94.5125 5.42315 94.6758 5.50551C94.8407 5.58237 94.9999 5.67082 95.1523 5.77019C95.2552 5.83734 95.3407 5.92808 95.4016 6.03488C95.4469 6.13429 95.4593 6.24555 95.4371 6.3525C95.403 6.50478 95.3496 6.65207 95.2782 6.79082L93.7775 9.8744L93.0739 9.53825ZM94.1554 5.9433C94.1211 5.95802 94.0915 5.98181 94.0697 6.01211C94.038 6.06187 94.0101 6.11389 93.9861 6.16775L93.1237 7.93849L93.714 8.22435L94.5768 6.45361C94.6034 6.40177 94.6245 6.34731 94.6398 6.29109C94.65 6.25366 94.65 6.21418 94.6398 6.17675C94.6259 6.14137 94.602 6.11083 94.571 6.08887C94.5242 6.05557 94.4744 6.02668 94.4223 6.00259C94.3731 5.97771 94.3217 5.95767 94.2687 5.94277C94.2491 5.93736 94.2288 5.93451 94.2084 5.9343C94.1898 5.93565 94.1716 5.93994 94.1544 5.947L94.1554 5.9433ZM90.6516 8.50862C90.4706 8.46904 90.2925 8.4174 90.1185 8.35405C89.9534 8.29874 89.7926 8.23151 89.6373 8.15289C89.5332 8.10327 89.4445 8.02645 89.3805 7.93055C89.3253 7.83699 89.3043 7.72713 89.3212 7.61981C89.3419 7.46129 89.3808 7.30568 89.4372 7.15608L89.768 6.22386L90.4393 6.45943L90.1084 7.39271C90.0637 7.48205 90.0501 7.58379 90.0698 7.68175C90.0936 7.73733 90.1688 7.78762 90.2916 7.8305C90.3747 7.87296 90.4712 7.88076 90.56 7.8522C90.634 7.78604 90.6861 7.69887 90.7093 7.60234L91.8479 4.37319L92.589 4.63787L91.4477 7.86703C91.3991 8.01934 91.333 8.16554 91.2508 8.3027C91.194 8.39553 91.108 8.46685 91.0062 8.50545C90.9494 8.52435 90.8898 8.53348 90.83 8.53244C90.7696 8.53218 90.7094 8.52544 90.6505 8.51233L90.6516 8.50862ZM73.6101 6.90993L72.0034 4.532L72.7361 4.28637L73.7138 5.99941L73.7403 5.98935L73.5143 4.03068L74.2321 3.79141L74.3496 6.66536L74.8292 8.09466L74.0881 8.34028L73.6101 6.90993ZM88.1455 7.7278C87.9673 7.70998 87.7905 7.68045 87.6161 7.6394C87.4325 7.59914 87.2517 7.54734 87.0746 7.48429C86.9581 7.44679 86.8536 7.37902 86.7718 7.2879C86.7038 7.20222 86.6679 7.0955 86.6702 6.98616C86.6747 6.82637 86.6963 6.66753 86.7347 6.51237L87.3112 3.99469C87.3419 3.83946 87.3922 3.68879 87.461 3.54631C87.5075 3.44588 87.5885 3.36548 87.6892 3.31974C87.8036 3.27289 87.9283 3.25701 88.0508 3.27368C88.4104 3.31385 88.7643 3.39447 89.1058 3.51402C89.22 3.55209 89.3219 3.61988 89.4012 3.71041C89.4692 3.79487 89.5054 3.90055 89.5034 4.00898C89.5009 4.16868 89.4796 4.32754 89.4398 4.48224L89.2233 5.42398L88.4917 5.25882L88.7072 4.31337C88.7229 4.25698 88.733 4.19917 88.7374 4.14079C88.7432 4.102 88.7346 4.0624 88.713 4.02962C88.6918 3.99737 88.6605 3.973 88.6241 3.96028C88.5735 3.93683 88.5201 3.9201 88.4653 3.91052C88.4092 3.89628 88.352 3.88759 88.2943 3.88458C88.2551 3.88196 88.2161 3.89158 88.1826 3.9121C88.1509 3.93492 88.1272 3.96715 88.1148 4.00422C88.0948 4.05795 88.0791 4.11318 88.0677 4.16938L87.4917 6.68441C87.4764 6.74251 87.4663 6.80186 87.4616 6.86175C87.4559 6.90082 87.4634 6.94065 87.4827 6.97504C87.5045 7.00764 87.5355 7.03306 87.5717 7.04809C87.6246 7.0712 87.6798 7.08894 87.7363 7.10103C87.79 7.1142 87.8447 7.12235 87.8999 7.12538C87.9392 7.12776 87.9782 7.11836 88.0121 7.09838C88.0444 7.0758 88.069 7.04383 88.0825 7.0068C88.1034 6.94886 88.121 6.88984 88.1355 6.82999L88.3557 5.8676L89.0862 6.03435L88.8644 6.99886C88.8333 7.15585 88.784 7.30865 88.7172 7.45412C88.6721 7.55421 88.5924 7.63466 88.4928 7.68069C88.411 7.71798 88.3217 7.73609 88.2318 7.73362C88.2039 7.73504 88.1748 7.73433 88.1445 7.73151L88.1455 7.7278ZM84.4664 7.06821L84.9862 2.8269L86.4981 3.01165L86.433 3.52196L85.6945 3.4325L85.6194 4.04868L86.3356 4.13815L86.279 4.62622L85.558 4.53782L85.3028 6.63254L86.0492 6.72253L85.9846 7.2519L84.4664 7.06821ZM79.2685 7.16349C79.1485 7.16206 79.0309 7.13018 78.9265 7.07085C78.8349 7.00992 78.7664 6.91983 78.7323 6.81517C78.6822 6.66284 78.651 6.50498 78.6391 6.34509L78.5555 5.5018L79.314 5.42716L79.3956 6.27098C79.3991 6.33212 79.4078 6.39285 79.4215 6.45255C79.4294 6.49084 79.4477 6.5262 79.4744 6.55472C79.5033 6.57874 79.5391 6.59268 79.5766 6.59442C79.634 6.59984 79.6918 6.59984 79.7492 6.59442C79.8455 6.59687 79.9395 6.56455 80.0139 6.50337C80.057 6.41267 80.0679 6.30993 80.0446 6.21222L79.981 5.57115C79.9761 5.5117 79.9672 5.45264 79.9546 5.39434C79.9441 5.34877 79.9203 5.30733 79.8863 5.27523C79.8463 5.23696 79.7984 5.20787 79.746 5.19C79.6862 5.16406 79.6031 5.13707 79.5004 5.1016C79.2569 5.02784 79.0654 4.9629 78.926 4.90679C78.8112 4.86514 78.7039 4.80506 78.6084 4.72892C78.5381 4.67166 78.486 4.59513 78.4586 4.5087C78.4282 4.409 78.4092 4.30618 78.4019 4.2022L78.3601 3.793C78.3405 3.63479 78.3405 3.47477 78.3601 3.31656C78.3719 3.2066 78.421 3.10401 78.4993 3.02594C78.5907 2.94582 78.7015 2.89106 78.8207 2.86713C79.0043 2.82669 79.1906 2.79909 79.3781 2.78455C79.5616 2.76386 79.7462 2.7552 79.9308 2.75861C80.0514 2.75865 80.1697 2.7918 80.2727 2.85442C80.3626 2.91695 80.4291 3.00766 80.4617 3.11223C80.5102 3.26475 80.5398 3.42261 80.5501 3.58231L80.6031 4.11168L79.8466 4.18314L79.7937 3.65695C79.7885 3.59483 79.7793 3.53311 79.7661 3.4722C79.7596 3.43407 79.741 3.39903 79.7132 3.37215C79.6821 3.34983 79.6455 3.33663 79.6073 3.33403C79.5486 3.32977 79.4896 3.33083 79.431 3.33721C79.3706 3.3427 79.3107 3.35332 79.2521 3.36897C79.216 3.37684 79.1836 3.3966 79.16 3.42508C79.1379 3.458 79.126 3.49663 79.1256 3.53625C79.1248 3.59724 79.1276 3.65823 79.1341 3.71888L79.1727 4.13973C79.177 4.18482 79.1866 4.22923 79.2013 4.27208C79.2132 4.30879 79.2361 4.34095 79.2669 4.36419C79.3081 4.39569 79.3541 4.42052 79.403 4.43777C79.482 4.46822 79.5626 4.49454 79.6444 4.51664C79.8868 4.59234 80.0811 4.65746 80.2224 4.71251C80.3393 4.75328 80.4485 4.81341 80.5454 4.89038C80.6158 4.94958 80.6683 5.02734 80.6968 5.11483C80.7278 5.22568 80.7477 5.33936 80.756 5.45416L80.8233 6.1381C80.8404 6.29645 80.8404 6.45619 80.8233 6.61454C80.8116 6.72364 80.7626 6.82536 80.6846 6.90251C80.591 6.98276 80.4783 7.03746 80.3574 7.06133C80.1724 7.10106 79.9849 7.12864 79.7963 7.14391C79.6463 7.16008 79.4956 7.16856 79.3447 7.16932L79.2685 7.16349ZM81.5977 6.95598L81.6803 2.68555L82.792 2.7062C82.9796 2.70733 83.1669 2.72112 83.3526 2.74749C83.475 2.76077 83.592 2.80464 83.693 2.87507C83.7762 2.94226 83.8344 3.03549 83.8582 3.13975C83.8857 3.29094 83.8974 3.44458 83.8931 3.59819L83.874 4.51294C83.8768 4.66707 83.859 4.82088 83.8211 4.97031C83.7924 5.07464 83.7296 5.16634 83.6427 5.23076C83.54 5.29735 83.4218 5.33636 83.2997 5.34405C83.1149 5.3615 82.9293 5.36716 82.7438 5.36099L82.4087 5.35305L82.3791 6.97027L81.5977 6.95598ZM82.4177 4.85227L82.7486 4.85915C82.806 4.86106 82.8634 4.85751 82.9201 4.84856C82.9586 4.84257 82.9944 4.82504 83.0228 4.79827C83.0479 4.76892 83.0649 4.73351 83.072 4.69557C83.0834 4.63715 83.0889 4.57774 83.0884 4.51823L83.1059 3.58284C83.1081 3.52736 83.1061 3.4718 83.1001 3.41661C83.0969 3.37935 83.0825 3.34393 83.0588 3.31498C83.0313 3.2885 82.9971 3.27018 82.9598 3.26204C82.9012 3.25106 82.8416 3.24557 82.7819 3.24563L82.4479 3.24033L82.4177 4.85227Z" fill="#BEBEBE"/>
</g>
</g>
<defs>
<clipPath id="clip0_318_270">
<rect width="162.995" height="64.0543" fill="white" transform="translate(0.714844 0.472839)"/>
</clipPath>
<clipPath id="clip1_318_270">
<rect width="62.995" height="64.0543" fill="white" transform="translate(50.7148 0.472839)"/>
</clipPath>
</defs>
</svg>
