<svg width="63" height="64" viewBox="0 0 63 64" fill="none" xmlns="http://www.w3.org/2000/svg">
<g clip-path="url(#clip0_84_260)">
<path d="M42.9229 36.1052C39.8678 34.9993 35.0742 34.4883 31.4685 34.4883C27.1711 34.4883 22.7662 35.123 20.0438 36.0952L16.553 24.6858L21.7253 27.624C21.4108 28.3672 21.3191 29.1858 21.4612 29.9802C21.6033 30.7746 21.9732 31.5105 22.5259 32.0986C23.0786 32.6866 23.7902 33.1014 24.5743 33.2925C25.3583 33.4836 26.181 33.4428 26.9423 33.1749C27.7036 32.9071 28.3706 32.4238 28.8623 31.7839C29.354 31.144 29.6492 30.375 29.7119 29.5704C29.7746 28.7659 29.6022 27.9604 29.2156 27.252C28.8291 26.5436 28.245 25.9628 27.5344 25.5802L31.4786 16.559L35.3868 25.6077C34.6445 25.9932 34.0316 26.5879 33.624 27.3182C33.2164 28.0485 33.0319 28.8824 33.0936 29.7165C33.1552 30.5506 33.4601 31.3483 33.9706 32.0108C34.4811 32.6733 35.1748 33.1715 35.9656 33.4436C36.7565 33.7158 37.6098 33.75 38.4199 33.542C39.23 33.3339 39.9613 32.8928 40.5232 32.2733C41.085 31.6537 41.4528 30.883 41.581 30.0565C41.7091 29.23 41.592 28.384 41.2441 27.6235L46.4164 24.6874L42.9229 36.1052ZM48.6744 21.8773C48.6103 21.8269 48.5311 21.7995 48.4496 21.7995C48.3887 21.8 48.3289 21.8163 48.2761 21.8466L39.4003 26.8867C39.3542 26.9129 39.3143 26.9488 39.2835 26.9919C39.2526 27.035 39.2314 27.0843 39.2215 27.1363C39.2147 27.1883 39.2188 27.2411 39.2334 27.2915C39.2481 27.3418 39.273 27.3886 39.3066 27.4288C39.7431 27.9387 40.0092 28.5723 40.0677 29.2409C40.0711 29.7617 39.9198 30.2718 39.6329 30.7065C39.346 31.1413 38.9366 31.481 38.4564 31.6828C37.9762 31.8845 37.447 31.9392 36.9357 31.8398C36.4244 31.7405 35.9542 31.4916 35.5845 31.1247C35.2149 30.7578 34.9624 30.2894 34.8593 29.7789C34.7561 29.2683 34.8068 28.7387 35.005 28.257C35.2032 27.7754 35.5399 27.3634 35.9724 27.0733C36.405 26.7832 36.9139 26.628 37.4348 26.6275C37.439 26.6275 37.4279 26.5365 37.4644 26.5217C37.4671 26.5195 37.4694 26.5168 37.4713 26.5138C37.4724 26.5123 37.4729 26.5106 37.4729 26.5088C37.4729 26.5069 37.4724 26.5052 37.4713 26.5037L31.8118 13.3997C31.7844 13.3362 31.7387 13.2822 31.6807 13.2445C31.6226 13.2069 31.5547 13.1873 31.4855 13.1881C31.4163 13.1879 31.3485 13.2078 31.2904 13.2454C31.2323 13.2829 31.1863 13.3365 31.1581 13.3997L25.4283 26.5037C25.4223 26.5175 25.4202 26.5327 25.4221 26.5476C25.4241 26.5625 25.43 26.5766 25.4394 26.5884C25.4467 26.6008 25.4573 26.6111 25.4699 26.6182C25.4826 26.6252 25.4968 26.6288 25.5113 26.6286H25.514C25.5199 26.628 25.526 26.628 25.5319 26.6286C26.048 26.6322 26.5515 26.7886 26.9788 27.078C27.4061 27.3673 27.7382 27.7768 27.9332 28.2546C28.1281 28.7325 28.1772 29.2573 28.0743 29.7631C27.9714 30.2688 27.7211 30.7327 27.3548 31.0964C26.9886 31.46 26.5229 31.7071 26.0165 31.8064C25.5101 31.9058 24.9855 31.8529 24.5091 31.6546C24.0326 31.4563 23.6256 31.1213 23.3392 30.6919C23.0529 30.2626 22.9 29.758 22.9 29.242C22.9584 28.5729 23.2254 27.9391 23.6633 27.4299C23.6971 27.3898 23.7221 27.343 23.7365 27.2926C23.7509 27.2422 23.7544 27.1893 23.7468 27.1374C23.7377 27.0853 23.7172 27.0358 23.6866 26.9926C23.6561 26.9495 23.6163 26.9136 23.5702 26.8877L14.6965 21.8434C14.634 21.8079 14.5624 21.7919 14.4908 21.7973C14.4192 21.8028 14.3508 21.8295 14.2945 21.8741C14.2395 21.9184 14.199 21.9781 14.1781 22.0455C14.1571 22.113 14.1568 22.1851 14.1771 22.2528L18.9421 37.8242C18.9573 37.8744 18.9835 37.9206 19.0188 37.9593C19.0541 37.998 19.0977 38.0283 19.1463 38.048C19.1904 38.0668 19.2379 38.0765 19.2859 38.0765C19.3439 38.0772 19.401 38.0621 19.4509 38.0326C21.6724 36.8526 26.7802 36.0375 31.4685 36.0375C36.1691 36.0375 41.3028 36.86 43.511 38.0506C43.5631 38.0792 43.6214 38.0943 43.6808 38.0945C43.7275 38.0938 43.7737 38.0848 43.8173 38.0681C43.8663 38.0481 43.9101 38.0172 43.9455 37.9778C43.9808 37.9384 44.0068 37.8915 44.0214 37.8406L48.7928 22.2533C48.8131 22.1856 48.8126 22.1133 48.7915 22.0459C48.7704 21.9784 48.7296 21.9188 48.6744 21.8746" fill="#BEBEBE"/>
<path d="M43.2401 39.7103C40.623 38.359 35.1111 37.949 31.4695 37.949C27.8114 37.949 22.271 38.3632 19.6639 39.7262C19.5926 39.7636 19.5363 39.8243 19.5042 39.8982C19.4722 39.9721 19.4664 40.0548 19.4878 40.1324L19.6883 40.8555C19.7034 40.9067 19.7299 40.954 19.7656 40.9937C19.8014 41.0334 19.8457 41.0646 19.8951 41.085C19.9448 41.1056 19.9985 41.1149 20.0523 41.1122C20.1061 41.1096 20.1586 41.095 20.2061 41.0697C21.5522 40.3329 25.4805 39.4131 31.4695 39.4131C37.4214 39.4131 41.3365 40.3223 42.7048 41.057C42.752 41.082 42.8042 41.0962 42.8575 41.0985C42.9109 41.1007 42.9641 41.091 43.0132 41.07C43.0623 41.049 43.1061 41.0172 43.1413 40.9771C43.1766 40.937 43.2023 40.8894 43.2168 40.838L43.4178 40.1197C43.4405 40.0415 43.4351 39.9579 43.4027 39.8832C43.3702 39.8086 43.3127 39.7471 43.2401 39.7103ZM26.1691 42.3994H24.6882V43.1367H25.3001V46.4816H24.5215V47.1829H26.9091V46.4816H26.1686L26.1691 42.3994ZM29.6299 45.7739C29.6299 46.2298 29.5093 46.4885 29.0634 46.4885C28.6175 46.4885 28.4953 46.2298 28.4953 45.7739V45.5279C28.4953 45.0757 28.6138 44.8462 29.0634 44.8462C29.513 44.8462 29.6299 45.0868 29.6299 45.5279V45.7739ZM29.0687 43.1425C29.1354 43.1357 29.2027 43.1435 29.2661 43.1653C29.3295 43.1872 29.3873 43.2227 29.4355 43.2692C29.4838 43.3157 29.5213 43.3722 29.5454 43.4348C29.5696 43.4973 29.5798 43.5643 29.5754 43.6312C29.5846 43.7642 29.5411 43.8954 29.4543 43.9964C29.3675 44.0975 29.2443 44.1603 29.1115 44.1713H29.0682C28.9989 44.1711 28.9304 44.1568 28.8669 44.1291C28.8034 44.1015 28.7462 44.0611 28.6989 44.0105C28.6517 43.9599 28.6152 43.9001 28.592 43.8349C28.5687 43.7697 28.559 43.7003 28.5636 43.6312C28.559 43.5645 28.569 43.4976 28.593 43.4351C28.617 43.3727 28.6543 43.3162 28.7023 43.2697C28.7504 43.2231 28.808 43.1876 28.8712 43.1657C28.9344 43.1437 29.0021 43.1358 29.0687 43.1425ZM30.0202 44.5124C30.1495 44.401 30.2532 44.263 30.3244 44.1078C30.3955 43.9526 30.4323 43.7839 30.4322 43.6133C30.4322 42.9383 30.034 42.3846 29.0666 42.3846C28.0992 42.3846 27.7004 42.9383 27.7004 43.6133C27.6958 43.7867 27.7327 43.9587 27.8078 44.115C27.883 44.2714 27.9943 44.4076 28.1325 44.5124C27.9629 44.6074 27.8251 44.7503 27.7364 44.9232C27.6477 45.0962 27.612 45.2914 27.6337 45.4846V45.8178C27.6337 46.8042 28.0939 47.2422 29.0618 47.2422C30.0297 47.2422 30.4899 46.8042 30.4899 45.8178V45.4846C30.5012 45.2959 30.464 45.1075 30.3817 44.9373C30.2995 44.7671 30.175 44.6208 30.0202 44.5124ZM33.4212 45.7739C33.4212 46.2298 33.3022 46.4885 32.8536 46.4885C32.4051 46.4885 32.2882 46.2298 32.2882 45.7739V45.5279C32.2882 45.0757 32.4056 44.8462 32.8536 44.8462C33.3016 44.8462 33.4212 45.0868 33.4212 45.5279V45.7739ZM32.8573 43.1425C32.924 43.1356 32.9914 43.1433 33.0548 43.1651C33.1182 43.187 33.176 43.2224 33.2242 43.269C33.2725 43.3156 33.3099 43.3721 33.334 43.4347C33.358 43.4973 33.3681 43.5644 33.3635 43.6312C33.3731 43.7637 33.3301 43.8946 33.2439 43.9957C33.1577 44.0967 33.0352 44.1598 32.9028 44.1713H32.8573C32.7883 44.1709 32.7201 44.1564 32.6569 44.1287C32.5936 44.1009 32.5368 44.0604 32.4898 44.0098C32.4429 43.9592 32.4068 43.8995 32.3839 43.8344C32.3609 43.7692 32.3516 43.7001 32.3565 43.6312C32.3516 43.5648 32.3613 43.498 32.3849 43.4357C32.4086 43.3734 32.4455 43.3169 32.4932 43.2704C32.541 43.2238 32.5983 43.1883 32.6612 43.1662C32.724 43.1441 32.791 43.136 32.8573 43.1425ZM33.8131 44.5124C33.9415 44.4004 34.0445 44.2622 34.1152 44.1071C34.1859 43.9521 34.2227 43.7837 34.223 43.6133C34.223 42.9383 33.8242 42.3846 32.8573 42.3846C31.8905 42.3846 31.4943 42.9383 31.4943 43.6133C31.4902 43.7865 31.5272 43.9582 31.6021 44.1145C31.677 44.2708 31.7878 44.4071 31.9254 44.5124C31.7563 44.6079 31.6191 44.7509 31.5307 44.9238C31.4423 45.0966 31.4066 45.2916 31.4282 45.4846V45.8178C31.4282 46.8042 31.8868 47.2422 32.8536 47.2422C33.8205 47.2422 34.2817 46.8042 34.2817 45.8178V45.4846C34.2929 45.2963 34.256 45.1082 34.1744 44.9381C34.0927 44.768 33.9691 44.6215 33.8152 44.5124M37.2691 44.5801C37.2691 45.0133 37.1009 45.1265 36.7211 45.1265C36.3414 45.1265 36.1732 45.0133 36.1732 44.5801V43.774C36.1732 43.2917 36.3414 43.1674 36.7211 43.1674C37.1009 43.1674 37.2691 43.2917 37.2691 43.774V44.5801ZM36.7211 42.3587C35.7056 42.3587 35.3057 42.759 35.3057 43.7751V44.5812C35.281 44.7549 35.2961 44.932 35.35 45.0991C35.4038 45.2661 35.4951 45.4187 35.6167 45.5452C35.7383 45.6718 35.8872 45.7689 36.052 45.8293C36.2168 45.8898 36.3931 45.9119 36.5677 45.894C36.6481 45.894 36.7851 45.894 36.8708 45.8881C36.5739 46.3912 36.1505 46.8077 35.6426 47.0962L35.6691 47.1835H36.7037C37.1362 46.8989 37.4929 46.5131 37.7428 46.0595C37.9926 45.606 38.1281 45.0984 38.1376 44.5807V43.7746C38.1376 42.7585 37.7446 42.3581 36.7206 42.3581M22.6888 43.9883C22.574 43.9893 22.462 44.0243 22.3671 44.0889C22.2721 44.1534 22.1983 44.2447 22.1551 44.3511C22.1119 44.4575 22.1011 44.5743 22.1241 44.6868C22.1472 44.7993 22.203 44.9025 22.2846 44.9833C22.3662 45.0642 22.4698 45.119 22.5826 45.1411C22.6953 45.1631 22.812 45.1513 22.918 45.1071C23.024 45.0629 23.1145 44.9883 23.1782 44.8928C23.2419 44.7972 23.2759 44.6849 23.2759 44.5701C23.2756 44.4933 23.2601 44.4174 23.2304 44.3466C23.2007 44.2758 23.1574 44.2116 23.1029 44.1576C23.0484 44.1035 22.9837 44.0608 22.9127 44.0317C22.8417 44.0027 22.7656 43.9879 22.6888 43.9883ZM39.9735 43.9883C39.8586 43.9892 39.7466 44.0241 39.6515 44.0886C39.5565 44.1531 39.4826 44.2443 39.4393 44.3507C39.396 44.4571 39.3852 44.5739 39.4082 44.6865C39.4312 44.799 39.4869 44.9022 39.5685 44.9831C39.65 45.064 39.7537 45.119 39.8664 45.141C39.9792 45.1631 40.0959 45.1513 40.2019 45.1071C40.308 45.063 40.3986 44.9884 40.4623 44.8928C40.526 44.7972 40.56 44.6849 40.56 44.5701C40.56 44.4933 40.5448 44.4172 40.5153 44.3463C40.4858 44.2754 40.4425 44.2111 40.3879 44.157C40.3334 44.1029 40.2687 44.0601 40.1976 44.0312C40.1264 44.0022 40.0503 43.9876 39.9735 43.9883Z" fill="#BEBEBE"/>
<path d="M31.4741 50.9632C27.416 50.9369 23.4565 49.7096 20.095 47.4361C16.7334 45.1625 14.1204 41.9444 12.5854 38.1877C11.0504 34.431 10.6622 30.3038 11.4697 26.3268C12.2773 22.3497 14.2444 18.7008 17.123 15.8403C20.0016 12.9797 23.6627 11.0356 27.6448 10.2531C31.6269 9.47056 35.7515 9.8847 39.4985 11.4433C43.2455 13.0018 46.447 15.6351 48.6994 19.0108C50.9519 22.3866 52.1542 26.3537 52.155 30.4119C52.1302 35.8771 49.9392 41.1094 46.0624 44.9615C42.1855 48.8136 36.9393 50.9712 31.4741 50.961M31.4741 9.27728C27.2999 9.30476 23.2272 10.5677 19.7698 12.9068C16.3124 15.2459 13.625 18.5564 12.0467 22.4209C10.4683 26.2853 10.0696 30.5306 10.9008 34.6213C11.7321 38.7121 13.7561 42.4651 16.7175 45.407C19.679 48.349 23.4453 50.3481 27.5414 51.1523C31.6376 51.9565 35.8801 51.5297 39.7341 49.9258C43.588 48.322 46.8807 45.6128 49.1969 42.14C51.5131 38.6672 52.7491 34.5863 52.7489 30.4119C52.7223 24.7908 50.4678 19.4096 46.4797 15.4483C42.4915 11.4869 37.0953 9.26866 31.4741 9.27993" fill="#BEBEBE"/>
<path d="M61.4606 43.6559L61.3263 43.9526C58.6888 49.6496 54.4764 54.473 49.1864 57.8533C43.8963 61.2337 37.7495 63.0299 31.4716 63.0299C25.1937 63.0299 19.0469 61.2337 13.7569 57.8533C8.46681 54.473 4.25438 49.6496 1.61691 43.9526L1.47939 43.6569L10.552 39.8074L10.6816 40.0835C12.5484 44.0165 15.4926 47.3391 19.1723 49.6657C22.852 51.9922 27.1162 53.2272 31.4698 53.2272C35.8233 53.2272 40.0875 51.9922 43.7672 49.6657C47.4469 47.3391 50.3911 44.0165 52.2579 40.0835L52.3891 39.8074L52.551 39.8762L61.4606 43.6559ZM1.34029 38.208L9.28415 36.2832L9.36878 36.5773C9.56429 37.2772 9.79555 37.9666 10.0617 38.6427L10.2785 39.2209L9.00383 38.1313L8.80019 39.7477L7.37528 38.6237L7.14996 40.4649L5.61609 39.041L5.28339 41.1382L3.35653 39.5096L3.21055 42.1014L1.34029 38.208ZM10.4229 9.50711C16.0229 3.95947 23.5868 0.847212 31.4695 0.847212C39.3522 0.847212 46.916 3.95947 52.5161 9.50711C56.0291 12.9888 58.6087 17.2992 60.0168 22.0406C61.425 26.782 61.6163 31.8017 60.5731 36.6365L60.5054 36.9539L60.1881 36.8777L53.8828 35.3491L53.9479 35.0514C54.6385 31.713 54.5769 28.2627 53.7676 24.9511C52.9583 21.6395 51.4215 18.5497 49.2689 15.9062C47.1163 13.2627 44.402 11.1318 41.323 9.66835C38.244 8.20489 34.8778 7.44558 31.4687 7.44558C28.0596 7.44558 24.6934 8.20489 21.6144 9.66835C18.5354 11.1318 15.8211 13.2627 13.6685 15.9062C11.5159 18.5497 9.97912 21.6395 9.16979 24.9511C8.36046 28.2627 8.29889 31.713 8.98955 35.0514L9.04984 35.3491L2.43833 36.9555L2.36957 36.6381C1.32427 31.8034 1.51417 26.7832 2.92173 22.0413C4.32929 17.2993 6.90912 12.9885 10.4229 9.50711ZM52.3135 38.3756C52.1202 38.8777 51.9067 39.3718 51.6735 39.8566C49.8523 43.6708 46.9886 46.8914 43.4136 49.1461C39.8385 51.4008 35.6982 52.5973 31.4716 52.5973C27.245 52.5973 23.1047 51.4008 19.5297 49.1461C15.9546 46.8914 13.0909 43.6708 11.2697 39.8566C11.0388 39.371 10.826 38.877 10.6318 38.3756C9.64548 35.8356 9.14144 33.1339 9.14558 30.409C9.19522 24.5203 11.5694 18.8896 15.751 14.743C19.9327 10.5965 25.5832 8.26989 31.4721 8.26989C37.3611 8.26989 43.0116 10.5965 47.1933 14.743C51.3749 18.8896 53.7491 24.5203 53.7987 30.409C53.8008 33.1336 53.2975 35.8349 52.3135 38.3756ZM61.6035 38.208L59.7559 42.0448L59.6131 39.5059L57.6847 41.1329L57.3525 39.0357L55.826 40.4532L55.8186 40.4506L55.5944 38.6184L54.17 39.7424L53.9664 38.1265L52.7366 39.1743H52.7319L52.9344 38.6454C53.1873 37.916 53.3756 37.2702 53.5691 36.5778L53.6517 36.2837L61.6035 38.208ZM62.9432 37.5452L61.3353 37.1559L61.4014 36.8545C61.8582 34.7367 62.0887 32.5765 62.089 30.4101C62.0981 26.4096 61.3095 22.4474 59.7693 18.7552C58.2292 15.063 55.9683 11.715 53.119 8.90678C47.3581 3.20145 39.578 0.000854492 31.47 0.000854492C23.3621 0.000854492 15.5819 3.20145 9.82101 8.90678C6.97201 11.7155 4.7115 15.064 3.17162 18.7565C1.63173 22.449 0.843371 26.4115 0.852621 30.4122C0.853707 32.5787 1.08527 34.739 1.54339 36.8566L1.60792 37.1581L0 37.5473L2.25268 42.2881L0.175602 43.1687C0.253882 43.3454 0.379765 43.6395 0.667499 44.2921L0.68654 44.336C3.4025 50.2144 7.74481 55.1921 13.2001 58.6808C18.6554 62.1695 24.9955 64.0232 31.4709 64.0228C37.9464 64.0224 44.2863 62.1679 49.7411 58.6786C55.196 55.1893 59.5377 50.211 62.253 44.3323L62.3461 44.1356C62.4688 43.851 62.647 43.439 62.7602 43.1692L60.6852 42.2886L62.9432 37.5452Z" fill="#BEBEBE"/>
<path d="M6.78977 27.3838C6.73588 27.8136 6.54869 28.2158 6.25451 28.5337C5.88568 28.8985 5.61057 29.3471 5.45266 29.8412C5.38856 30.0358 5.34928 30.2377 5.33577 30.4421C5.31446 30.6719 5.32711 30.9035 5.37332 31.1297C5.599 30.7637 5.89532 30.4463 6.24498 30.1961C6.5232 30.005 6.75581 29.7549 6.92624 29.4636C6.96741 29.3733 6.99572 29.2777 7.01033 29.1795C7.05754 28.9457 7.0918 28.7094 7.11294 28.4718C7.2688 26.5125 7.66366 24.5796 8.28874 22.7161L7.89205 22.5442C7.36346 24.1166 6.99435 25.7381 6.7903 27.3844M4.01823 32.919C4.4193 33.1089 4.78354 33.3684 5.09405 33.6854C5.10972 33.4432 5.09354 33.1999 5.04592 32.9618C5.01348 32.7576 4.95885 32.5576 4.88301 32.3652C4.66439 31.8706 4.27997 31.4679 3.79608 31.2265C3.36484 30.9864 2.99006 30.6567 2.69698 30.2596C2.66375 30.8727 2.7572 31.4862 2.97149 32.0616C3.22284 32.4491 3.58872 32.7491 4.01823 32.919ZM5.15276 29.0626C5.63414 28.433 5.94395 27.6893 6.05193 26.9041C6.14855 26.2569 6.10891 25.5966 5.93557 24.9656L5.92605 24.9344L5.93398 24.8995C6.14593 23.9347 6.4124 22.9827 6.73212 22.0481L6.37034 21.8894C6.04303 22.8429 5.77002 23.8141 5.55263 24.7985L5.5394 24.8392L5.52354 24.8567C5.07918 25.3874 4.79356 26.0327 4.69948 26.7185C4.57471 27.5278 4.73514 28.3554 5.15329 29.0595" fill="#BEBEBE"/>
<path d="M4.09608 30.2987C4.40145 30.5394 4.6689 30.8247 4.88946 31.145C4.94783 30.7029 4.91908 30.2537 4.80483 29.8227C4.69304 29.3619 4.50189 28.9241 4.23995 28.5289L4.23148 28.5152C4.19076 28.4475 4.14844 28.3819 4.10613 28.3115C3.87581 27.92 3.78048 27.4636 3.83479 27.0125C4.07312 25.0896 4.51295 23.1972 5.14705 21.3663L4.75088 21.1954C3.97174 23.4233 3.47993 25.7414 3.28736 28.0936C3.28736 28.1185 3.28736 28.1566 3.2826 28.2031V28.2338C3.23964 28.6036 3.24962 28.9776 3.31222 29.3445C3.48255 29.7274 3.75412 30.0566 4.09767 30.2966M6.8909 33.6584C6.4482 33.9449 6.12007 34.3777 5.9637 34.8813L7.63668 34.4777C7.67223 34.4172 7.6981 34.3515 7.71337 34.2831C7.79652 33.7942 7.8017 33.2952 7.72871 32.8047C7.49539 33.1309 7.21274 33.4187 6.8909 33.6579M6.58518 32.5657C6.90778 32.3739 7.17385 32.1002 7.35635 31.7723C7.49665 31.2916 7.56107 30.7919 7.54729 30.2913C7.27688 30.5903 6.96179 30.8456 6.61322 31.0482C6.3512 31.1727 6.11748 31.3496 5.92644 31.5679C5.73541 31.7862 5.59113 32.0414 5.50248 32.3176C5.41121 32.7503 5.42939 33.199 5.55537 33.623C5.81256 33.1949 6.16473 32.8317 6.58465 32.5614M4.113 34.1646C3.65865 33.9793 3.24845 33.7003 2.90918 33.3458C2.95113 33.9521 3.11654 34.5433 3.39526 35.0833C3.48109 35.2202 3.59751 35.3354 3.73535 35.4197L5.26923 35.0495C4.98461 34.6413 4.58048 34.3314 4.11248 34.1625M57.5727 29.8412C57.4154 29.3469 57.1404 28.8982 56.7713 28.5337C56.4751 28.217 56.2873 27.8143 56.235 27.3838C56.0303 25.7377 55.6614 24.1163 55.1338 22.5437L54.7376 22.7156C55.3613 24.5794 55.7563 26.5122 55.914 28.4713C55.933 28.709 55.9667 28.9454 56.015 29.179C56.0302 29.2767 56.0582 29.372 56.098 29.4625C56.2702 29.7547 56.505 30.0051 56.7856 30.1956C57.1336 30.4463 57.4282 30.7636 57.6525 31.1291C57.7009 30.9033 57.7143 30.6714 57.6922 30.4415C57.6778 30.2371 57.6382 30.0353 57.5742 29.8407M58.1418 32.3657C58.0695 32.5589 58.0163 32.7588 57.9831 32.9623C57.9345 33.2003 57.9167 33.4434 57.9302 33.6859C58.2413 33.3686 58.6063 33.1091 59.0082 32.9195C59.4376 32.7512 59.8028 32.4515 60.0517 32.0632C60.2687 31.4884 60.3627 30.8745 60.3278 30.2611C60.0356 30.6589 59.6606 30.9886 59.2287 31.2275C58.7438 31.4679 58.3587 31.8709 58.1407 32.3663M56.2937 22.0475C56.6139 22.9821 56.8809 23.9341 57.0935 24.8989L57.1009 24.9349L57.0935 24.9661C56.917 25.5966 56.8768 26.2574 56.9755 26.9046C57.0829 27.6898 57.3927 28.4335 57.8747 29.0626C58.2949 28.3593 58.4551 27.5309 58.3274 26.7216C58.2342 26.0357 57.9487 25.3902 57.5039 24.8598L57.488 24.8429L57.4775 24.8016C57.26 23.8171 56.9864 22.8458 56.6582 21.8926L56.2937 22.0475Z" fill="#BEBEBE"/>
<path d="M58.919 28.3137C58.8778 28.3846 58.8365 28.4496 58.7942 28.5179L58.7889 28.5311C58.5228 28.924 58.3313 29.3626 58.224 29.8248C58.1664 30.0249 58.1309 30.2306 58.1183 30.4384C58.0967 30.6742 58.1029 30.9117 58.1368 31.1461C58.3573 30.8258 58.6248 30.5405 58.9302 30.2998C59.2734 30.0603 59.5441 29.7309 59.7124 29.3478C59.7766 28.981 59.7878 28.607 59.7458 28.237L59.7431 28.2063C59.7378 28.1603 59.7362 28.1217 59.7341 28.0974C59.544 25.7452 59.0543 23.4268 58.2769 21.1987L57.8787 21.3695C58.5143 23.1999 58.9538 25.0926 59.1899 27.0157C59.2458 27.4669 59.1504 27.9238 58.9185 28.3148M56.1327 33.6585C55.8117 33.4186 55.5295 33.1309 55.2959 32.8053C55.2225 33.2957 55.2273 33.7947 55.3102 34.2836C55.3252 34.3524 55.3514 34.4182 55.388 34.4783L57.0604 34.8819C56.9048 34.3777 56.5763 33.9441 56.1327 33.6585ZM56.4093 31.0519C56.0627 30.8477 55.7487 30.5926 55.4779 30.295C55.4659 30.7954 55.5298 31.2948 55.6672 31.776C55.8499 32.1031 56.1162 32.3756 56.4389 32.5657C56.8595 32.8361 57.2125 33.1992 57.4709 33.6273C57.5425 33.4001 57.58 33.1636 57.5819 32.9254C57.5889 32.7224 57.5688 32.5195 57.5222 32.3219C57.4336 32.0451 57.2889 31.7895 57.0971 31.5711C56.9054 31.3527 56.6707 31.1762 56.4077 31.0525M57.7575 35.0516L59.2914 35.4192C59.4291 35.3354 59.545 35.2204 59.6299 35.0834C59.9101 34.544 60.0756 33.9524 60.116 33.3459C59.778 33.7012 59.3682 33.9803 58.9138 34.1646C58.4468 34.335 58.0429 34.6446 57.7575 35.0516ZM8.22988 46.3177L7.03822 47.111C6.9715 47.1574 6.90068 47.1976 6.82665 47.2311C6.78135 47.2539 6.73075 47.2642 6.68014 47.2607C6.63202 47.2514 6.5879 47.2276 6.55373 47.1925C6.50389 47.1392 6.45827 47.082 6.41727 47.0217L6.18348 46.6694L8.12304 45.3778L8.37269 45.7507C8.46842 45.8908 8.5028 45.9977 8.47847 46.0712C8.42297 46.1759 8.33729 46.2616 8.23252 46.3171M9.83939 44.2369L10.0711 44.5876C10.1129 44.6492 10.1484 44.7149 10.1768 44.7838C10.1983 44.8301 10.2035 44.8823 10.1916 44.9319C10.1736 44.9796 10.1435 45.0219 10.1044 45.0546C10.0487 45.1036 9.98968 45.1487 9.92772 45.1895L9.46914 45.4915C9.38745 45.5595 9.28401 45.596 9.17771 45.5941C9.1063 45.5814 9.02432 45.5084 8.93387 45.3762L8.6874 45.0059L9.83939 44.2369ZM8.96508 46.974C9.03754 46.9002 9.09359 46.8119 9.12957 46.7149C9.15741 46.6351 9.16593 46.5499 9.15443 46.4663C9.13992 46.3795 9.11598 46.2945 9.08303 46.2129L9.10948 46.196C9.15161 46.2486 9.20219 46.2938 9.25916 46.3298C9.32678 46.3734 9.40194 46.4039 9.48078 46.4197C9.57498 46.4355 9.67126 46.4337 9.76481 46.4145C9.89164 46.3866 10.0113 46.3325 10.116 46.2558L10.4815 46.0135C10.6583 45.9003 10.8225 45.7686 10.9713 45.6205C11.0722 45.5179 11.1358 45.3844 11.1516 45.2413C11.1571 45.0849 11.1221 44.9297 11.0501 44.7907C10.9446 44.5755 10.8233 44.3685 10.6872 44.1713L9.90762 43.0034L5.02197 46.2552L5.80319 47.4258C5.93459 47.6244 6.0782 47.8146 6.2332 47.9954C6.33474 48.1166 6.46647 48.209 6.61508 48.263C6.7548 48.304 6.9044 48.295 7.03822 48.2376C7.23411 48.1582 7.42041 48.0569 7.59359 47.9356L8.62446 47.2507C8.74856 47.1717 8.86274 47.0781 8.96455 46.9719M11.1157 48.463L12.2603 47.4152L12.5443 47.7241C12.5958 47.7781 12.6419 47.8371 12.6818 47.9002C12.7086 47.9424 12.7213 47.9921 12.7178 48.0419C12.7096 48.0912 12.6878 48.1372 12.6548 48.1747C12.6051 48.2327 12.5522 48.2878 12.4962 48.3397L11.9672 48.8247C11.8982 48.9052 11.802 48.9575 11.697 48.9718C11.5857 48.9486 11.487 48.8851 11.4198 48.7935L11.1157 48.463ZM11.7202 50.347C11.7729 50.2672 11.8079 50.177 11.8228 50.0825C11.8355 50.0012 11.828 49.918 11.8012 49.8403C11.7726 49.7584 11.7359 49.6795 11.6917 49.6049L11.7123 49.5837C11.7725 49.6261 11.8358 49.664 11.9017 49.6969C11.9739 49.7306 12.0525 49.7487 12.1323 49.7498C12.2245 49.7523 12.3162 49.7353 12.4015 49.7001C12.5193 49.6496 12.6269 49.5779 12.7188 49.4885L13.1716 49.0696C13.3285 48.9327 13.4692 48.7783 13.591 48.6095C13.675 48.4925 13.7178 48.3509 13.7127 48.207C13.697 48.0494 13.6391 47.899 13.545 47.7717C13.4071 47.5767 13.2553 47.392 13.0907 47.2189L12.1386 46.1849L7.81838 50.1518L8.48588 50.878L10.6206 48.921L10.9216 49.2474C11.0379 49.3743 11.0871 49.4753 11.0739 49.552C11.0394 49.6618 10.9708 49.7577 10.8782 49.826L9.05817 51.4984L9.73254 52.2315L11.4552 50.6495C11.5569 50.5608 11.6459 50.4584 11.7197 50.3454M15.5211 51.0087L13.3186 53.7781C13.2703 53.8419 13.2172 53.902 13.16 53.9579C13.1225 53.9981 13.0736 54.0257 13.0198 54.0367C12.9701 54.0463 12.9187 54.0388 12.8738 54.0156C12.8085 53.9816 12.7473 53.9402 12.6913 53.8923C12.6342 53.8479 12.5811 53.7985 12.5327 53.7448C12.5 53.7068 12.4803 53.6593 12.4766 53.6094C12.4755 53.5551 12.49 53.5017 12.5184 53.4555C12.5633 53.3856 12.6119 53.3182 12.6638 53.2534L14.8652 50.485C14.9145 50.4233 14.9675 50.3647 15.0239 50.3094C15.06 50.2705 15.1073 50.2439 15.1593 50.2333C15.209 50.2263 15.2596 50.235 15.3042 50.2581C15.3689 50.2914 15.4295 50.3322 15.4846 50.3798C15.6263 50.4908 15.6961 50.5839 15.7014 50.6606C15.681 50.7922 15.6191 50.9137 15.5248 51.0076M16.6662 51.0838C16.7342 50.9538 16.7555 50.8044 16.7265 50.6606C16.6883 50.5069 16.6081 50.3668 16.4948 50.256C16.3286 50.0857 16.1502 49.9276 15.9611 49.7831C15.7767 49.6327 15.5823 49.4949 15.3793 49.3706C15.2474 49.286 15.0943 49.2403 14.9377 49.2389C14.7914 49.2475 14.6519 49.3032 14.5399 49.3976C14.3746 49.5382 14.2252 49.6966 14.0946 49.8699L11.8927 52.6388C11.7512 52.8072 11.6291 52.991 11.5288 53.1868C11.4599 53.3164 11.4355 53.4651 11.4595 53.6099C11.497 53.7614 11.5757 53.8996 11.6869 54.0092C11.8534 54.1806 12.0322 54.3397 12.2216 54.4853C12.4051 54.6366 12.5995 54.774 12.8035 54.8962C12.9373 54.9832 13.0929 55.0308 13.2525 55.0338C13.3992 55.026 13.5394 54.9702 13.6513 54.8751C13.8172 54.7327 13.9675 54.5731 14.0998 54.399L16.3039 51.6317C16.4427 51.4627 16.5641 51.28 16.6662 51.0864M20.8785 52.9593L18.3682 56.8442L18.3376 56.8284L20.1809 52.5859L19.0701 51.9882L16.4848 55.8324L16.4541 55.815L18.3894 51.6217L17.5177 51.1546L15.2926 56.6136L16.4112 57.2166L19.0331 53.3417L19.0638 53.3592L17.1745 57.626L18.2799 58.2179L21.756 53.4306L20.8785 52.9593ZM23.8283 55.2871L23.0053 57.8592L22.2119 57.6038L23.0354 55.0338C23.0587 54.9563 23.0877 54.8806 23.1222 54.8074C23.1425 54.7585 23.1786 54.7179 23.2248 54.6921C23.2686 54.6695 23.3183 54.661 23.3671 54.6677C23.4361 54.6759 23.5041 54.6908 23.5702 54.7122C23.6394 54.7344 23.7067 54.7626 23.7712 54.7963C23.8149 54.8209 23.8505 54.8576 23.8738 54.9021C23.8915 54.9514 23.8956 55.0045 23.886 55.056C23.8763 55.1365 23.8564 55.2154 23.8267 55.2908M24.4577 54.2451C24.2495 54.1449 24.0342 54.0602 23.8135 53.9918C23.5948 53.919 23.3712 53.8618 23.1444 53.8204C22.9911 53.7871 22.8313 53.7992 22.6848 53.8553C22.55 53.9116 22.4389 54.0129 22.3706 54.142C22.2658 54.3329 22.1817 54.5345 22.1199 54.7434L20.6796 59.2202L21.5963 59.5142L21.9961 58.2707L22.7895 58.5262L22.3902 59.7692L23.3316 60.0717L24.7703 55.5902C24.8386 55.3888 24.8845 55.1806 24.9073 54.9692C24.9221 54.8217 24.8891 54.6734 24.8131 54.5461C24.7242 54.4149 24.6011 54.3105 24.4572 54.2441M27.8343 56.2021L27.7217 56.9109C27.7165 57.0164 27.6731 57.1165 27.5995 57.1923C27.4983 57.2434 27.3816 57.2544 27.2726 57.223L26.8331 57.1553L27.0701 55.6214L27.4847 55.6854C27.5592 55.6955 27.6324 55.7132 27.7032 55.7383C27.7515 55.7538 27.793 55.7856 27.8206 55.8282C27.8445 55.8732 27.8561 55.9237 27.8544 55.9747C27.8518 56.0498 27.845 56.1247 27.8338 56.199M28.7002 55.3374C28.5882 55.2249 28.4484 55.144 28.295 55.103C28.0667 55.0372 27.8341 54.9868 27.599 54.9523L26.2079 54.7376L25.3087 60.5298L26.2836 60.6826L26.7284 57.8228L27.169 57.8905C27.3382 57.9176 27.441 57.9647 27.4773 58.0317C27.5163 58.1398 27.5224 58.257 27.4948 58.3686L27.1161 60.8112L28.0999 60.9635L28.4611 58.6532C28.4829 58.5203 28.4892 58.3854 28.4796 58.2512C28.4692 58.1565 28.4407 58.0648 28.3955 57.9809C28.3546 57.9086 28.2965 57.8476 28.2263 57.8032C28.1522 57.7575 28.0739 57.7191 27.9925 57.6884L27.9957 57.6583C28.0688 57.6536 28.1414 57.6436 28.2131 57.6281C28.2916 57.6113 28.3655 57.5774 28.4294 57.5287C28.5037 57.4742 28.5652 57.4041 28.6097 57.3235C28.6672 57.2093 28.7051 57.0863 28.7219 56.9596L28.8155 56.3518C28.8537 56.1472 28.867 55.9387 28.8552 55.7309C28.849 55.5854 28.793 55.4464 28.6965 55.3374M34.4062 56.6803L33.4578 56.748L33.3949 55.88L34.3787 55.8139L34.3258 55.1115L32.3587 55.2474L32.7697 61.0957L33.754 61.0259L33.5017 57.452L34.4538 57.3843L34.4062 56.6803ZM37.9547 59.6311C37.9293 59.6745 37.8905 59.7085 37.8442 59.7279C37.7763 59.757 37.7053 59.7783 37.6326 59.7914C37.5607 59.8089 37.4871 59.8177 37.4131 59.8178C37.3629 59.8195 37.3137 59.804 37.2735 59.7739C37.231 59.7421 37.2 59.6974 37.1851 59.6465C37.1593 59.5669 37.1376 59.486 37.1201 59.4042L36.3971 55.9419C36.3802 55.8656 36.3688 55.7882 36.3632 55.7102C36.3571 55.6575 36.3674 55.6041 36.3928 55.5574C36.4176 55.5142 36.4564 55.4808 36.5028 55.4627C36.5704 55.4325 36.6415 55.4108 36.7144 55.3982C36.8298 55.3568 36.9568 55.3615 37.0688 55.4114C37.1583 55.51 37.2125 55.6356 37.2227 55.7684L37.95 59.2334C37.9669 59.3312 37.9785 59.41 37.9838 59.4703C37.9892 59.5247 37.9797 59.5796 37.9563 59.629M38.1991 55.5648C38.1584 55.3506 38.095 55.1413 38.0097 54.9407C37.9541 54.8054 37.8536 54.6933 37.7252 54.6233C37.5811 54.5572 37.4223 54.5301 37.2645 54.5445C37.0262 54.5612 36.7896 54.5966 36.5568 54.6503C36.3236 54.695 36.0938 54.7562 35.8692 54.8333C35.7212 54.8816 35.5892 54.9694 35.4873 55.0872C35.4009 55.2059 35.3547 55.3492 35.3556 55.496C35.3576 55.7135 35.3836 55.9301 35.4334 56.1418L36.158 59.6068C36.1975 59.8219 36.2606 60.0319 36.3463 60.233C36.3992 60.3705 36.4988 60.4849 36.6277 60.5562C36.7689 60.6259 36.927 60.6539 37.0836 60.6371C37.3222 60.6197 37.5591 60.5843 37.7923 60.5314C38.0261 60.4878 38.256 60.4257 38.4799 60.3457C38.631 60.2991 38.7662 60.2114 38.8703 60.0924C38.9604 59.9745 39.0079 59.8297 39.0052 59.6814C39.0038 59.4617 38.9771 59.2429 38.9258 59.0292L38.1991 55.5648ZM41.4149 55.5764C41.3874 55.6452 41.2996 55.7092 41.1505 55.7653L40.7326 55.9239L40.182 54.4736L40.5766 54.3266C40.6449 54.2989 40.7158 54.278 40.7882 54.2642C40.8376 54.2538 40.889 54.2611 40.9336 54.2848C40.9771 54.3094 41.0124 54.3461 41.0352 54.3906C41.0718 54.4574 41.1033 54.5269 41.1293 54.5984L41.3842 55.2697C41.4325 55.3639 41.4436 55.4728 41.4155 55.5748M42.7055 56.0636C42.6499 55.9849 42.579 55.9184 42.4971 55.8679C42.426 55.8262 42.3461 55.8021 42.2638 55.7975C42.1771 55.7938 42.0902 55.7993 42.0047 55.8139L41.9941 55.7859C42.0554 55.7444 42.114 55.6992 42.1697 55.6505C42.2283 55.5978 42.2757 55.534 42.3093 55.4627C42.3442 55.3761 42.3622 55.2837 42.3622 55.1903C42.3573 55.0623 42.3301 54.9361 42.2818 54.8174L42.065 54.2446C41.9949 54.0482 41.903 53.8603 41.791 53.6845C41.7139 53.5623 41.5983 53.4693 41.4625 53.42C41.3095 53.3754 41.1472 53.373 40.9928 53.4131C40.7611 53.4684 40.5336 53.5401 40.3121 53.6279L38.9946 54.1256L41.0748 59.6073L41.9994 59.2582L40.9743 56.5518L41.3906 56.3931C41.5493 56.3317 41.6635 56.3211 41.7291 56.365C41.817 56.4386 41.8804 56.5371 41.9111 56.6475L42.7896 58.9578L43.72 58.6056L42.888 56.4201C42.8441 56.2926 42.7836 56.1715 42.7081 56.0599M44.9122 52.1897L44.5678 51.564L42.403 52.7615L42.7452 53.3846L43.4026 53.0233L45.8933 57.5303L46.7597 57.0542L44.2642 52.5468L44.9122 52.1897ZM50.3743 53.1704L47.5467 49.4177L46.7771 49.9953L49.6063 53.7506C49.6572 53.8157 49.7022 53.8853 49.7407 53.9585C49.7674 54.0033 49.7807 54.0549 49.7788 54.1071C49.7738 54.1556 49.7527 54.201 49.719 54.2361C49.6199 54.3399 49.5045 54.4267 49.3773 54.4932C49.333 54.5143 49.2838 54.5229 49.235 54.5181C49.1829 54.5087 49.1352 54.4827 49.0991 54.444C49.0381 54.3868 48.9826 54.324 48.9335 54.2562L46.1049 50.5035L45.3141 51.097L48.1449 54.847C48.2731 55.0257 48.4207 55.1896 48.585 55.3358C48.6964 55.4329 48.8356 55.4923 48.9827 55.5056C49.1381 55.5072 49.2909 55.466 49.4244 55.3865C49.6276 55.2694 49.8233 55.1398 50.0104 54.9983C50.1961 54.8618 50.3717 54.7123 50.5362 54.5508C50.6512 54.4451 50.7341 54.3091 50.7752 54.1584C50.8041 54.0136 50.7855 53.8634 50.7224 53.73C50.6296 53.5309 50.5135 53.3435 50.3764 53.1719M49.8438 47.1756L52.5582 49.7853L52.5323 49.8075L49.1398 47.9034L48.3835 48.6899L52.6095 52.7557L53.1988 52.1421L50.5637 49.6065L50.5838 49.5806L53.934 51.3821L54.6676 50.6231L50.4399 46.5557L49.8438 47.1756ZM52.3789 45.1588C52.4084 45.0944 52.4438 45.033 52.4847 44.9753C52.5256 44.9163 52.5718 44.8613 52.6228 44.8108C52.6588 44.7758 52.7042 44.7521 52.7534 44.7425C52.8056 44.7393 52.8577 44.7503 52.9042 44.7743C52.9754 44.8101 53.0436 44.8514 53.1083 44.898L55.3298 46.4414L54.8522 47.1259L52.6307 45.5819C52.5651 45.5363 52.502 45.487 52.4419 45.4344C52.4014 45.4011 52.3731 45.3553 52.3615 45.3042C52.353 45.2554 52.359 45.2052 52.3789 45.1598M51.8622 44.5336C51.727 44.7209 51.6054 44.9176 51.4983 45.1223C51.4241 45.2594 51.3887 45.4141 51.3957 45.5698C51.4139 45.7144 51.4789 45.849 51.5808 45.9532C51.7332 46.109 51.9014 46.2485 52.0827 46.3695L55.9497 49.0559L56.4998 48.2694L55.4266 47.5225L55.9026 46.8408L56.9753 47.586L57.538 46.7762L53.6769 44.0909C53.5033 43.9649 53.3164 43.8585 53.1194 43.7735C52.9821 43.7163 52.8298 43.7055 52.6857 43.7429C52.534 43.7868 52.398 43.8733 52.2938 43.992C52.1356 44.16 51.9916 44.3408 51.8632 44.5326M10.1351 19.0449L7.37726 17.035L7.38942 17.0112L10.473 18.4541L10.9681 17.6004L7.56979 14.9341L7.1805 15.6117L9.94729 17.5354L9.93459 17.5597L6.87002 16.1496L6.37284 17.0107L9.10842 18.9946L9.09572 19.0169L6.06977 17.5391L5.68154 18.2113L9.63522 19.9123L10.1351 19.0449ZM9.17771 13.6811C9.20478 13.6325 9.23555 13.5859 9.26974 13.542C9.30451 13.4975 9.3429 13.4559 9.38452 13.4177C9.41257 13.3904 9.44809 13.372 9.4866 13.3648C9.52476 13.3634 9.5626 13.3724 9.59608 13.3907C9.64797 13.4195 9.69734 13.4526 9.74365 13.4896L11.2944 14.7003L10.8904 15.2144L9.34114 14.0032C9.2938 13.9686 9.24891 13.9308 9.2068 13.89C9.1788 13.8629 9.16026 13.8275 9.1539 13.789C9.15238 13.7507 9.16057 13.7127 9.17771 13.6785M8.87305 14.6009L11.5774 16.7129L12.0429 16.12L11.2913 15.5313L11.697 15.014L12.4459 15.6L12.9262 14.9886L10.2229 12.8782C10.1017 12.7811 9.96967 12.6986 9.82934 12.6323C9.72854 12.5852 9.61464 12.5742 9.5067 12.601C9.38828 12.6341 9.28066 12.6978 9.19463 12.7856C9.06518 12.9134 8.94499 13.0502 8.83497 13.195C8.72124 13.3364 8.6175 13.4856 8.52449 13.6414C8.45952 13.7437 8.422 13.861 8.41553 13.9821C8.41755 14.0915 8.45757 14.1967 8.52872 14.2798C8.63009 14.4013 8.7457 14.5102 8.87305 14.6041M12.1153 12.0541L11.314 11.2576L11.5457 11.0206C11.5869 10.979 11.6313 10.9406 11.6784 10.9059C11.7106 10.8824 11.7497 10.8703 11.7895 10.8715C11.8257 10.8752 11.8602 10.8885 11.8895 10.9101C11.9339 10.9431 11.9753 10.9799 12.0133 11.0201L12.3861 11.3903C12.4166 11.414 12.4419 11.4435 12.4608 11.4771C12.4797 11.5107 12.4917 11.5478 12.4962 11.586C12.4797 11.6731 12.4322 11.7511 12.3623 11.8055L12.1153 12.0541ZM13.9618 13.8842L12.4644 12.4006L12.712 12.1515C12.8093 12.0547 12.8849 12.0097 12.9415 12.0171C13.0241 12.0357 13.0978 12.082 13.1504 12.1483L14.4299 13.4177L14.9821 12.8634L13.7746 11.6596C13.7049 11.59 13.6265 11.5297 13.5413 11.4803C13.4799 11.4438 13.411 11.4219 13.3398 11.4163C13.2764 11.4119 13.2129 11.423 13.1547 11.4485C13.0938 11.4778 13.0348 11.5108 12.978 11.5474L12.9611 11.5326C12.9932 11.4849 13.0215 11.4346 13.0457 11.3824C13.0722 11.3278 13.0866 11.2681 13.088 11.2073C13.0896 11.1378 13.0762 11.0687 13.0489 11.0048C13.0101 10.9201 12.9543 10.8443 12.8849 10.7821L12.5676 10.4647C12.4619 10.356 12.3445 10.2593 12.2174 10.1765C12.1249 10.1206 12.0162 10.0978 11.9091 10.1119C11.787 10.1342 11.6726 10.1874 11.5769 10.2664C11.4305 10.3832 11.2915 10.509 11.1606 10.643L10.3799 11.4284L13.4101 14.438L13.9618 13.8842ZM13.855 8.91923L15.0477 12.0896L15.3878 12.5069L16.8434 11.3285L16.5064 10.9127L15.6797 11.5818L14.4034 8.35011L14.1363 8.0227L12.7765 9.12392L13.1049 9.52696L13.855 8.91923ZM17.7378 10.7049L18.3894 10.2791L17.5574 9.01919L16.7053 6.27409L16.0706 6.68982L16.7931 8.52412L16.772 8.53946L15.3894 7.13941L14.7457 7.56254L16.9089 9.4455L17.7378 10.7049ZM20.0386 9.30428L18.7099 6.57187L18.7358 6.56077L20.5088 9.07737L21.1366 8.77377L20.2591 5.84566L20.2835 5.83244L21.6058 8.54475L22.1791 8.26865L20.3099 4.4271L19.3367 4.89942L20.2211 7.66039L20.1962 7.67362L18.5756 5.2702L17.596 5.74623L19.4663 9.58725L20.0386 9.30428ZM23.3523 7.86509L24.0928 7.62019L23.6136 6.19211L23.4961 3.32059L22.7784 3.55914L23.0042 5.51615L22.9778 5.5262L22.0009 3.81514L21.2694 4.06003L22.8741 6.43594L23.3523 7.86509ZM27.6656 3.72733C27.673 3.83121 27.692 3.93393 27.7222 4.03358C27.7494 4.1199 27.8013 4.19639 27.8714 4.25361C27.9669 4.32947 28.0741 4.38948 28.1887 4.43133C28.3298 4.48704 28.5211 4.55192 28.7626 4.62597C28.8652 4.66035 28.9483 4.68838 29.008 4.7143C29.0603 4.73228 29.1081 4.76132 29.1482 4.79946C29.182 4.83165 29.2057 4.87301 29.2164 4.91847C29.2287 4.97658 29.2373 5.03541 29.2423 5.0946L29.3053 5.73512C29.3287 5.83269 29.318 5.93533 29.2751 6.02603C29.2002 6.08799 29.1052 6.12052 29.008 6.11753C28.9508 6.12285 28.8933 6.12285 28.8361 6.11753C28.7987 6.11579 28.7628 6.10186 28.734 6.07786C28.7074 6.04951 28.6891 6.01438 28.6812 5.97631C28.6673 5.91669 28.6586 5.85599 28.6552 5.79489L28.5732 4.95179L27.8153 5.02689L27.8994 5.86947C27.9113 6.02922 27.9426 6.18693 27.9925 6.33915C28.0265 6.44376 28.0949 6.53379 28.1866 6.59462C28.2908 6.65409 28.4084 6.68595 28.5283 6.68718C28.707 6.69076 28.8858 6.68281 29.0636 6.66338C29.252 6.6483 29.4393 6.62091 29.6242 6.58139C29.7449 6.55725 29.8575 6.50263 29.9511 6.42272C30.0294 6.34564 30.0784 6.24372 30.0897 6.13445C30.1067 5.97624 30.1067 5.81664 30.0897 5.65843L30.022 4.97506C30.0137 4.86033 29.9939 4.74674 29.9627 4.63602C29.9344 4.54883 29.8821 4.47132 29.812 4.41229C29.7151 4.33523 29.6058 4.27515 29.4888 4.23457C29.3481 4.18168 29.154 4.11451 28.9118 4.03887C28.83 4.01678 28.7495 3.9903 28.6706 3.95953C28.6215 3.94258 28.5754 3.91794 28.5341 3.88654C28.5034 3.86328 28.4805 3.83116 28.4685 3.79451C28.4538 3.75172 28.4442 3.70733 28.44 3.66228L28.4014 3.23914C28.3949 3.17871 28.3921 3.11796 28.3929 3.05719C28.3932 3.01768 28.405 2.9791 28.4267 2.94612C28.4504 2.91784 28.4828 2.89814 28.5188 2.89005C28.5773 2.87432 28.6371 2.8637 28.6975 2.85832C28.7562 2.85176 28.8153 2.8507 28.8742 2.85514C28.9123 2.85763 28.949 2.87083 28.98 2.89323C29.0078 2.92008 29.0263 2.9551 29.0329 2.99319C29.0461 3.05405 29.0553 3.11571 29.0604 3.17779L29.1133 3.70353L29.8696 3.63213L29.8167 3.10321C29.8068 2.94365 29.7773 2.78591 29.7289 2.63353C29.6964 2.52889 29.63 2.43807 29.5401 2.37541C29.4371 2.31307 29.3189 2.28015 29.1984 2.28021C29.014 2.27654 28.8295 2.28502 28.6462 2.30559C28.4589 2.32005 28.2728 2.34745 28.0893 2.38758C27.9703 2.41159 27.8596 2.46629 27.7682 2.54625C27.69 2.62426 27.6409 2.72676 27.6291 2.83663C27.6097 2.99471 27.6097 3.15458 27.6291 3.31266L27.6656 3.72733ZM31.7071 2.76999L32.0409 2.77528C32.1003 2.7755 32.1596 2.78117 32.218 2.7922C32.2555 2.80024 32.2899 2.81856 32.3175 2.84509C32.3411 2.87402 32.3555 2.90942 32.3587 2.94665C32.3646 3.0018 32.3665 3.0573 32.3646 3.11273L32.3471 4.04733C32.3475 4.10662 32.342 4.1658 32.3307 4.22399C32.3241 4.26291 32.3073 4.2994 32.282 4.32978C32.2537 4.3561 32.2182 4.3734 32.18 4.37949C32.1233 4.38828 32.0659 4.39164 32.0086 4.38954L31.6775 4.3832L31.7071 2.76999ZM31.6664 4.88038L32.0007 4.88832C32.1861 4.89421 32.3718 4.88855 32.5566 4.87139C32.6786 4.86359 32.7966 4.82462 32.8993 4.7582C32.9858 4.69366 33.0484 4.60208 33.077 4.49797C33.1147 4.34864 33.1325 4.19498 33.1299 4.04098L33.1484 3.12701C33.1531 2.97354 33.1416 2.82001 33.114 2.66896C33.0903 2.56479 33.0321 2.47164 32.949 2.4045C32.8481 2.33432 32.7311 2.2905 32.6089 2.27703C32.4233 2.25089 32.2362 2.23711 32.0488 2.23578L30.9381 2.21515L30.8555 6.48196L31.6341 6.49677L31.6664 4.88038ZM35.3027 6.24817L34.5569 6.15879L34.8119 4.06532L35.5323 4.15365L35.5889 3.66598L34.8732 3.57659L34.9489 2.96093L35.6894 3.05032L35.7544 2.54044L34.2438 2.35531L33.7244 6.59303L35.2408 6.77657L35.3027 6.24817ZM36.3293 7.00929C36.5064 7.07229 36.6873 7.12406 36.871 7.16427C37.0452 7.20519 37.2218 7.2347 37.3999 7.25259C37.5186 7.26819 37.6393 7.25176 37.7495 7.20499C37.8491 7.15879 37.9287 7.07823 37.9738 6.97808C38.0403 6.83269 38.0896 6.68004 38.1208 6.52321L38.343 5.55952L37.613 5.39291L37.3935 6.35449C37.3791 6.4141 37.3614 6.4729 37.3406 6.53062C37.3282 6.56826 37.3033 6.60052 37.27 6.62207C37.2367 6.64361 37.1971 6.65315 37.1576 6.6491C37.1025 6.64622 37.0478 6.63807 36.9942 6.62477C36.9379 6.6127 36.883 6.59498 36.8302 6.57187C36.7942 6.55666 36.7633 6.53131 36.7414 6.49888C36.7221 6.46449 36.7147 6.42472 36.7202 6.38569C36.7253 6.32606 36.7353 6.26696 36.7504 6.20903L37.3258 3.69613C37.3373 3.64 37.353 3.58483 37.3729 3.5311C37.3853 3.49409 37.409 3.4619 37.4406 3.43907C37.474 3.41831 37.513 3.40851 37.5522 3.41104C37.6099 3.41382 37.6671 3.42232 37.7231 3.43643C37.7779 3.44605 37.8312 3.46277 37.8817 3.48615C37.9184 3.49868 37.9498 3.52306 37.9711 3.55544C37.9927 3.58818 38.0013 3.62775 37.9955 3.66651C37.9908 3.7248 37.9807 3.78253 37.9653 3.83894L37.75 4.78359L38.4805 4.94914L38.6968 4.00766C38.7364 3.85308 38.7575 3.69436 38.7597 3.53481C38.7619 3.42655 38.7259 3.32097 38.6582 3.2365C38.579 3.14598 38.4771 3.07824 38.3631 3.04027C38.1952 2.98055 38.0239 2.9311 37.85 2.89217C37.6715 2.85039 37.4906 2.81966 37.3084 2.80014C37.186 2.78327 37.0614 2.79915 36.9471 2.84615C36.8465 2.89193 36.7656 2.97224 36.7192 3.07253C36.6504 3.21488 36.6001 3.36543 36.5695 3.52053L35.9935 6.03555C35.955 6.19145 35.9334 6.35105 35.929 6.51158C35.9269 6.62063 35.9628 6.72701 36.0305 6.81253C36.1121 6.9034 36.2163 6.9711 36.3325 7.00876M38.5725 7.14469C38.5557 7.25192 38.5767 7.36165 38.6317 7.45517C38.6956 7.55102 38.7843 7.62779 38.8883 7.67732C39.0435 7.7557 39.2042 7.82287 39.3691 7.87831C39.543 7.94156 39.7209 7.99316 39.9017 8.03275C40.0184 8.06264 40.1411 8.06027 40.2566 8.02588C40.3582 7.98739 40.444 7.9161 40.5004 7.8233C40.5827 7.68653 40.6487 7.54062 40.6972 7.38853L41.8375 4.16211L41.097 3.89765L39.9593 7.12407C39.936 7.22047 39.884 7.30752 39.8102 7.37372C39.7214 7.40219 39.625 7.3944 39.542 7.35203C39.4193 7.3076 39.3437 7.25894 39.3199 7.2034C39.3001 7.10553 39.3137 7.00386 39.3585 6.91461L39.6891 5.98213L39.0189 5.74623L38.6883 6.67766C38.632 6.82712 38.5931 6.9826 38.5725 7.14099M43.2328 5.69386C43.2568 5.64005 43.2848 5.58808 43.3164 5.53836C43.3381 5.5079 43.3678 5.48395 43.4021 5.46907C43.4397 5.45769 43.4798 5.45769 43.5174 5.46907C43.5704 5.48409 43.6217 5.50428 43.6708 5.52937C43.7229 5.55335 43.7727 5.58222 43.8194 5.61558C43.8501 5.63759 43.8739 5.66785 43.8882 5.70286C43.8984 5.74043 43.8984 5.78005 43.8882 5.81763C43.8731 5.8738 43.8522 5.92822 43.8257 5.98001L42.9636 7.74978L42.3739 7.46416L43.2328 5.69386ZM41.7323 8.77483L42.148 7.92009L42.7378 8.20571L42.3215 9.06098L43.0213 9.40054L44.5208 6.31958C44.592 6.18093 44.6454 6.03376 44.6794 5.88163C44.7016 5.77477 44.6892 5.66363 44.644 5.56428C44.5831 5.4576 44.4977 5.36695 44.3949 5.29982C44.0866 5.10565 43.758 4.94602 43.4148 4.82379C43.3022 4.78074 43.1801 4.76922 43.0615 4.79047C42.9552 4.81555 42.8603 4.87529 42.7917 4.96025C42.6951 5.08727 42.6124 5.22435 42.5452 5.36911L41.0494 8.44796L41.7323 8.77483ZM44.9851 10.598L45.2713 10.1394L44.5916 9.72054L46.5597 6.55072L45.9018 6.1408L43.648 9.76867L44.9851 10.598ZM45.9774 11.3126L47.6171 9.21225L47.6356 9.2297L46.6306 11.8251L47.2849 12.3355L49.9142 8.96895L49.3805 8.55374L47.6927 10.7144L47.6705 10.698L48.7511 8.06237L48.073 7.53345L45.4421 10.9L45.9774 11.3126ZM48.8426 12.8856C48.8798 12.8363 48.9209 12.79 48.9653 12.747L50.7869 10.9217C50.8265 10.881 50.8691 10.8433 50.9144 10.8091C50.9447 10.7851 50.9816 10.7709 51.0201 10.7683C51.0595 10.7693 51.0979 10.7814 51.1307 10.8032C51.1783 10.8352 51.222 10.8726 51.2608 10.9148C51.3597 11.0143 51.4089 11.0931 51.4078 11.1502C51.4068 11.2073 51.3549 11.2867 51.2544 11.3898L49.4318 13.2151C49.3915 13.2576 49.3478 13.2967 49.3011 13.332C49.2705 13.359 49.2314 13.3745 49.1906 13.3759C49.1528 13.3764 49.1159 13.3651 49.0848 13.3437C49.0371 13.3097 48.9925 13.2717 48.9515 13.2299C48.9094 13.1902 48.8715 13.1462 48.8383 13.0988C48.8164 13.0678 48.8044 13.0309 48.804 12.993C48.8058 12.9544 48.8199 12.9173 48.8442 12.8872M48.1105 12.5698C48.0479 12.6603 48.0206 12.7706 48.0338 12.8798C48.0538 13.0012 48.1068 13.1146 48.1872 13.2077C48.3026 13.3547 48.4278 13.4936 48.5622 13.6235C48.6939 13.757 48.8333 13.8827 48.9796 14C49.0758 14.0772 49.1898 14.1291 49.3112 14.1508C49.4204 14.1635 49.5306 14.1377 49.6227 14.0778C49.7567 13.9905 49.8799 13.8877 49.9898 13.7716L51.8135 11.9468C51.9277 11.8358 52.0295 11.7127 52.1171 11.5797C52.1759 11.4869 52.2007 11.3767 52.1875 11.2676C52.1649 11.1468 52.1121 11.0336 52.0341 10.9386C51.7959 10.6501 51.5302 10.3855 51.2407 10.1484C51.1449 10.0716 51.0315 10.02 50.9106 9.99823C50.8027 9.98591 50.6939 10.0125 50.6039 10.0733C50.4684 10.1593 50.3441 10.2616 50.2336 10.378L48.4104 12.2017C48.2955 12.3131 48.1938 12.4373 48.1074 12.572M51.9473 13.1961C51.8909 13.2667 51.8554 13.3517 51.8447 13.4415C51.8322 13.5631 51.8403 13.6859 51.8685 13.8049C51.8981 13.953 51.9463 14.1471 52.0166 14.392C52.0425 14.4978 52.0642 14.5824 52.0759 14.6459C52.0884 14.7006 52.0895 14.7573 52.079 14.8125C52.0685 14.8571 52.0465 14.8981 52.015 14.9315C51.9731 14.974 51.9276 15.0129 51.8791 15.0478L51.375 15.4493C51.305 15.5199 51.2142 15.5661 51.1159 15.581C51.0572 15.5768 50.9836 15.5207 50.8943 15.4075C50.8583 15.3628 50.8265 15.315 50.799 15.2647C50.7806 15.2327 50.7726 15.1957 50.7763 15.1589C50.7848 15.1201 50.8054 15.0849 50.835 15.0584C50.8755 15.014 50.9201 14.9736 50.9683 14.9378L51.6353 14.4115L51.1656 13.8192L50.4981 14.3454C50.3703 14.4412 50.2548 14.5524 50.1543 14.6765C50.0857 14.7624 50.0476 14.8687 50.0459 14.9785C50.0524 15.0982 50.0897 15.214 50.1543 15.3149C50.2454 15.4687 50.3483 15.6151 50.4621 15.7529C50.5783 15.9009 50.7028 16.0421 50.835 16.176C50.9207 16.2652 51.0283 16.3303 51.1471 16.3649C51.2541 16.388 51.3658 16.3748 51.4644 16.3273C51.6074 16.2533 51.7423 16.1647 51.8669 16.0628L52.4033 15.6397C52.4942 15.5685 52.5786 15.4893 52.6556 15.4033C52.7149 15.3333 52.7518 15.247 52.7613 15.1557C52.7753 15.0328 52.7672 14.9083 52.7375 14.7881C52.6942 14.59 52.6447 14.3934 52.5889 14.1984C52.5635 14.1175 52.5421 14.0354 52.5249 13.9524C52.5131 13.9026 52.509 13.8512 52.5127 13.8001C52.5168 13.7621 52.5304 13.7257 52.5524 13.6943C52.5804 13.6586 52.6133 13.627 52.6503 13.6007L52.9819 13.3399C53.0294 13.3014 53.0794 13.266 53.1316 13.2342C53.1643 13.2122 53.2034 13.2018 53.2427 13.2045C53.2797 13.208 53.3145 13.224 53.341 13.25C53.3861 13.2895 53.4269 13.3337 53.4627 13.3817C53.4992 13.4274 53.5322 13.4756 53.5616 13.5261C53.5794 13.5602 53.5878 13.5983 53.5859 13.6367C53.5789 13.6749 53.5605 13.7102 53.533 13.7377C53.4909 13.7821 53.4449 13.8226 53.3955 13.8588L52.9777 14.1889L53.4484 14.7802L53.8647 14.4539C53.9926 14.3577 54.1087 14.2468 54.2106 14.1233C54.2822 14.04 54.3237 13.9352 54.3285 13.8255C54.3236 13.7055 54.2871 13.5889 54.2228 13.4875C54.1265 13.3301 54.0196 13.1796 53.9028 13.0369C53.7892 12.8875 53.6655 12.7461 53.5325 12.6137C53.4467 12.5258 53.3396 12.4616 53.2215 12.4276C53.1141 12.4064 53.0026 12.4209 52.9042 12.4688C52.761 12.54 52.6266 12.6277 52.5038 12.7301L52.1811 12.9866C52.0969 13.0478 52.0204 13.1188 51.9532 13.1982M55.2224 12.994L54.7607 12.4122L53.7912 12.6349L54.1164 13.0464L55.2224 12.994ZM54.9051 15.0986C54.7546 15.1491 54.6114 15.2188 54.4788 15.306L52.2821 16.66C52.145 16.7411 52.0173 16.8373 51.9013 16.9467C51.8223 17.0228 51.7709 17.1231 51.7553 17.2318C51.7472 17.3536 51.7718 17.4754 51.8267 17.5845C51.9054 17.7546 51.9959 17.919 52.0975 18.0764C52.1898 18.229 52.2918 18.3754 52.4027 18.5149C52.4765 18.6095 52.5724 18.6846 52.682 18.7334C52.7867 18.7657 52.8989 18.764 53.0025 18.7286C53.1526 18.6746 53.296 18.6036 53.4299 18.517L54.2762 17.9982L53.8805 17.3635L53.0374 17.8818C52.9871 17.9152 52.934 17.9442 52.8788 17.9685C52.8428 17.9859 52.8024 17.9918 52.7629 17.9855C52.7266 17.9744 52.6939 17.9538 52.6683 17.9257C52.6305 17.8855 52.5976 17.8409 52.5704 17.7929C52.5383 17.7445 52.5112 17.6929 52.4895 17.639C52.4724 17.6031 52.4683 17.5623 52.4779 17.5237C52.4876 17.4851 52.5104 17.4511 52.5424 17.4275C52.5895 17.3892 52.639 17.3538 52.6905 17.3217L54.8866 15.9676C54.9343 15.9374 54.9842 15.9105 55.0357 15.8872C55.0716 15.8695 55.1121 15.8636 55.1515 15.8703C55.1888 15.8809 55.2225 15.9016 55.2489 15.9301C55.2881 15.973 55.3223 16.0202 55.3509 16.0708C55.3826 16.1163 55.4082 16.1657 55.4271 16.2178C55.44 16.2535 55.4442 16.2918 55.4393 16.3294C55.4286 16.367 55.4066 16.4004 55.3763 16.4251C55.331 16.4619 55.2829 16.4952 55.2325 16.5246L54.4095 17.0345L54.803 17.6692L55.6265 17.1593C55.7642 17.0798 55.892 16.9843 56.0073 16.8747C56.086 16.7996 56.1369 16.7 56.1517 16.5923C56.1589 16.4722 56.1345 16.3524 56.0809 16.2448C56.0067 16.0826 55.9215 15.9257 55.8259 15.7751C55.7318 15.6181 55.6274 15.4676 55.5133 15.3245C55.4376 15.2282 55.34 15.1514 55.2288 15.1002C55.1239 15.0638 55.0099 15.0638 54.9051 15.1002M53.0385 19.6214L56.8689 17.7189L57.2164 18.416L53.386 20.3185L53.0385 19.6214Z" fill="#BEBEBE"/>
<path d="M12.9469 58.5156C7.60002 55.0439 3.34844 50.1258 0.68654 44.3331L0.667499 44.2892C0.379765 43.6365 0.253353 43.3429 0.175073 43.1663L2.25215 42.2856L0 37.5454L1.60792 37.1556L1.54339 36.8541C1.0854 34.7366 0.853839 32.5763 0.852621 30.4097C0.843543 26.4093 1.63194 22.4472 3.17172 18.755C4.7115 15.0628 6.97179 11.7145 9.82048 8.90593C15.5814 3.20059 23.3616 0 31.4695 0C39.5774 0 47.3576 3.20059 53.1185 8.90593C55.9679 11.7142 58.2287 15.0623 59.7689 18.7546C61.3091 22.4468 62.0976 26.4091 62.0885 30.4097C62.0883 32.5762 61.8578 34.7364 61.4009 36.8541L61.3353 37.1556L62.9432 37.5454L60.6905 42.2862L62.765 43.1668C62.6512 43.4355 62.473 43.8481 62.3503 44.1326L62.2572 44.3299C60.2102 48.7439 57.2385 52.6664 53.5435 55.8319C49.8484 58.9973 45.5162 61.3317 40.8403 62.6769C36.1645 64.0222 31.2541 64.3469 26.4418 63.629C21.6295 62.9111 17.0277 61.1675 12.948 58.5161L12.9469 58.5156ZM1.48098 43.6561L1.61797 43.9512C4.25633 49.6473 8.4691 54.4697 13.7591 57.8493C19.0491 61.229 25.1955 63.0248 31.4729 63.0248C37.7504 63.0248 43.8968 61.229 49.1868 57.8493C54.4768 54.4697 58.6895 49.6473 61.3279 43.9512L61.4622 43.655L52.5526 39.8737L52.3912 39.805L52.2601 40.0811C50.3929 44.0137 47.4486 47.336 43.7689 49.6623C40.0892 51.9885 35.8252 53.2234 31.4719 53.2234C27.1185 53.2234 22.8545 51.9885 19.1748 49.6623C15.4952 47.336 12.5508 44.0137 10.6837 40.0811L10.5541 39.805L1.48098 43.6561ZM9.14505 30.4097C9.14099 33.1344 9.64503 35.8359 10.6313 38.3758C10.8249 38.8773 11.0396 39.3755 11.2692 39.8568C13.0902 43.6711 15.9539 46.892 19.5289 49.1468C23.104 51.4016 27.2444 52.5982 31.4711 52.5982C35.6978 52.5982 39.8382 51.4016 43.4132 49.1468C46.9883 46.892 49.8519 43.6711 51.673 39.8568C51.9055 39.3717 52.119 38.8776 52.313 38.3758C53.297 35.8353 53.8008 33.1342 53.7987 30.4097C53.7581 24.5149 51.388 18.8754 47.2053 14.7214C43.0226 10.5674 37.3668 8.23608 31.4719 8.23608C25.5769 8.23608 19.9212 10.5674 15.7385 14.7214C11.5558 18.8754 9.18563 24.5149 9.14505 30.4097ZM1.34187 38.2082L3.21214 42.1042L3.35759 39.5125L5.28604 41.1389L5.61873 39.0418L7.1526 40.4656L7.37845 38.625L8.80336 39.7489L9.007 38.1325L10.2817 39.2221L10.0648 38.6435C9.7984 37.9674 9.56696 37.278 9.37143 36.578L9.28733 36.284L1.34187 38.2082ZM59.7559 42.0455L61.6035 38.2082L53.6564 36.2813L53.5739 36.5754C53.3834 37.2709 53.1717 37.9604 52.9392 38.6429L52.7366 39.1719H52.7409L53.9669 38.1246L54.1705 39.741L55.5949 38.617L55.8192 40.4487L55.826 40.4513L57.3525 39.0338L57.6842 41.131L59.6126 39.5046L59.7559 42.0455ZM10.4197 9.50731C6.90658 12.9891 4.32736 17.3 2.92027 22.0419C1.51319 26.7838 1.32361 31.8038 2.36904 36.6383L2.4378 36.9557L9.04931 35.3488L8.98902 35.0516C8.29836 31.7132 8.35993 28.2629 9.16926 24.9513C9.97859 21.6397 11.5154 18.5499 13.6679 15.9064C15.8205 13.2629 18.5349 11.132 21.6139 9.66855C24.6928 8.20509 28.0591 7.44578 31.4682 7.44578C34.8772 7.44578 38.2435 8.20509 41.3225 9.66855C44.4014 11.132 47.1158 13.2629 49.2684 15.9064C51.421 18.5499 52.9577 21.6397 53.7671 24.9513C54.5764 28.2629 54.638 31.7132 53.9473 35.0516L53.8823 35.3493L60.1875 36.8785L60.5049 36.9541L60.5726 36.6367C61.8665 30.3701 61.107 23.8532 58.4067 18.0521C55.7063 12.2509 51.2087 7.4741 45.5805 4.4296C39.9523 1.38511 33.493 0.234934 27.1598 1.14953C20.8266 2.06413 14.9566 4.99484 10.4197 9.50731ZM32.3589 55.2468L34.3254 55.1109L34.3783 55.8133L33.3945 55.8794L33.4574 56.7479L34.4063 56.6802L34.456 57.3837L33.504 57.4514L33.7563 61.0253L32.772 61.0946L32.3589 55.2468ZM27.1146 60.8137L27.4928 58.3712C27.5206 58.2597 27.5147 58.1424 27.4759 58.0343C27.4394 57.9671 27.3362 57.9205 27.1675 57.893L26.7274 57.8259L26.2826 60.6857L25.3078 60.5323L26.207 54.7407L27.5986 54.9554C27.8337 54.99 28.0662 55.0404 28.2946 55.1061C28.448 55.1471 28.5878 55.228 28.6998 55.3405C28.7963 55.4495 28.8523 55.5885 28.8585 55.734C28.8701 55.9418 28.8568 56.1503 28.8188 56.3549L28.7252 56.9627C28.7085 57.0894 28.6706 57.2124 28.6131 57.3266C28.5685 57.4075 28.5067 57.4777 28.4322 57.5323C28.3683 57.5809 28.2944 57.6147 28.2158 57.6312C28.1442 57.6467 28.0716 57.6568 27.9984 57.6614L27.9953 57.6915C28.0769 57.7221 28.1554 57.7606 28.2296 57.8063C28.2996 57.8508 28.3575 57.9118 28.3983 57.984C28.4435 58.0678 28.4718 58.1596 28.4819 58.2543C28.4914 58.3885 28.4851 58.5234 28.4634 58.6563L28.1026 60.9671L27.1146 60.8137ZM26.8311 57.1578L27.2706 57.225C27.3796 57.2565 27.4964 57.2455 27.5975 57.1943C27.6708 57.1183 27.714 57.0184 27.7192 56.9129L27.8318 56.2021C27.843 56.1276 27.8498 56.0525 27.8525 55.9773C27.854 55.9265 27.8423 55.8762 27.8186 55.8313C27.791 55.7886 27.7496 55.7566 27.7012 55.7409C27.6304 55.7159 27.5572 55.6982 27.4827 55.688L27.0675 55.624L26.8311 57.1578ZM36.6209 60.5583C36.4922 60.4868 36.3926 60.3725 36.3395 60.2351C36.2537 60.034 36.1906 59.8239 36.1512 59.6089L35.4261 56.1439C35.3762 55.9322 35.3501 55.7156 35.3483 55.4981C35.3473 55.3513 35.3933 55.208 35.4795 55.0892C35.5815 54.9714 35.7137 54.8836 35.8619 54.8353C36.0864 54.7579 36.3162 54.6968 36.5495 54.6523C36.7823 54.5986 37.0189 54.5632 37.2572 54.5465C37.415 54.5319 37.5739 54.5591 37.7179 54.6254C37.8465 54.6952 37.947 54.8073 38.0025 54.9427C38.0874 55.1435 38.1509 55.3527 38.1918 55.5668L38.9154 59.0297C38.9667 59.2431 38.9933 59.4618 38.9947 59.6813C38.9977 59.8299 38.9499 59.975 38.8593 60.0928C38.7554 60.2121 38.6202 60.2999 38.469 60.3462C38.2451 60.4265 38.0152 60.4885 37.7814 60.5318C37.5481 60.5847 37.3112 60.6201 37.0726 60.6376C37.0451 60.6376 37.0197 60.6403 36.9922 60.6403C36.8644 60.6439 36.7377 60.6155 36.6236 60.5577L36.6209 60.5583ZM36.7098 55.3992C36.6368 55.4118 36.5658 55.4335 36.4982 55.4637C36.4518 55.4819 36.4128 55.5153 36.3877 55.5584C36.3625 55.6053 36.3523 55.6589 36.3586 55.7118C36.364 55.7897 36.3754 55.8672 36.3924 55.9434L37.1155 59.4058C37.133 59.4876 37.1547 59.5684 37.1805 59.648C37.1956 59.6988 37.2265 59.7435 37.2688 59.7755C37.3093 59.8053 37.3587 59.8206 37.409 59.8188C37.483 59.8189 37.5567 59.81 37.6285 59.7924C37.7013 59.7795 37.7723 59.7582 37.8401 59.7289C37.8867 59.7095 37.9257 59.6753 37.9512 59.6316C37.9744 59.5821 37.9837 59.5273 37.9781 59.4729C37.9725 59.413 37.961 59.334 37.9438 59.236L37.217 55.771C37.2067 55.6382 37.1525 55.5127 37.0631 55.414C37.0165 55.386 36.9624 55.3729 36.9081 55.3764C36.8423 55.3775 36.7768 55.3849 36.7124 55.3986L36.7098 55.3992ZM22.3924 59.7686L22.7923 58.5256L21.9989 58.2702L21.5996 59.5136L20.6829 59.2196L22.1232 54.7428C22.1852 54.5338 22.2693 54.3321 22.3739 54.1409C22.4422 54.0116 22.5532 53.9101 22.6881 53.8537C22.8346 53.7976 22.9943 53.7853 23.1477 53.8182C23.3744 53.8599 23.598 53.9172 23.8168 53.9896C24.0376 54.0581 24.2529 54.1429 24.461 54.2435C24.6049 54.3099 24.728 54.4143 24.817 54.5455C24.8928 54.6729 24.9258 54.8211 24.9111 54.9686C24.8884 55.18 24.8424 55.3882 24.7741 55.5896L23.336 60.0717L22.3924 59.7686ZM23.226 54.6936C23.1798 54.7194 23.1436 54.76 23.1234 54.8089C23.089 54.8821 23.06 54.9578 23.0366 55.0353L22.2147 57.6032L23.0081 57.8587L23.8311 55.2865C23.8609 55.2111 23.8808 55.1322 23.8903 55.0517C23.9003 55.0002 23.8962 54.9471 23.8787 54.8978C23.8552 54.8535 23.8196 54.8168 23.7761 54.792C23.7115 54.7586 23.6443 54.7307 23.5751 54.7084C23.509 54.687 23.441 54.6721 23.372 54.664H23.3397C23.3 54.6624 23.2607 54.6717 23.226 54.6909V54.6936ZM38.9915 54.1319L40.3091 53.6342C40.5306 53.5464 40.7581 53.4746 40.9898 53.4194C41.144 53.3794 41.3061 53.3818 41.459 53.4263C41.5947 53.4757 41.7102 53.5687 41.7874 53.6908C41.8996 53.8665 41.9915 54.0544 42.0614 54.2509L42.2783 54.8237C42.3262 54.9416 42.3534 55.0668 42.3587 55.1939C42.3587 55.2873 42.3407 55.3798 42.3058 55.4663C42.2721 55.5377 42.2244 55.6015 42.1656 55.6541C42.1103 55.7032 42.0518 55.7486 41.9905 55.79L42.0016 55.8175C42.0872 55.803 42.1741 55.7975 42.2608 55.8012C42.3432 55.8055 42.4233 55.8295 42.4946 55.871C42.5763 55.9217 42.6469 55.9882 42.7025 56.0667C42.7779 56.1783 42.8384 56.2994 42.8823 56.4269L43.7143 58.6118L42.7839 58.9641L41.9054 56.6532C41.8746 56.5428 41.811 56.4443 41.7229 56.3708C41.6578 56.3264 41.5447 56.3375 41.3849 56.3983L40.9681 56.557L41.9937 59.2629L41.0691 59.6126L38.9915 54.1319ZM40.7899 54.2657C40.7175 54.2795 40.6466 54.3004 40.5783 54.3281L40.1837 54.4751L40.7343 55.9249L41.1517 55.7662C41.3035 55.7102 41.3918 55.6462 41.4161 55.5779C41.444 55.4759 41.4328 55.3671 41.3849 55.2728L41.13 54.6016C41.1039 54.5298 41.0724 54.4602 41.0358 54.3932C41.0129 54.3487 40.9774 54.3119 40.9337 54.2874C40.9042 54.2705 40.8705 54.2622 40.8364 54.2636C40.8202 54.2624 40.804 54.2624 40.7878 54.2636L40.7899 54.2657ZM17.1767 57.6296L19.0655 53.3628L19.0348 53.3454L16.413 57.2202L15.2943 56.6178L17.5195 51.1588L18.3916 51.6258L16.4547 55.8175L16.4854 55.835L19.0713 51.9908L20.182 52.5885L18.3388 56.831L18.3694 56.8468L20.8802 52.9614L21.7577 53.4348L18.2811 58.222L17.1767 57.6296ZM43.4043 53.028L42.7469 53.3887L42.4047 52.7657L44.5695 51.5682L44.9144 52.1944L44.2659 52.5499L46.7614 57.0573L45.895 57.5334L43.4043 53.028ZM48.9855 55.5087C48.8384 55.4955 48.6992 55.4363 48.5878 55.3394C48.4233 55.1935 48.2757 55.0295 48.1477 54.8507L45.3169 51.1006L46.1077 50.5072L48.9363 54.2599C48.9854 54.3276 49.0408 54.3905 49.1019 54.4476C49.138 54.4863 49.1857 54.5123 49.2378 54.5217C49.2868 54.5267 49.3362 54.5181 49.3806 54.4968C49.4461 54.465 49.5078 54.4259 49.5647 54.3805C49.6227 54.3398 49.676 54.2925 49.7234 54.2398C49.7571 54.2046 49.7781 54.1592 49.7831 54.1107C49.7849 54.0586 49.7717 54.007 49.745 53.9621C49.7065 53.8888 49.6614 53.8192 49.6102 53.7542L46.781 49.9989L47.5505 49.4213L50.3782 53.174C50.5151 53.3456 50.631 53.5329 50.7235 53.732C50.7867 53.8654 50.8053 54.0157 50.7764 54.1604C50.7355 54.3112 50.6526 54.4473 50.5374 54.5529C50.373 54.7144 50.1973 54.864 50.0116 55.0004C49.8248 55.1419 49.6292 55.2715 49.4261 55.3886C49.3007 55.4626 49.1586 55.5039 49.013 55.5087H48.9855ZM13.2463 55.0384C13.0883 55.0344 12.9345 54.9866 12.802 54.9004C12.5981 54.778 12.4037 54.6407 12.2202 54.4894C12.0307 54.3438 11.852 54.1847 11.6855 54.0134C11.5741 53.9039 11.4952 53.7657 11.4575 53.6141C11.4336 53.4692 11.458 53.3206 11.5268 53.1909C11.6272 52.9952 11.7493 52.8114 11.8907 52.643L14.0926 49.8746C14.2232 49.7012 14.3726 49.5429 14.5379 49.4023C14.6499 49.3077 14.7894 49.252 14.9357 49.2436C15.0921 49.2449 15.2451 49.2903 15.3768 49.3748C15.5798 49.499 15.7742 49.6368 15.9586 49.7873C16.1477 49.9319 16.3258 50.0901 16.4918 50.2607C16.6052 50.3714 16.6854 50.5115 16.7234 50.6653C16.7523 50.8091 16.7312 50.9583 16.6637 51.0885C16.5615 51.2819 16.4401 51.4646 16.3014 51.6338L14.0973 54.4016C13.9648 54.5757 13.8143 54.7352 13.6483 54.8777C13.5364 54.9729 13.3962 55.0286 13.2495 55.0363L13.2463 55.0384ZM15.1578 50.239C15.1056 50.2494 15.058 50.2761 15.0219 50.3152C14.9654 50.3704 14.9124 50.429 14.8632 50.4908L12.6618 53.2592C12.6098 53.3239 12.5613 53.3913 12.5164 53.4612C12.488 53.5075 12.4735 53.5609 12.4746 53.6151C12.4784 53.6651 12.498 53.7125 12.5307 53.7505C12.5791 53.8043 12.6322 53.8537 12.6893 53.8981C12.7455 53.9457 12.8067 53.9871 12.8718 54.0213C12.9169 54.0442 12.9681 54.0516 13.0178 54.0425C13.0716 54.0314 13.1206 54.0039 13.158 53.9637C13.2162 53.9079 13.2701 53.8478 13.3193 53.7838L15.5217 51.0149C15.6162 50.9212 15.6779 50.7995 15.6979 50.668C15.6915 50.5913 15.6233 50.4987 15.4815 50.3871C15.4262 50.3399 15.3657 50.2991 15.3012 50.2655C15.2566 50.2423 15.206 50.2336 15.1562 50.2406L15.1578 50.239ZM48.3857 48.6946L49.1421 47.9081L52.534 49.8122L52.56 49.7905L49.845 47.1803L50.4411 46.5604L54.6693 50.6278L53.9357 51.3868L50.5855 49.5853L50.5654 49.6112L53.2005 52.1468L52.6113 52.7604L48.3857 48.6946ZM9.05884 51.5047L10.8789 49.8317C10.9715 49.7635 11.0401 49.6675 11.0746 49.5578C11.0883 49.4816 11.0391 49.3806 10.9228 49.2536L10.6218 48.9273L8.48707 50.8843L7.81904 50.1581L12.1393 46.1912L13.0913 47.2257C13.2559 47.3988 13.4077 47.5835 13.5457 47.7785C13.6396 47.9061 13.6976 48.0566 13.7133 48.2143C13.7183 48.3582 13.6755 48.4997 13.5917 48.6168C13.4695 48.7856 13.3286 48.9399 13.1717 49.077L12.719 49.4959C12.6272 49.5854 12.5196 49.6572 12.4016 49.7074C12.3165 49.7428 12.225 49.7599 12.1329 49.7577C12.0532 49.7564 11.9746 49.7384 11.9023 49.7048C11.8365 49.6716 11.7732 49.6336 11.713 49.5911L11.6923 49.6122C11.7368 49.6868 11.7735 49.7656 11.8018 49.8476C11.8288 49.9252 11.8363 50.0082 11.8235 50.0893C11.8085 50.1838 11.7735 50.2739 11.7209 50.3538C11.6471 50.4667 11.5581 50.5688 11.4564 50.6574L9.73374 52.2399L9.05884 51.5047ZM11.1179 48.4677L11.4189 48.7982C11.4858 48.8901 11.5847 48.9536 11.696 48.9765C11.8008 48.9622 11.8968 48.9101 11.9658 48.83L12.4974 48.3449C12.5533 48.2931 12.6062 48.2382 12.656 48.1805C12.6893 48.1431 12.7113 48.0971 12.7195 48.0477C12.7231 47.9978 12.7104 47.9481 12.6835 47.9059C12.6437 47.8428 12.5976 47.7838 12.546 47.7298L12.2625 47.4209L11.1179 48.4677ZM10.1923 30.4135C10.1641 26.199 11.3881 22.0711 13.709 18.5532C16.0299 15.0353 19.3432 12.2859 23.2288 10.6535C27.1144 9.02117 31.3972 8.57943 35.5341 9.38433C39.6711 10.1892 43.4759 12.2045 46.466 15.1746C49.4561 18.1447 51.4968 21.9359 52.3294 26.0673C53.1621 30.1988 52.7491 34.4845 51.1428 38.3809C49.5366 42.2773 46.8094 45.609 43.3072 47.9535C39.8049 50.298 35.6853 51.5496 31.4708 51.5497C25.8483 51.5619 20.4504 49.3435 16.4614 45.3812C12.4723 41.4188 10.2178 36.0359 10.1923 30.4135ZM10.7831 30.4135C10.7551 34.5106 11.9445 38.5238 14.2004 41.9441C16.4563 45.3644 19.677 48.0378 23.4543 49.6252C27.2315 51.2126 31.3951 51.6425 35.417 50.8605C39.439 50.0785 43.1381 48.1197 46.0453 45.2325C48.9525 42.3454 50.9369 38.66 51.7467 34.6435C52.5566 30.6271 52.1555 26.4607 50.5943 22.6725C49.0331 18.8844 46.3821 15.6451 42.9775 13.3656C39.5729 11.0861 35.5681 9.86897 31.4708 9.86856C26.0052 9.85674 20.758 12.0129 16.8798 15.8643C13.0016 19.7157 10.8092 24.9479 10.7831 30.4135ZM52.0829 46.3673C51.9016 46.2463 51.7334 46.1068 51.5809 45.951C51.4789 45.847 51.4138 45.7122 51.3958 45.5676C51.3886 45.412 51.4241 45.2575 51.4984 45.1206C51.6056 44.916 51.7272 44.7193 51.8623 44.532C51.9908 44.3405 52.1348 44.1599 52.2929 43.9919C52.397 43.8731 52.533 43.7866 52.6848 43.7428C52.8288 43.7056 52.9811 43.7163 53.1185 43.7735C53.3153 43.8587 53.5022 43.9651 53.676 44.0908L57.5371 46.7762L56.9749 47.5859L55.9017 46.8407L55.4257 47.5225L56.4994 48.2688L55.9493 49.0553L52.0829 46.3673ZM52.7514 44.7419C52.7021 44.7514 52.6567 44.7751 52.6208 44.8102C52.5699 44.8607 52.5237 44.9157 52.4827 44.9747C52.4418 45.0324 52.4064 45.0938 52.377 45.1582C52.357 45.2037 52.3509 45.2541 52.3595 45.3031C52.3714 45.3541 52.3996 45.3998 52.4399 45.4332C52.5002 45.4858 52.5634 45.5349 52.6292 45.5803L54.8507 47.1247L55.3267 46.4414L53.1053 44.8974C53.0406 44.8509 52.9724 44.8097 52.9011 44.7742C52.8605 44.7547 52.8165 44.7433 52.7715 44.7409L52.7514 44.7419ZM6.61152 48.2661C6.46265 48.212 6.33073 48.1195 6.22911 47.998C6.07378 47.8173 5.92998 47.6271 5.79856 47.4283L5.01735 46.2584L9.90352 43.0065L10.6826 44.1744C10.8186 44.3717 10.9399 44.5787 11.0455 44.7938C11.1175 44.9327 11.1525 45.088 11.147 45.2444C11.1313 45.3875 11.0677 45.5211 10.9667 45.6236C10.8179 45.7716 10.6537 45.9032 10.4769 46.0161L10.1114 46.2584C10.0067 46.3351 9.88703 46.3892 9.76018 46.417C9.66678 46.4361 9.57067 46.4377 9.47668 46.4218C9.39794 46.4061 9.3229 46.3756 9.25559 46.3319C9.19836 46.296 9.14758 46.2508 9.10538 46.1981L9.07893 46.215C9.112 46.2965 9.13594 46.3815 9.15034 46.4683C9.16168 46.552 9.15316 46.6372 9.12548 46.7169C9.08935 46.8139 9.03332 46.9021 8.96098 46.9761C8.85924 47.0823 8.74505 47.1759 8.62089 47.2548L7.59002 47.9424C7.41699 48.0637 7.23087 48.1652 7.03518 48.245C6.95425 48.2784 6.86778 48.2963 6.78024 48.2979C6.72268 48.2963 6.66573 48.2855 6.61152 48.2661ZM6.17886 46.6699L6.41264 47.0216C6.45367 47.0818 6.49911 47.1389 6.54857 47.1924C6.5829 47.2273 6.62695 47.2511 6.67499 47.2607C6.72558 47.2638 6.77611 47.2536 6.8215 47.231C6.89562 47.1975 6.96645 47.1571 7.03307 47.1104L8.22473 46.3171C8.32953 46.2616 8.41523 46.1759 8.47067 46.0711C8.49553 45.9976 8.46168 45.8908 8.36489 45.7506L8.11471 45.3772L6.17886 46.6699ZM8.68383 45.0037L8.93031 45.374C9.02075 45.5057 9.10273 45.5792 9.17414 45.5914C9.28047 45.5934 9.38395 45.5569 9.46557 45.4888L9.92468 45.1868C9.98648 45.1456 10.0455 45.1003 10.1013 45.0514C10.1404 45.0188 10.1705 44.9767 10.1886 44.9292C10.2008 44.8796 10.1955 44.8273 10.1738 44.7811C10.1455 44.7121 10.11 44.6464 10.068 44.5848L9.83635 44.2347L8.68383 45.0037ZM31.4274 45.8178V45.4845C31.4058 45.2915 31.4414 45.0964 31.5298 44.9234C31.6182 44.7505 31.7555 44.6073 31.9246 44.5119C31.7869 44.4066 31.6761 44.2703 31.6012 44.114C31.5263 43.9577 31.4894 43.7859 31.4936 43.6127C31.4936 42.9383 31.8918 42.384 32.8566 42.384C33.8213 42.384 34.2223 42.9383 34.2223 43.6127C34.222 43.7831 34.1853 43.9515 34.1146 44.1066C34.0439 44.2617 33.9408 44.3999 33.8123 44.5119C33.9664 44.6209 34.0902 44.7675 34.1719 44.9377C34.2536 45.1079 34.2906 45.2961 34.2794 45.4845V45.8178C34.2794 46.8047 33.8187 47.2427 32.8513 47.2427C31.8839 47.2427 31.428 46.8047 31.428 45.8183L31.4274 45.8178ZM32.2869 45.5279V45.7739C32.2869 46.2293 32.4044 46.4879 32.8524 46.4879C33.3004 46.4879 33.4199 46.2293 33.4199 45.7739V45.5279C33.4199 45.0868 33.3009 44.8461 32.8524 44.8461C32.4038 44.8461 32.2875 45.0757 32.2875 45.5284L32.2869 45.5279ZM32.3557 43.6312C32.3509 43.7 32.3602 43.7691 32.3831 43.8342C32.406 43.8993 32.442 43.959 32.4889 44.0096C32.5358 44.0602 32.5926 44.1007 32.6557 44.1285C32.7189 44.1563 32.7871 44.1708 32.8561 44.1712H32.9015C33.0339 44.1599 33.1565 44.0969 33.2427 43.9958C33.329 43.8947 33.3719 43.7637 33.3622 43.6312C33.354 43.5036 33.2974 43.3839 33.2041 43.2964C33.1108 43.209 32.9877 43.1603 32.8598 43.1603C32.7319 43.1603 32.6088 43.209 32.5154 43.2964C32.4221 43.3839 32.3656 43.5036 32.3573 43.6312H32.3557ZM27.634 45.8183V45.4851C27.6121 45.2918 27.6478 45.0965 27.7365 44.9234C27.8253 44.7504 27.9631 44.6074 28.1328 44.5124C27.9945 44.4076 27.8832 44.2714 27.8081 44.115C27.7329 43.9587 27.6961 43.7866 27.7007 43.6132C27.7007 42.9388 28.1 42.3845 29.0674 42.3845C30.0348 42.3845 30.4331 42.9388 30.4331 43.6132C30.4331 43.7839 30.3963 43.9526 30.3252 44.1078C30.2541 44.263 30.1504 44.401 30.021 44.5124C30.1758 44.6209 30.3002 44.7673 30.3823 44.9376C30.4645 45.1079 30.5016 45.2964 30.4902 45.4851V45.8183C30.4902 46.8053 30.0263 47.2432 29.0621 47.2432C28.0979 47.2432 27.6351 46.8047 27.6351 45.8183H27.634ZM28.4935 45.5284V45.7744C28.4935 46.2298 28.612 46.4884 29.0621 46.4884C29.5122 46.4884 29.6286 46.2298 29.6286 45.7744V45.5284C29.6286 45.0873 29.508 44.8467 29.0621 44.8467C28.6162 44.8467 28.4946 45.0757 28.4946 45.5284H28.4935ZM28.5617 43.6312C28.5572 43.7003 28.5669 43.7696 28.5901 43.8349C28.6134 43.9001 28.6498 43.9599 28.6971 44.0105C28.7444 44.0611 28.8016 44.1014 28.8651 44.1291C28.9286 44.1567 28.9971 44.1711 29.0663 44.1712H29.1092C29.242 44.1604 29.3652 44.0976 29.4521 43.9965C29.5389 43.8954 29.5824 43.7642 29.573 43.6312C29.573 43.4971 29.5198 43.3685 29.4249 43.2737C29.3301 43.1788 29.2015 43.1256 29.0674 43.1256C28.9333 43.1256 28.8047 43.1788 28.7098 43.2737C28.615 43.3685 28.5617 43.4971 28.5617 43.6312ZM35.6673 47.1824L35.6408 47.0951C36.1486 46.8064 36.572 46.3899 36.869 45.887C36.7833 45.8923 36.6468 45.8923 36.5659 45.8923C36.3914 45.9102 36.2151 45.8882 36.0504 45.8278C35.8856 45.7674 35.7368 45.6702 35.6152 45.5438C35.4937 45.4173 35.4025 45.2648 35.3486 45.0978C35.2948 44.9308 35.2797 44.7538 35.3044 44.5801V43.7735C35.3044 42.7574 35.7038 42.357 36.7193 42.357C37.7438 42.357 38.1363 42.7574 38.1363 43.7735V44.5801C38.1268 45.0977 37.9912 45.6052 37.7413 46.0587C37.4915 46.5121 37.1349 46.8978 36.7024 47.1824H35.6673ZM36.1713 43.7735V44.5801C36.1713 45.0133 36.3395 45.1265 36.7188 45.1265C37.098 45.1265 37.2667 45.0133 37.2667 44.5801V43.7735C37.2667 43.2911 37.0985 43.1668 36.7188 43.1668C36.339 43.1668 36.1735 43.2916 36.1735 43.7735H36.1713ZM24.5229 47.1803V46.4789H25.3015V43.1345H24.6895V42.3972H26.1705V46.4789H26.911V47.1803H24.5229ZM39.3856 44.5653C39.3846 44.4491 39.4182 44.3352 39.4821 44.2382C39.5459 44.1411 39.6372 44.0652 39.7443 44.02C39.8513 43.9749 39.9694 43.9625 40.0835 43.9846C40.1975 44.0066 40.3025 44.0621 40.385 44.1439C40.4676 44.2257 40.5239 44.3301 40.547 44.444C40.5701 44.5579 40.5589 44.676 40.5147 44.7835C40.4705 44.891 40.3954 44.9829 40.2989 45.0476C40.2024 45.1124 40.0889 45.147 39.9727 45.1471C39.8961 45.1477 39.8201 45.1332 39.7491 45.1044C39.6781 45.0756 39.6135 45.033 39.559 44.9791C39.5045 44.9253 39.4611 44.8611 39.4315 44.7905C39.4018 44.7198 39.3864 44.644 39.3861 44.5674L39.3856 44.5653ZM22.101 44.5653C22.0999 44.4489 22.1335 44.3349 22.1973 44.2377C22.2612 44.1404 22.3525 44.0644 22.4597 44.0191C22.5669 43.9739 22.6851 43.9615 22.7993 43.9835C22.9136 44.0056 23.0187 44.0611 23.1013 44.143C23.184 44.2249 23.2404 44.3295 23.2635 44.4435C23.2866 44.5575 23.2753 44.6758 23.231 44.7834C23.1867 44.891 23.1115 44.983 23.0148 45.0478C22.9181 45.1125 22.8044 45.1471 22.6881 45.1471C22.6115 45.1477 22.5355 45.1332 22.4645 45.1044C22.3935 45.0756 22.3288 45.033 22.2743 44.9791C22.2198 44.9253 22.1765 44.8611 22.1469 44.7905C22.1172 44.7198 22.1018 44.644 22.1015 44.5674L22.101 44.5653ZM19.8943 41.0829C19.845 41.0624 19.8008 41.0311 19.765 40.9914C19.7292 40.9517 19.7028 40.9045 19.6875 40.8533L19.487 40.1303C19.4657 40.0526 19.4716 39.97 19.5036 39.8962C19.5356 39.8223 19.5919 39.7616 19.6632 39.7241C22.2697 38.361 27.8086 37.9469 31.4687 37.9469C35.1098 37.9469 40.6222 38.3568 43.2393 39.7082C43.312 39.7449 43.3695 39.8059 43.4019 39.8806C43.4344 39.9552 43.4397 40.0389 43.417 40.117L43.216 40.8353C43.2015 40.8867 43.1757 40.9342 43.1404 40.9743C43.1052 41.0143 43.0614 41.046 43.0123 41.067C42.9632 41.0879 42.91 41.0976 42.8567 41.0953C42.8033 41.093 42.7512 41.0788 42.704 41.0538C41.3357 40.3196 37.4206 39.4099 31.4687 39.4099C25.4797 39.4099 21.5509 40.3307 20.2053 41.067C20.1521 41.0955 20.0927 41.1104 20.0324 41.1104C19.9853 41.1112 19.9385 41.1026 19.8948 41.085L19.8943 41.0829ZM43.5112 38.05C41.3029 36.8594 36.1687 36.0369 31.4687 36.0369C26.7803 36.0369 21.6715 36.8525 19.4511 38.0326C19.401 38.0617 19.344 38.0767 19.2861 38.0759C19.2381 38.076 19.1906 38.0665 19.1464 38.0479C19.0977 38.0282 19.054 37.9979 19.0186 37.959C18.9832 37.9202 18.9569 37.874 18.9417 37.8236L14.1751 22.2548C14.1548 22.1872 14.1552 22.115 14.1761 22.0476C14.197 21.9801 14.2375 21.9205 14.2925 21.8761C14.357 21.8261 14.4362 21.7988 14.5178 21.7984C14.5797 21.7993 14.6404 21.8155 14.6945 21.8455L23.5693 26.8855C23.6154 26.9115 23.6551 26.9473 23.6857 26.9905C23.7162 27.0337 23.7368 27.0831 23.7459 27.1352C23.7535 27.1871 23.75 27.24 23.7356 27.2904C23.7212 27.3409 23.6962 27.3876 23.6623 27.4277C23.2247 27.937 22.9577 28.5708 22.8991 29.2398C22.8957 29.7608 23.047 30.2711 23.3339 30.706C23.6208 31.1409 24.0304 31.4808 24.5108 31.6827C24.9911 31.8845 25.5206 31.9392 26.0321 31.8397C26.5435 31.7403 27.0139 31.4912 27.3836 31.1241C27.7534 30.757 28.0057 30.2883 28.1088 29.7776C28.2118 29.2669 28.1609 28.737 27.9625 28.2553C27.7641 27.7735 27.427 27.3615 26.9942 27.0715C26.5613 26.7815 26.0521 26.6266 25.531 26.6264C25.525 26.6258 25.519 26.6258 25.513 26.6264H25.5104C25.4958 26.6267 25.4815 26.6231 25.4688 26.616C25.456 26.609 25.4454 26.5987 25.4379 26.5862C25.4287 26.5743 25.4228 26.5603 25.4209 26.5454C25.4189 26.5305 25.421 26.5154 25.4268 26.5016L31.1556 13.3938C31.1838 13.3306 31.2297 13.277 31.2879 13.2394C31.346 13.2019 31.4138 13.182 31.483 13.1823C31.5522 13.1813 31.6201 13.2009 31.6782 13.2386C31.7363 13.2762 31.7819 13.3302 31.8093 13.3938L37.4688 26.4978C37.47 26.4993 37.4706 26.5012 37.4706 26.5031C37.4706 26.5051 37.47 26.5069 37.4688 26.5084C37.4668 26.5112 37.4645 26.5137 37.4619 26.5158C37.4259 26.5322 37.4365 26.6216 37.4323 26.6216C36.9163 26.6255 36.4129 26.782 35.9857 27.0715C35.5585 27.361 35.2266 27.7705 35.0318 28.2484C34.837 28.7263 34.788 29.2511 34.8911 29.7568C34.9941 30.2624 35.2445 30.7262 35.6108 31.0898C35.9771 31.4533 36.4428 31.7003 36.9492 31.7995C37.4556 31.8988 37.98 31.8459 38.4564 31.6476C38.9328 31.4492 39.3398 31.1142 39.6261 30.6849C39.9124 30.2556 40.0652 29.7511 40.0653 29.235C40.0066 28.5664 39.7405 27.9329 39.3041 27.4229C39.2705 27.3827 39.2456 27.3359 39.231 27.2856C39.2163 27.2353 39.2122 27.1824 39.219 27.1304C39.2289 27.0784 39.2501 27.0291 39.2809 26.986C39.3118 26.9429 39.3517 26.907 39.3978 26.8808L48.2731 21.8407C48.3259 21.8104 48.3856 21.7942 48.4465 21.7936C48.5281 21.7937 48.6072 21.821 48.6713 21.8714C48.7266 21.9155 48.7673 21.9752 48.7884 22.0426C48.8096 22.1101 48.81 22.1823 48.7898 22.2501L44.0184 37.8374C44.0037 37.8882 43.9776 37.9351 43.9422 37.9744C43.9067 38.0137 43.8628 38.0444 43.8137 38.0643C43.7703 38.0811 43.7243 38.0901 43.6778 38.0907C43.6201 38.0916 43.5631 38.0783 43.5117 38.0521L43.5112 38.05ZM42.923 36.1036L46.4171 24.6858L41.2447 27.6218C41.5584 28.3627 41.6507 29.1786 41.5104 29.9708C41.3702 30.763 41.0034 31.4976 40.4545 32.0858C39.9056 32.6739 39.198 33.0905 38.4174 33.285C37.6367 33.4796 36.8165 33.4438 36.0557 33.1821C35.295 32.9203 34.6264 32.4437 34.1307 31.81C33.6351 31.1762 33.3337 30.4125 33.263 29.6111C33.1922 28.8097 33.3552 28.0049 33.7321 27.2942C34.109 26.5834 34.6838 25.9971 35.3869 25.6061L31.4787 16.5573L27.5346 25.5786C28.287 25.9549 28.912 26.5444 29.3316 27.2736C29.7512 28.0028 29.9468 28.8393 29.8941 29.679C29.8413 30.5186 29.5425 31.3241 29.035 31.9951C28.5274 32.666 27.8336 33.1727 27.04 33.4518C26.2463 33.731 25.3881 33.7704 24.5723 33.565C23.7564 33.3596 23.0191 32.9185 22.4523 32.2969C21.8855 31.6752 21.5143 30.9004 21.3849 30.0691C21.2556 29.2378 21.3738 28.3869 21.7249 27.6223L16.5526 24.6836L20.0435 36.093C22.7637 35.1224 27.168 34.4861 31.4682 34.4861C35.0744 34.4861 39.868 34.9992 42.923 36.1057V36.1036ZM3.39462 35.0812C3.11608 34.5411 2.95068 33.9499 2.90854 33.3437C3.24786 33.6984 3.65827 33.9774 4.11289 34.1624C4.58078 34.3316 4.98485 34.6415 5.26964 35.0494L3.73577 35.4197C3.59754 35.3355 3.48075 35.2203 3.39462 35.0833V35.0812ZM57.7577 35.0494C58.043 34.6424 58.4464 34.3328 58.9134 34.1624C59.3676 33.9781 59.7773 33.6989 60.1151 33.3437C60.0747 33.9502 59.9092 34.5418 59.629 35.0812C59.5443 35.2182 59.4285 35.3333 59.291 35.417L57.7577 35.0494ZM55.3881 34.4756C55.3516 34.4154 55.3253 34.3497 55.3104 34.2809C55.2276 33.7922 55.2227 33.2934 55.2961 32.8031C55.5297 33.1288 55.8119 33.4167 56.1328 33.6568C56.5764 33.9424 56.9048 34.3755 57.06 34.8797L55.3881 34.4756ZM6.89079 33.6563C7.21278 33.4169 7.4956 33.1289 7.72913 32.8026C7.80183 33.2929 7.79647 33.7917 7.71326 34.2804C7.69803 34.3489 7.67215 34.4146 7.63656 34.475L5.96359 34.8786C6.12055 34.376 6.44861 33.9443 6.89079 33.6584V33.6563ZM57.9846 32.9597C58.0178 32.7561 58.0709 32.5563 58.1433 32.3631C58.3613 31.8677 58.7463 31.4647 59.2312 31.2243C59.663 30.9852 60.038 30.6556 60.3303 30.258C60.3652 30.8713 60.2711 31.4852 60.0542 32.06C59.8054 32.4482 59.4402 32.7478 59.0107 32.9158C58.6088 33.1056 58.2438 33.3653 57.9327 33.6827C57.9184 33.4413 57.9351 33.199 57.9825 32.9618L57.9846 32.9597ZM4.0198 32.919C3.59039 32.7494 3.22463 32.4501 2.9736 32.0626C2.75912 31.4872 2.66549 30.8738 2.69856 30.2606C2.99162 30.6577 3.3664 30.9874 3.79765 31.2275C4.2817 31.4687 4.66619 31.8715 4.88459 32.3662C4.96072 32.5585 5.01552 32.7586 5.04802 32.9629C5.09555 33.2009 5.11173 33.4442 5.09616 33.6864C4.78566 33.3689 4.42121 33.109 4.0198 32.919ZM56.4422 32.5656C56.119 32.3755 55.8523 32.1028 55.6695 31.7754C55.532 31.2942 55.4681 30.7948 55.4801 30.2944C55.7509 30.5921 56.0649 30.8472 56.4116 31.0513C56.6745 31.1751 56.909 31.3517 57.1007 31.5701C57.2923 31.7885 57.4369 32.044 57.5255 32.3207C57.5721 32.5184 57.5922 32.7213 57.5852 32.9242C57.5832 33.1625 57.5455 33.399 57.4736 33.6261C57.2145 33.1985 56.861 32.8357 56.4401 32.5656H56.4422ZM5.44736 32.9253C5.43925 32.7226 5.45792 32.5196 5.5029 32.3218C5.5916 32.0456 5.73591 31.7905 5.92693 31.5722C6.11796 31.3539 6.35166 31.177 6.61363 31.0524C6.96238 30.8499 7.27765 30.5945 7.54823 30.2955C7.56185 30.7961 7.49744 31.2957 7.35729 31.7765C7.17442 32.1034 6.90838 32.3762 6.58613 32.5672C6.16614 32.8374 5.81396 33.2006 5.55685 33.6288C5.48259 33.4017 5.44474 33.1642 5.44472 32.9253H5.44736ZM4.09808 30.2987C3.75419 30.0589 3.4824 29.7297 3.3121 29.3466C3.24964 28.9797 3.23967 28.6057 3.28249 28.2359V28.2052C3.28566 28.1587 3.28725 28.1206 3.28725 28.0957C3.47964 25.7434 3.97146 23.4253 4.75077 21.1975L5.14693 21.3678C4.51274 23.1987 4.07291 25.0912 3.83468 27.0141C3.7804 27.4651 3.87573 27.9215 4.10602 28.3131C4.14833 28.3835 4.19064 28.449 4.2319 28.5167L4.23983 28.5305C4.502 28.9256 4.69317 29.3634 4.80472 29.8242C4.91878 30.2553 4.94753 30.7045 4.88935 31.1465C4.66877 30.8258 4.40134 30.54 4.09597 30.2987H4.09808ZM58.1216 30.4383C58.1342 30.2305 58.1697 30.0248 58.2274 29.8248C58.3345 29.3626 58.5258 28.924 58.7917 28.531L58.797 28.5183C58.8398 28.4501 58.8806 28.385 58.9218 28.3142C59.1538 27.9232 59.2492 27.4663 59.1932 27.0151C58.9572 25.092 58.5176 23.1993 57.882 21.3689L58.2802 21.1986C59.0575 23.4268 59.5472 25.7451 59.7374 28.0973C59.7374 28.1216 59.7411 28.1602 59.7464 28.2063L59.7491 28.2369C59.7909 28.6069 59.7797 28.9809 59.7157 29.3477C59.5472 29.7309 59.2763 30.0603 58.9329 30.2997C58.6275 30.5404 58.3601 30.8257 58.1395 31.146C58.1053 30.9117 58.0986 30.6742 58.1195 30.4383H58.1216ZM56.786 30.1955C56.5052 30.0053 56.2703 29.7549 56.0984 29.4625C56.0585 29.3722 56.0306 29.277 56.0154 29.1795C55.9669 28.9459 55.933 28.7096 55.9138 28.4718C55.7562 26.5127 55.3614 24.58 54.7381 22.7161L55.1342 22.5442C55.6621 24.1167 56.031 25.7382 56.2354 27.3843C56.2878 27.8146 56.4756 28.2171 56.7718 28.5337C57.141 28.8981 57.4162 29.3468 57.5736 29.8412C57.6376 30.036 57.6772 30.238 57.6916 30.4425C57.7136 30.6724 57.7 30.9044 57.6514 31.1301C57.4271 30.7641 57.1322 30.4464 56.7839 30.1955H56.786ZM5.33734 30.4425C5.35088 30.238 5.39015 30.0359 5.45424 29.8412C5.61207 29.347 5.88719 28.8984 6.25608 28.5337C6.55017 28.2159 6.73735 27.8139 6.79135 27.3843C6.99529 25.7381 7.3644 24.1165 7.89309 22.5442L8.28978 22.7161C7.66479 24.5795 7.2701 26.5125 7.11452 28.4718C7.09319 28.7094 7.05894 28.9456 7.01191 29.1795C6.99734 29.2776 6.96903 29.3732 6.92781 29.4635C6.75734 29.7547 6.52472 30.0046 6.24656 30.1955C5.89688 30.4457 5.60056 30.7631 5.3749 31.1291C5.328 30.9034 5.31463 30.6721 5.33523 30.4425H5.33734ZM56.977 26.9046C56.8784 26.2574 56.9187 25.5966 57.0949 24.9661L57.1023 24.9349L57.0949 24.8989C56.8826 23.9341 56.6156 22.9821 56.2952 22.0475L56.6575 21.8888C56.9856 22.8422 57.2591 23.8134 57.4768 24.7979L57.4874 24.8392L57.5038 24.8561C57.9486 25.3864 58.2341 26.032 58.3273 26.7179C58.455 27.5273 58.2947 28.3559 57.8746 29.0594C57.3931 28.4312 57.083 27.6887 56.9749 26.9046H56.977ZM4.70105 26.7216C4.79534 26.0358 5.08114 25.3905 5.52564 24.8598L5.54151 24.8423L5.55473 24.8016C5.77196 23.8172 6.04497 22.8459 6.37244 21.8925L6.73423 22.0512C6.41452 22.9858 6.14805 23.9378 5.93608 24.9026L5.92815 24.9381L5.9382 24.9693C6.1113 25.6003 6.15093 26.2605 6.05456 26.9078C5.94656 27.6929 5.63675 28.4367 5.1554 29.0663C4.7356 28.3612 4.57422 27.5321 4.69894 26.7211L4.70105 26.7216ZM53.0381 19.6235L56.867 17.7193L57.2145 18.417L53.3856 20.3211L53.0381 19.6235ZM5.68061 18.2118L6.06884 17.539L9.0948 19.0168L9.10697 18.9951L6.37191 17.0111L6.8691 16.15L9.93684 17.5601L9.94901 17.5358L7.18222 15.6116L7.57151 14.934L10.9698 17.5998L10.4748 18.454L7.39167 17.0111L7.38004 17.0349L10.1378 19.0448L9.63694 19.9107L5.68061 18.2118ZM52.6821 18.7354C52.5726 18.6866 52.4767 18.6116 52.4029 18.517C52.2919 18.3777 52.1899 18.2314 52.0977 18.079C51.9962 17.9213 51.9057 17.7568 51.8269 17.5866C51.7722 17.4774 51.7475 17.3556 51.7555 17.2338C51.7709 17.1252 51.8221 17.0249 51.9009 16.9487C52.0169 16.8393 52.1446 16.7429 52.2817 16.6615L54.4789 15.3075C54.6113 15.22 54.7546 15.1503 54.9052 15.1001C55.0099 15.0639 55.1237 15.0639 55.2284 15.1001C55.3395 15.1517 55.437 15.2287 55.5129 15.3249C55.6269 15.4681 55.7314 15.6186 55.8255 15.7756C55.9208 15.926 56.0058 16.0828 56.0799 16.2447C56.1335 16.3524 56.158 16.4722 56.1508 16.5922C56.1361 16.7001 56.0851 16.7999 56.0064 16.8752C55.8912 16.9848 55.7634 17.0803 55.6256 17.1597L54.8021 17.6691L54.4091 17.0344L55.2321 16.5245C55.2823 16.495 55.3302 16.4618 55.3754 16.4251C55.406 16.4005 55.4282 16.3671 55.4389 16.3293C55.4436 16.2917 55.4396 16.2536 55.4272 16.2177C55.4082 16.1659 55.3826 16.1166 55.3511 16.0712C55.3224 16.0206 55.2879 15.9734 55.2485 15.9305C55.2221 15.9023 55.1884 15.8818 55.1511 15.8713C55.1117 15.8647 55.0712 15.8707 55.0353 15.8882C54.9837 15.9116 54.9337 15.9385 54.8856 15.9686L52.6895 17.3232C52.6379 17.3552 52.5885 17.3905 52.5415 17.429C52.5093 17.4525 52.4864 17.4865 52.4767 17.5252C52.467 17.5638 52.4712 17.6047 52.4886 17.6405C52.5104 17.6944 52.5375 17.7459 52.5695 17.7945C52.5968 17.8422 52.6296 17.8866 52.6673 17.9267C52.6929 17.9547 52.7256 17.9752 52.762 17.9859C52.8014 17.9926 52.8419 17.9869 52.8778 17.9695C52.933 17.9448 52.9861 17.9156 53.0365 17.8822L53.8796 17.3644L54.2753 17.9991L53.429 18.518C53.2952 18.6048 53.1518 18.6758 53.0016 18.7296C52.9454 18.7479 52.8867 18.7575 52.8276 18.7581C52.7775 18.7581 52.7278 18.7497 52.6806 18.7333L52.6821 18.7354ZM8.87318 14.6056C8.74563 14.5115 8.62985 14.4025 8.52833 14.2808C8.45721 14.1979 8.41719 14.0928 8.41514 13.9836C8.42181 13.8626 8.45932 13.7453 8.52409 13.6429C8.61735 13.4873 8.72126 13.3383 8.8351 13.1971C8.94504 13.0522 9.06524 12.9154 9.19477 12.7877C9.28066 12.6999 9.38809 12.6363 9.5063 12.6031C9.61424 12.5761 9.72817 12.5872 9.82894 12.6343C9.96904 12.7007 10.1009 12.7833 10.2219 12.8802L12.9252 14.9906L12.445 15.6021L11.696 15.016L11.2898 15.5328L12.0414 16.1209L11.576 16.7139L8.87318 14.6056ZM9.48673 13.3695C9.44801 13.3765 9.41227 13.3949 9.38412 13.4224C9.34249 13.4606 9.30409 13.5021 9.26934 13.5467C9.23516 13.5906 9.2044 13.6371 9.17731 13.6858C9.15991 13.7199 9.1517 13.758 9.15351 13.7963C9.15983 13.8348 9.17837 13.8702 9.2064 13.8974C9.2485 13.9382 9.29339 13.976 9.34075 14.0105L10.89 15.2218L11.2946 14.7071L9.74379 13.4964C9.69746 13.4595 9.64809 13.4266 9.59622 13.3981C9.56601 13.382 9.53256 13.3729 9.49837 13.3716L9.48673 13.3695ZM51.1467 16.3653C51.0279 16.3307 50.9203 16.2656 50.8346 16.1765C50.7021 16.0428 50.5774 15.9015 50.4612 15.7533C50.3475 15.6158 50.2448 15.4695 50.1539 15.3159C50.0893 15.2151 50.0519 15.0991 50.0455 14.9795C50.0472 14.8695 50.0853 14.7631 50.1539 14.677C50.2546 14.553 50.3702 14.4419 50.4982 14.3464L51.1657 13.8201L51.6349 14.4125L50.9679 14.9414C50.9195 14.977 50.8749 15.0174 50.8346 15.062C50.8048 15.0884 50.7842 15.1236 50.7759 15.1625C50.7714 15.2002 50.7794 15.2383 50.7987 15.271C50.826 15.3213 50.8579 15.3691 50.8939 15.4138C50.9827 15.527 51.0568 15.583 51.1155 15.5873C51.2137 15.5726 51.3046 15.5266 51.3746 15.4561L51.8787 15.0546C51.9273 15.0196 51.9728 14.9805 52.0146 14.9377C52.0464 14.9046 52.0685 14.8635 52.0786 14.8187C52.0894 14.7636 52.0883 14.7068 52.0755 14.6521C52.0584 14.5667 52.0386 14.4819 52.0162 14.3977C51.959 14.2043 51.9096 14.0086 51.8681 13.8111C51.8398 13.692 51.8318 13.569 51.8443 13.4472C51.8551 13.3575 51.8906 13.2725 51.9469 13.2018C52.0142 13.1225 52.0908 13.0515 52.1749 12.9903L52.4975 12.7337C52.6202 12.6314 52.7544 12.5437 52.8974 12.4724C52.996 12.4248 53.1073 12.4104 53.2148 12.4312C53.3329 12.4653 53.4403 12.5295 53.5263 12.6174C53.6591 12.7499 53.7828 12.8913 53.8965 13.0405C54.0124 13.1833 54.1185 13.3339 54.2139 13.4911C54.2781 13.5926 54.3145 13.7092 54.3197 13.8291C54.3148 13.9388 54.2733 14.0436 54.2017 14.1269C54.1001 14.2506 53.9842 14.3617 53.8563 14.458L53.4401 14.7844L52.9693 14.193L53.3872 13.8624C53.4365 13.8264 53.4823 13.7858 53.5242 13.7413C53.5518 13.7139 53.5702 13.6786 53.5771 13.6403C53.579 13.6019 53.5706 13.5638 53.5527 13.5298C53.5233 13.4791 53.4903 13.4307 53.4538 13.3848C53.4181 13.337 53.3775 13.2931 53.3327 13.2537C53.3063 13.2278 53.2717 13.2117 53.2349 13.2082C53.1954 13.2049 53.156 13.2154 53.1233 13.2378C53.071 13.2696 53.021 13.3049 52.9736 13.3436L52.6425 13.6043C52.6056 13.6306 52.5727 13.6619 52.5446 13.6974C52.5226 13.7288 52.5087 13.7651 52.5044 13.8032C52.5007 13.8543 52.5046 13.9056 52.5161 13.9555C52.5272 14.019 52.551 14.0999 52.5801 14.2015C52.6478 14.448 52.6985 14.6415 52.7287 14.7912C52.7584 14.9114 52.7665 15.0359 52.7525 15.1588C52.743 15.2501 52.7061 15.3364 52.6467 15.4064C52.5698 15.4925 52.4853 15.5716 52.3944 15.6428L51.8581 16.0659C51.7334 16.1667 51.5987 16.2545 51.4561 16.3278C51.3872 16.3589 51.3127 16.3758 51.2371 16.3775C51.2065 16.376 51.1762 16.371 51.1467 16.3627V16.3653ZM10.3806 11.4252L11.1608 10.6397C11.2918 10.5059 11.4308 10.3802 11.577 10.2631C11.6728 10.1842 11.7871 10.1311 11.9092 10.1087C12.0161 10.0947 12.1247 10.1175 12.217 10.1732C12.344 10.2561 12.4615 10.3528 12.5672 10.4615L12.8845 10.7788C12.9538 10.8411 13.0096 10.9169 13.0485 11.0015C13.0761 11.0654 13.0896 11.1345 13.0882 11.2041C13.0865 11.2648 13.0719 11.3245 13.0453 11.3792C13.0212 11.4313 12.9931 11.4816 12.9612 11.5294L12.9776 11.5442C13.0344 11.5078 13.0934 11.4749 13.1543 11.4458C13.2125 11.4203 13.276 11.4092 13.3394 11.4135C13.4106 11.4192 13.4795 11.4411 13.5409 11.4775C13.6262 11.5266 13.7046 11.5867 13.7742 11.6563L14.9817 12.8601L14.429 13.4145L13.15 12.145C13.0964 12.0787 13.0218 12.0326 12.9385 12.0144C12.8824 12.0075 12.8062 12.052 12.7089 12.1487L12.4614 12.3979L13.9588 13.8815L13.4076 14.4332L10.3806 11.4252ZM11.6781 10.9042C11.6308 10.9389 11.5864 10.9773 11.5453 11.019L11.3136 11.2559L12.1155 12.0525L12.3625 11.8028C12.4323 11.7483 12.4798 11.6703 12.4963 11.5833C12.4918 11.5451 12.4798 11.5082 12.4609 11.4747C12.442 11.4412 12.4166 11.4118 12.3863 11.3882L12.0129 11.0179C11.9749 10.9777 11.9335 10.9409 11.8891 10.9079C11.8598 10.8864 11.8253 10.873 11.7891 10.8693H11.7785C11.7424 10.8716 11.7077 10.8843 11.6786 10.9058L11.6781 10.9042ZM49.3092 14.1465C49.1879 14.125 49.074 14.0731 48.9781 13.9957C48.832 13.8786 48.6928 13.753 48.5613 13.6197C48.4268 13.4897 48.3013 13.3506 48.1858 13.2034C48.1057 13.1104 48.0526 12.9971 48.0324 12.876C48.0192 12.7666 48.0465 12.6562 48.1091 12.5655C48.1955 12.4309 48.2972 12.3066 48.4122 12.1953L50.2354 10.3721C50.3458 10.2557 50.4701 10.1534 50.6056 10.0674C50.6957 10.0068 50.8045 9.98034 50.9124 9.99286C51.0331 10.0145 51.1466 10.0659 51.2424 10.1425C51.5319 10.3797 51.7976 10.6446 52.0358 10.9333C52.1139 11.0282 52.1667 11.1414 52.1892 11.2623C52.2026 11.3711 52.1777 11.4813 52.1188 11.5738C52.0313 11.7067 51.9295 11.8296 51.8152 11.9403L49.9915 13.7651C49.8814 13.8814 49.758 13.9844 49.6239 14.0719C49.5478 14.1206 49.4598 14.1473 49.3695 14.1491C49.3496 14.1503 49.3296 14.15 49.3097 14.1481L49.3092 14.1465ZM50.9145 10.8074C50.8691 10.8417 50.8263 10.8793 50.7865 10.9201L48.9654 12.7454C48.921 12.7883 48.8799 12.8346 48.8427 12.8839C48.8182 12.914 48.804 12.951 48.802 12.9897C48.8027 13.0277 48.8148 13.0646 48.8369 13.0955C48.8701 13.1426 48.9078 13.1864 48.9495 13.2262C48.9908 13.2678 49.0356 13.3059 49.0834 13.3399C49.1144 13.3613 49.1514 13.3726 49.1891 13.3721C49.2302 13.3709 49.2695 13.3554 49.3002 13.3282C49.3469 13.2932 49.3906 13.2542 49.4309 13.2119L51.2535 11.3866C51.3556 11.2808 51.4069 11.2036 51.4069 11.1464C51.4069 11.0893 51.3588 11.0105 51.2599 10.9111C51.2213 10.8687 51.1776 10.8312 51.1298 10.7995C51.097 10.7774 51.0587 10.7651 51.0192 10.764C50.9805 10.7678 50.9439 10.7835 50.9145 10.809V10.8074ZM53.7913 12.6332L54.7608 12.4106L55.222 12.9924L54.1161 13.0453L53.7913 12.6332ZM15.0478 12.0874L13.8551 8.91756L13.1046 9.52529L12.7761 9.12226L14.1359 8.02104L14.4036 8.34791L15.6793 11.5796L16.5055 10.9111L16.843 11.3268L15.3874 12.5047L15.0478 12.0874ZM46.636 11.8229L47.641 9.22751L47.622 9.21006L45.9823 11.3104L45.4534 10.9005L48.0842 7.53391L48.7628 8.06283L47.6823 10.6979L47.7039 10.7143L49.3917 8.55314L49.9254 8.96834L47.2961 12.3349L46.636 11.8229ZM16.9107 9.44278L14.7469 7.55982L15.3906 7.13669L16.7758 8.53515L16.797 8.51981L16.0744 6.68552L16.7092 6.26978L17.5612 9.01435L18.3932 10.2737L17.7421 10.7L16.9107 9.44278ZM43.6498 9.76437L45.904 6.1365L46.562 6.54641L44.5939 9.71623L45.2735 10.1351L44.9874 10.5942L43.6498 9.76437ZM17.5956 5.73927L18.5752 5.26589L20.1958 7.66931L20.2212 7.65609L19.3368 4.89565L20.31 4.42332L22.1793 8.26487L21.6054 8.54097L20.2831 5.82813L20.2582 5.84136L21.1362 8.76946L20.5084 9.07254L18.7354 6.55646L18.7095 6.56809L20.0387 9.3005L19.4643 9.5803L17.5956 5.73927ZM42.3232 9.05773L42.7395 8.20299L42.1497 7.91684L41.7345 8.77158L41.0538 8.44048L42.5496 5.36163C42.6168 5.21698 42.6993 5.07992 42.7955 4.95277C42.8643 4.86809 42.9591 4.80857 43.0653 4.78351C43.1839 4.76248 43.306 4.774 43.4186 4.81684C43.5917 4.87542 43.7605 4.94612 43.9237 5.0284C44.0885 5.1052 44.2475 5.19357 44.3998 5.29287C44.5027 5.35995 44.5881 5.45061 44.6489 5.55733C44.6941 5.65666 44.7065 5.76782 44.6843 5.87468C44.6503 6.02683 44.597 6.174 44.5256 6.31263L43.0262 9.39359L42.3232 9.05773ZM43.4038 5.46582C43.3695 5.48053 43.3399 5.5043 43.3181 5.53458C43.2865 5.5843 43.2586 5.63628 43.2346 5.69009L42.3729 7.45933L42.9627 7.74494L43.8248 5.9757C43.8514 5.92391 43.8725 5.86949 43.8878 5.81332C43.898 5.77593 43.898 5.73647 43.8878 5.69908C43.8739 5.66373 43.85 5.63321 43.819 5.61128C43.7722 5.578 43.7225 5.54914 43.6704 5.52506C43.6213 5.5002 43.5699 5.48018 43.517 5.46529C43.4973 5.45989 43.4771 5.45705 43.4567 5.45683C43.4382 5.45818 43.4199 5.46246 43.4027 5.46952L43.4038 5.46582ZM39.9029 8.02898C39.7221 7.98943 39.5442 7.93783 39.3703 7.87453C39.2053 7.81927 39.0446 7.75209 38.8895 7.67354C38.7855 7.62397 38.6969 7.54721 38.6329 7.45139C38.5777 7.35792 38.5568 7.24815 38.5737 7.14092C38.5943 6.98253 38.6332 6.82705 38.6895 6.67758L39.0201 5.74615L39.6908 5.98152L39.3602 6.91401C39.3155 7.00327 39.3019 7.10493 39.3216 7.2028C39.3454 7.25834 39.4205 7.30858 39.5432 7.35143C39.6262 7.39385 39.7226 7.40165 39.8114 7.37311C39.8853 7.307 39.9374 7.21991 39.9605 7.12346L41.0982 3.89704L41.8387 4.1615L40.6984 7.38792C40.6498 7.54011 40.5837 7.68618 40.5016 7.82323C40.4449 7.91598 40.3589 7.98724 40.2573 8.0258C40.2005 8.04469 40.1409 8.05381 40.0811 8.05278C40.0208 8.05252 39.9607 8.04578 39.9018 8.03268L39.9029 8.02898ZM22.8758 6.43163L21.2706 4.05572L22.0026 3.8103L22.9795 5.52189L23.006 5.51184L22.7801 3.55483L23.4973 3.31576L23.6147 6.18727L24.094 7.61536L23.3535 7.86078L22.8758 6.43163ZM37.399 7.24882C37.2209 7.23101 37.0442 7.20151 36.87 7.16049C36.6866 7.12026 36.5059 7.0685 36.329 7.00551C36.2125 6.96804 36.1081 6.90033 36.0264 6.80928C35.9585 6.72368 35.9226 6.61705 35.9249 6.5078C35.9294 6.34815 35.951 6.18944 35.9894 6.03441L36.5654 3.51886C36.596 3.36377 36.6463 3.21323 36.7151 3.07087C36.7615 2.97053 36.8424 2.89019 36.943 2.84449C37.0573 2.79768 37.1819 2.78181 37.3043 2.79847C37.6636 2.8386 38.0172 2.91916 38.3584 3.0386C38.4725 3.07664 38.5744 3.14438 38.6536 3.23483C38.7215 3.31921 38.7577 3.42481 38.7556 3.53314C38.7532 3.69271 38.7319 3.85143 38.6922 4.006L38.4758 4.94695L37.7449 4.78193L37.9601 3.83727C37.9759 3.78093 37.986 3.72318 37.9903 3.66485C37.9962 3.62609 37.9875 3.58652 37.966 3.55377C37.9448 3.52154 37.9135 3.49719 37.8771 3.48448C37.8266 3.46106 37.7733 3.44434 37.7184 3.43477C37.6625 3.42054 37.6052 3.41186 37.5476 3.40885C37.5084 3.40623 37.4694 3.41584 37.436 3.43635C37.4043 3.45915 37.3806 3.49135 37.3683 3.52838C37.3483 3.58208 37.3326 3.63725 37.3212 3.69341L36.7457 6.20631C36.7304 6.26436 36.7203 6.32366 36.7156 6.3835C36.71 6.42253 36.7174 6.46233 36.7368 6.49669C36.7585 6.52926 36.7894 6.55466 36.8256 6.56968C36.8785 6.59277 36.9336 6.61049 36.9901 6.62257C37.0437 6.63573 37.0984 6.64388 37.1535 6.6469C37.1928 6.64928 37.2318 6.63989 37.2657 6.61993C37.298 6.59736 37.3225 6.56542 37.336 6.52843C37.3568 6.47054 37.3745 6.41157 37.3889 6.35177L37.6089 5.39019L38.3389 5.5568L38.1172 6.52049C38.0862 6.67735 38.0369 6.83002 37.9702 6.97536C37.9251 7.07537 37.8455 7.15575 37.7459 7.20174C37.6642 7.23901 37.575 7.2571 37.4852 7.25463C37.4573 7.25604 37.4282 7.25534 37.3979 7.25252L37.399 7.24882ZM33.723 6.58978L34.2424 2.35206L35.753 2.53666L35.6879 3.04654L34.9501 2.95715L34.875 3.57281L35.5906 3.6622L35.534 4.14987L34.8136 4.06154L34.5587 6.15448L35.3044 6.24439L35.2399 6.77332L33.723 6.58978ZM28.5295 6.68499C28.4096 6.68355 28.292 6.6517 28.1878 6.59242C28.0962 6.53154 28.0278 6.44153 27.9937 6.33696C27.9437 6.18476 27.9124 6.02703 27.9006 5.86727L27.817 5.0247L28.575 4.95012L28.6564 5.79323C28.66 5.85431 28.6687 5.915 28.6823 5.97464C28.6902 6.0129 28.7085 6.04823 28.7352 6.07673C28.764 6.10073 28.7999 6.11466 28.8373 6.1164C28.8947 6.12181 28.9524 6.12181 29.0097 6.1164C29.106 6.11884 29.1999 6.08655 29.2742 6.02542C29.3173 5.9348 29.3282 5.83214 29.3049 5.73451L29.2414 5.09399C29.2364 5.03459 29.2276 4.97558 29.215 4.91733C29.2045 4.8718 29.1807 4.8304 29.1467 4.79832C29.1068 4.76008 29.0589 4.73102 29.0066 4.71317C28.9468 4.68725 28.8638 4.66028 28.7612 4.62484C28.5178 4.55114 28.3266 4.48626 28.1873 4.4302C28.0725 4.38858 27.9654 4.32855 27.8699 4.25248C27.7997 4.19526 27.7477 4.11879 27.7202 4.03245C27.6899 3.93283 27.6709 3.83009 27.6636 3.7262L27.6219 3.31734C27.6022 3.15928 27.6022 2.99938 27.6219 2.84132C27.6336 2.73145 27.6827 2.62894 27.761 2.55094C27.8523 2.47089 27.963 2.41618 28.082 2.39226C28.2655 2.35185 28.4516 2.32428 28.639 2.30975C28.8223 2.28908 29.0067 2.28043 29.1912 2.28383C29.3117 2.28388 29.4299 2.31699 29.5328 2.37957C29.6227 2.44204 29.6891 2.53268 29.7217 2.63715C29.7701 2.78955 29.7997 2.94727 29.81 3.10683L29.8629 3.63576L29.1071 3.70716L29.0542 3.18141C29.0491 3.11934 29.0399 3.05768 29.0267 2.99682C29.0201 2.95872 29.0016 2.92371 28.9738 2.89685C28.9427 2.87456 28.9061 2.86137 28.868 2.85877C28.8093 2.85451 28.7504 2.85557 28.6919 2.86194C28.6315 2.86742 28.5717 2.87804 28.5131 2.89368C28.477 2.90154 28.4446 2.92128 28.4211 2.94974C28.399 2.98263 28.3871 3.02123 28.3867 3.06082C28.3858 3.12176 28.3887 3.18269 28.3951 3.2433L28.4337 3.66379C28.4381 3.70883 28.4476 3.75321 28.4623 3.79602C28.4742 3.8327 28.4971 3.86484 28.5279 3.88805C28.5691 3.91953 28.6149 3.94434 28.6638 3.96157C28.7428 3.99199 28.8233 4.0183 28.905 4.04038C29.1473 4.11602 29.3414 4.18107 29.4826 4.23608C29.5993 4.27681 29.7084 4.33689 29.8052 4.4138C29.8756 4.47295 29.928 4.55064 29.9565 4.63806C29.9875 4.74881 30.0074 4.86239 30.0158 4.9771L30.0829 5.66047C30.1001 5.81868 30.1001 5.97828 30.0829 6.1365C30.0712 6.2455 30.0223 6.34714 29.9443 6.42423C29.8509 6.5044 29.7383 6.55906 29.6175 6.5829C29.4326 6.6226 29.2453 6.65016 29.0568 6.66542C28.907 6.68158 28.7564 6.69005 28.6056 6.6908L28.5295 6.68499ZM30.8567 6.47765L30.9392 2.21084L32.05 2.23147C32.2374 2.23259 32.4245 2.24638 32.6101 2.27272C32.7324 2.28599 32.8493 2.32983 32.9502 2.4002C33.0333 2.46733 33.0915 2.56048 33.1152 2.66466C33.1428 2.81571 33.1544 2.96922 33.1501 3.1227L33.1311 4.03668C33.1338 4.19068 33.116 4.34436 33.0782 4.49367C33.0496 4.5979 32.9868 4.68952 32.9 4.75389C32.7973 4.82042 32.6793 4.8594 32.5572 4.86708C32.3726 4.88452 32.1871 4.89017 32.0019 4.88401L31.667 4.87608L31.6374 6.49193L30.8567 6.47765ZM31.676 4.37572L32.0066 4.38259C32.0639 4.3845 32.1213 4.38096 32.178 4.37201C32.2165 4.36603 32.2523 4.34851 32.2806 4.32177C32.3057 4.29244 32.3226 4.25706 32.3298 4.21916C32.3411 4.16078 32.3466 4.10143 32.3462 4.04197L32.3636 3.10736C32.3658 3.05193 32.3638 2.99642 32.3578 2.94128C32.3546 2.90405 32.3402 2.86866 32.3166 2.83973C32.2891 2.81328 32.2549 2.79497 32.2177 2.78684C32.159 2.77587 32.0996 2.77038 32.0399 2.77044L31.7062 2.76515L31.676 4.37572Z" fill="#BEBEBE"/>
</g>
<defs>
<clipPath id="clip0_84_260">
<rect width="62.9416" height="64" fill="white"/>
</clipPath>
</defs>
</svg>
