<svg width="102" height="56" viewBox="0 0 102 56" fill="none" xmlns="http://www.w3.org/2000/svg">
<path d="M74.8261 40.9018H66.9006V56.3788H74.8934V49.396L84.3281 56.3788H92.3164V40.9018H84.3221V47.9469L74.8261 40.9018ZM51.1524 0.145081C23.084 0.145081 0.331543 22.8984 0.331543 50.9655C0.331543 52.7951 0.428435 54.5997 0.616443 56.3795H5.93864C5.72608 54.5826 5.6198 52.7749 5.62037 50.9655C5.62037 25.8194 26.0061 5.43391 51.1526 5.43391C76.2993 5.43391 96.6853 25.8194 96.6853 50.9655C96.6853 52.7979 96.5771 54.6042 96.3672 56.3795H101.689C101.879 54.5811 101.974 52.7739 101.974 50.9655C101.973 22.8984 79.22 0.145081 51.1524 0.145081ZM55.4176 40.9018H46.9191L36.8469 56.3788H45.0964L46.2158 54.6472H56.1213L57.2416 56.3788H65.4907L55.4176 40.9018ZM53.4864 50.5334H48.851L51.1687 46.9525L53.4864 50.5334ZM17.3415 40.9018H9.84361V56.3788H17.8381V50.2586L22.6136 55.0335L27.3881 50.2586V56.3788H35.3824V40.9018H27.8843L22.6134 46.1733L17.3415 40.9018Z" fill="#BEBEBE"/>
</svg>
