<svg width="165" height="65" viewBox="0 0 165 65" fill="none" xmlns="http://www.w3.org/2000/svg">
<path d="M105.888 45.1396H97.9626V60.6166H105.955V53.6337L115.39 60.6166H123.378V45.1396H115.384V52.1846L105.888 45.1396ZM82.2144 4.38281C54.146 4.38281 31.3936 27.1361 31.3936 55.2032C31.3936 57.0328 31.4904 58.8374 31.6785 60.6172H37.0007C36.7881 58.8204 36.6818 57.0126 36.6824 55.2032C36.6824 30.0572 57.0681 9.67164 82.2146 9.67164C107.361 9.67164 127.747 30.0572 127.747 55.2032C127.747 57.0356 127.639 58.8419 127.429 60.6172H132.751C132.941 58.8188 133.036 57.0116 133.036 55.2032C133.035 27.1361 110.282 4.38281 82.2144 4.38281ZM86.4796 45.1396H77.9811L67.9089 60.6166H76.1584L77.2779 58.8849H87.1833L88.3036 60.6166H96.5527L86.4796 45.1396ZM84.5484 54.7712H79.913L82.2307 51.1903L84.5484 54.7712ZM48.4035 45.1396H40.9056V60.6166H48.9001V54.4963L53.6756 59.2712L58.4501 54.4963V60.6166H66.4444V45.1396H58.9463L53.6754 50.4111L48.4035 45.1396Z" fill="#BEBEBE"/>
</svg>
