<svg width="24" height="24" viewBox="0 0 24 24" fill="none" xmlns="http://www.w3.org/2000/svg">
<path d="M8.87869 2.9232C8.49903 2.04506 7.57976 1.46924 6.5575 1.46924H3.11842C1.81038 1.46924 0.75 2.45034 0.75 3.66053C0.75 13.9472 9.76347 22.2861 20.8818 22.2861C22.1899 22.2861 23.25 21.3051 23.25 20.0949L23.2499 16.9131C23.2499 15.9673 22.6274 15.1168 21.6782 14.7656L18.3839 13.5463C17.5313 13.2308 16.5607 13.373 15.8552 13.9169L15.0038 14.5731C14.0105 15.339 12.55 15.2777 11.6357 14.4318L9.2392 12.2148C8.32491 11.3689 8.25903 10.0175 9.08679 9.09848L9.79602 8.31102C10.3839 7.65836 10.5375 6.76011 10.1965 5.9713L8.87869 2.9232Z" stroke="white" stroke-width="1.5" stroke-linecap="round" stroke-linejoin="round"/>
</svg>
