<svg width="165" height="65" viewBox="0 0 165 65" fill="none" xmlns="http://www.w3.org/2000/svg">
<g clip-path="url(#clip0_318_403)">
<path d="M82.9307 4.86359C59.3418 4.86359 40.2158 17.2362 40.2158 32.4944C40.2158 47.7581 59.3418 60.1364 82.9307 60.1364C106.52 60.1364 125.646 47.7637 125.646 32.4944C125.646 17.225 106.52 4.86359 82.9307 4.86359ZM82.9307 48.2746C79.4221 48.2746 76.5591 41.3641 76.3795 32.6684C78.4902 32.8536 80.6852 32.9547 82.9307 32.9547C85.1762 32.9547 87.3712 32.8536 89.4819 32.6684C89.3023 41.3584 86.4393 48.2746 82.9307 48.2746ZM76.8117 25.7635C77.7661 19.6165 80.1463 15.2546 82.9307 15.2546C85.7151 15.2546 88.0953 19.6165 89.0497 25.7635C87.0905 25.9375 85.0471 26.033 82.9307 26.033C80.8143 26.033 78.7709 25.9375 76.8117 25.7635ZM82.9307 8.86056C78.3499 8.86056 74.4427 15.7205 73 25.2976C64.3156 23.9447 58.2527 20.8571 58.2527 17.2699C58.2527 12.4309 69.3006 8.5069 82.9307 8.5069C96.5608 8.5069 107.609 12.4309 107.609 17.2699C107.609 20.8571 101.546 23.9447 92.8614 25.2976C91.4187 15.7205 87.5115 8.86056 82.9307 8.86056ZM46.3404 31.4614C46.3404 26.7796 48.1424 22.384 51.2805 18.6116C51.2468 18.8755 51.2243 19.1449 51.2243 19.4144C51.2243 25.3144 60.0716 30.3443 72.4162 32.1968C72.4049 32.6235 72.4049 33.0557 72.4049 33.488C72.4049 44.4853 75.4869 53.7985 79.7477 56.959C61.0259 55.8306 46.3404 44.8446 46.3404 31.4614ZM86.1137 56.959C90.3745 53.7985 93.4564 44.4853 93.4564 33.488C93.4564 33.0501 93.4508 32.6235 93.4452 32.1968C105.784 30.3443 114.637 25.32 114.637 19.4144C114.637 19.1449 114.615 18.8755 114.581 18.6116C117.719 22.3953 119.521 26.7796 119.521 31.4614C119.521 44.8446 104.835 55.8306 86.1137 56.959Z" fill="#BEBEBE"/>
</g>
<defs>
<clipPath id="clip0_318_403">
<rect width="86.2269" height="56.0475" fill="white" transform="translate(39.8174 4.47626)"/>
</clipPath>
</defs>
</svg>
