<svg width="86" height="56" viewBox="0 0 86 56" fill="none" xmlns="http://www.w3.org/2000/svg">
<path d="M43.0771 0.387024C19.5082 0.387024 0.398438 12.7492 0.398438 27.9944C0.398438 43.2452 19.5082 55.613 43.0771 55.613C66.646 55.613 85.7558 43.2508 85.7558 27.9944C85.7558 12.738 66.646 0.387024 43.0771 0.387024ZM43.0771 43.7612C39.5715 43.7612 36.7109 36.8566 36.5314 28.1683C38.6404 28.3534 40.8335 28.4543 43.0771 28.4543C45.3207 28.4543 47.5138 28.3534 49.6228 28.1683C49.4433 36.851 46.5827 43.7612 43.0771 43.7612ZM36.9633 21.2692C37.9169 15.1274 40.2951 10.7692 43.0771 10.7692C45.8592 10.7692 48.2374 15.1274 49.1909 21.2692C47.2334 21.4431 45.1917 21.5385 43.0771 21.5385C40.9625 21.5385 38.9209 21.4431 36.9633 21.2692ZM43.0771 4.38061C38.5002 4.38061 34.5963 11.2348 33.1548 20.8037C24.4778 19.4519 18.4201 16.367 18.4201 12.7829C18.4201 7.94792 29.4585 4.02725 43.0771 4.02725C56.6957 4.02725 67.7342 7.94792 67.7342 12.7829C67.7342 16.367 61.6765 19.4519 52.9994 20.8037C51.5579 11.2348 47.654 4.38061 43.0771 4.38061ZM6.51783 26.9623C6.51783 22.2845 8.31831 17.8926 11.4537 14.1234C11.4201 14.387 11.3976 14.6563 11.3976 14.9255C11.3976 20.8205 20.2374 25.8462 32.5715 27.6971C32.5603 28.1234 32.5603 28.5553 32.5603 28.9872C32.5603 39.9752 35.6396 49.2804 39.8968 52.4383C21.1909 51.3109 6.51783 40.3341 6.51783 26.9623ZM46.2574 52.4383C50.5146 49.2804 53.5939 39.9752 53.5939 28.9872C53.5939 28.5497 53.5883 28.1234 53.5827 27.6971C65.9112 25.8462 74.7566 20.8261 74.7566 14.9255C74.7566 14.6563 74.7342 14.387 74.7005 14.1234C77.8359 17.9039 79.6364 22.2845 79.6364 26.9623C79.6364 40.3341 64.9633 51.3109 46.2574 52.4383Z" fill="#BEBEBE"/>
</svg>
