<svg width="165" height="63" viewBox="0 0 165 63" fill="none" xmlns="http://www.w3.org/2000/svg">
<g clip-path="url(#clip0_318_400)">
<path d="M85.7979 25.0239H89.6041L99.9276 39.2632H96.1487L85.7979 25.0239Z" fill="#BEBEBE"/>
<path d="M89.4947 39.2631H85.7158C85.7158 39.2631 96.5596 20.3687 103.734 19.5472C97.1072 22.6141 89.4947 39.2631 89.4947 39.2631Z" fill="#969393"/>
<path d="M-0.103516 24.4762H3.31938L6.93396 35.4021H6.96134L10.439 24.4762H13.6976L8.60434 38.6881H5.07191L-0.103516 24.4762Z" fill="#BEBEBE"/>
<path d="M14.5186 19.0543H17.6676V22.0117H14.5186V19.0543ZM14.5186 24.4762H17.6676V38.6881H14.5186V24.4762Z" fill="#BEBEBE"/>
<path d="M21.7486 34.1425C21.9129 35.9498 23.2821 36.607 24.9798 36.607C26.1573 36.607 28.2384 36.3606 28.1563 34.7449C28.0741 33.102 25.8013 32.9103 23.5011 32.39C21.2009 31.8971 18.9281 31.0756 18.9281 28.173C18.9281 25.0513 22.2963 24.0929 24.8703 24.0929C27.7729 24.0929 30.4291 25.2978 30.8124 28.4742H27.5264C27.2526 26.9955 26.0204 26.5848 24.6512 26.5848C23.7476 26.5848 22.0772 26.8038 22.0772 28.0361C22.0772 29.5695 24.3774 29.7886 26.7049 30.3089C28.9778 30.8292 31.3053 31.6507 31.3053 34.4711C31.3053 37.8666 27.8824 39.0989 24.9524 39.0989C21.3652 39.0989 18.7091 37.5107 18.6543 34.1425H21.7486Z" fill="#BEBEBE"/>
<path d="M32.6465 19.0543H35.7682V22.0117H32.6465V19.0543ZM32.6465 24.4762H35.7682V38.6881H32.6465V24.4762Z" fill="#BEBEBE"/>
<path d="M36.8916 31.5685C36.8916 27.2146 39.493 24.0929 44.066 24.0929C48.639 24.0929 51.2404 27.242 51.2404 31.5685C51.2404 35.9498 48.639 39.0715 44.066 39.0715C39.5204 39.0715 36.8916 35.9498 36.8916 31.5685ZM48.1187 31.5685C48.1187 29.1314 46.8865 26.5574 44.066 26.5574C41.2455 26.5574 40.0133 29.104 40.0133 31.5685C40.0133 34.033 41.2455 36.607 44.066 36.607C46.8865 36.607 48.1187 34.0604 48.1187 31.5685Z" fill="#BEBEBE"/>
<path d="M52.3633 24.4763H55.3207V26.5574L55.3754 26.6122C56.3065 25.0513 57.9221 24.0929 59.8115 24.0929C62.9058 24.0929 64.85 25.7359 64.85 28.9397V38.7155H61.7283V29.7886C61.6736 27.5706 60.7973 26.5848 58.9626 26.5848C56.8815 26.5848 55.5123 28.2278 55.5123 30.3363V38.7155H52.3633V24.4763Z" fill="#BEBEBE"/>
<path d="M76.652 32.39C76.652 34.608 77.8568 36.607 80.4856 36.607C82.2929 36.607 83.3882 35.8129 83.9633 34.252H86.9206C86.2361 37.3737 83.5799 39.0988 80.4856 39.0988C76.0221 39.0988 73.5303 36.0045 73.5303 31.6232C73.5303 27.5705 76.1591 24.1202 80.4034 24.1202C84.8943 24.1202 87.6326 28.1729 87.1123 32.4173L76.652 32.39ZM83.9633 30.3362C83.8537 28.3646 82.512 26.5573 80.3761 26.5573C78.2128 26.5573 76.7067 28.2003 76.6246 30.3362H83.9633Z" fill="#BEBEBE"/>
<path d="M100.776 24.4763H103.734V26.3931H103.789C104.665 24.7775 106.363 24.0929 108.197 24.0929C112.688 24.0929 114.851 27.5158 114.851 31.6507C114.851 35.4843 112.934 39.0715 108.717 39.0715C106.91 39.0715 104.939 38.4143 103.953 36.8535H103.898V43.9457H100.776V24.4763ZM107.786 26.5574C105.158 26.5574 103.789 28.5564 103.789 31.5959C103.789 34.4711 105.24 36.607 107.786 36.607C110.634 36.607 111.73 34.0878 111.73 31.5959C111.73 29.0219 110.388 26.5574 107.786 26.5574Z" fill="#BEBEBE"/>
<path d="M116.11 24.4762H119.068V27.2146H119.123C119.478 25.7085 121.341 24.0655 123.285 24.0655C123.997 24.0655 124.188 24.1203 124.462 24.1476V27.1598C124.024 27.105 123.559 27.0229 123.12 27.0229C120.985 27.0229 119.259 28.748 119.259 31.8971V38.6607H116.11V24.4762Z" fill="#BEBEBE"/>
<path d="M127.283 32.39C127.283 34.608 128.488 36.607 131.116 36.607C132.924 36.607 134.046 35.8129 134.594 34.252H137.579C136.894 37.3737 134.238 39.0988 131.144 39.0988C126.68 39.0988 124.188 36.0045 124.188 31.6232C124.188 27.5705 126.817 24.1202 131.062 24.1202C135.552 24.1202 138.291 28.1729 137.771 32.4173L127.283 32.39ZM134.621 30.3362C134.512 28.3646 133.17 26.5573 131.034 26.5573C128.871 26.5573 127.365 28.2003 127.283 30.3362H134.621Z" fill="#BEBEBE"/>
<path d="M141.522 34.1425C141.686 35.9498 143.056 36.607 144.726 36.607C145.903 36.607 147.984 36.3606 147.902 34.7449C147.82 33.102 145.547 32.9103 143.247 32.39C140.947 31.8971 138.674 31.0756 138.674 28.173C138.674 25.0513 142.042 24.0929 144.616 24.0929C147.519 24.0929 150.175 25.2978 150.559 28.4742H147.273C146.999 26.9955 145.766 26.5848 144.397 26.5848C143.494 26.5848 141.823 26.8038 141.823 28.0361C141.823 29.5695 144.123 29.7886 146.451 30.3089C148.724 30.8292 151.051 31.6507 151.051 34.4711C151.051 37.8666 147.629 39.0989 144.699 39.0989C141.111 39.0989 138.455 37.5107 138.4 34.1425H141.522Z" fill="#BEBEBE"/>
<path d="M154.694 34.1425C154.858 35.9498 156.227 36.607 157.925 36.607C159.103 36.607 161.184 36.3606 161.102 34.7449C161.019 33.102 158.747 32.9103 156.446 32.39C154.146 31.8971 151.873 31.0756 151.873 28.173C151.873 25.0513 155.242 24.0929 157.816 24.0929C160.746 24.0929 163.374 25.2978 163.758 28.4742H160.472C160.198 26.9955 158.966 26.5848 157.597 26.5848C156.693 26.5848 155.023 26.8038 155.023 28.0361C155.023 29.5695 157.323 29.7886 159.65 30.3089C161.923 30.8292 164.251 31.6507 164.251 34.4711C164.251 37.8666 160.828 39.0989 157.898 39.0989C154.311 39.0989 151.654 37.5107 151.6 34.1425H154.694Z" fill="#BEBEBE"/>
</g>
<defs>
<clipPath id="clip0_318_400">
<rect width="164.14" height="62.8914" fill="white" transform="translate(0.00292969 0.0543213)"/>
</clipPath>
</defs>
</svg>
