<svg width="76" height="56" viewBox="0 0 76 56" fill="none" xmlns="http://www.w3.org/2000/svg">
<g clip-path="url(#clip0_84_153)">
<path d="M75.5056 0H0V56H75.5056V0Z" fill="#BEBEBE"/>
<path d="M69.887 5.59991L65.8483 28L69.887 50.3998H65.8483L63.0388 35.875L60.4049 50.3998H56.3662L60.4049 28L56.3662 5.59991H60.4049L63.0388 20.65L65.8483 5.59991H69.887Z" fill="#646464"/>
<path d="M45.4791 11.0251V44.9752C45.4791 46.0252 46.3571 47.075 47.5862 47.075C48.6398 47.075 49.6934 46.2002 49.6934 44.9752V11.0251C49.6934 9.97509 48.8154 8.92509 47.5862 8.92509C46.3571 8.92509 45.4791 9.97509 45.4791 11.0251ZM41.4404 44.9752V11.0251C41.4404 7.70009 44.2499 4.90009 47.5862 4.90009C50.9225 4.90009 53.732 7.70009 53.732 11.0251V44.9752C53.732 48.3 50.9225 51.1002 47.5862 51.1002C44.0743 51.1002 41.4404 48.3 41.4404 44.9752Z" fill="#646464"/>
<path d="M38.6306 5.59991L34.7676 50.3998H28.9729L25.1099 5.59991H29.1485L31.958 36.75L34.592 5.59991H38.6306Z" fill="#646464"/>
</g>
<defs>
<clipPath id="clip0_84_153">
<rect width="75.5056" height="56" fill="white"/>
</clipPath>
</defs>
</svg>
