<svg width="165" height="65" viewBox="0 0 165 65" fill="none" xmlns="http://www.w3.org/2000/svg">
<g clip-path="url(#clip0_318_155)">
<path d="M119.855 4.47626H44.2852V60.5237H119.855V4.47626Z" fill="#BEBEBE"/>
<path d="M114.231 10.0809L110.189 32.5L114.231 54.9188H110.189L107.377 40.3817L104.741 54.9188H100.699L104.741 32.5L100.699 10.0809H104.741L107.377 25.1438L110.189 10.0809H114.231Z" fill="#646464"/>
<path d="M89.8028 15.5107V49.4896C89.8028 50.5405 90.6816 51.5912 91.9118 51.5912C92.9662 51.5912 94.0207 50.7156 94.0207 49.4896V15.5107C94.0207 14.4598 93.142 13.4089 91.9118 13.4089C90.6816 13.4089 89.8028 14.4598 89.8028 15.5107ZM85.7607 49.4896V15.5107C85.7607 12.1829 88.5726 9.38049 91.9118 9.38049C95.2509 9.38049 98.0628 12.1829 98.0628 15.5107V49.4896C98.0628 52.8172 95.2509 55.6198 91.9118 55.6198C88.3969 55.6198 85.7607 52.8172 85.7607 49.4896Z" fill="#646464"/>
<path d="M82.9483 10.0809L79.0819 54.9188H73.2824L69.416 10.0809H73.4581L76.27 41.2574L78.9062 10.0809H82.9483Z" fill="#646464"/>
</g>
<defs>
<clipPath id="clip0_318_155">
<rect width="75.5696" height="56.0475" fill="white" transform="translate(44.2852 4.47626)"/>
</clipPath>
</defs>
</svg>
